<svg width="72" height="180" viewBox="0 0 72 180" fill="none" xmlns="http://www.w3.org/2000/svg">
<path d="M3.60005 7.2C5.58828 7.2 7.19997 5.58822 7.19997 3.6C7.19997 1.61177 5.58828 0 3.60005 0C1.61183 0 0 1.61177 0 3.6C0 5.58822 1.61183 7.2 3.60005 7.2Z" fill="#1268FB"/>
<path d="M3.60005 28.7996C5.58828 28.7996 7.19997 27.1878 7.19997 25.1996C7.19997 23.2114 5.58828 21.5996 3.60005 21.5996C1.61183 21.5996 0 23.2114 0 25.1996C0 27.1878 1.61183 28.7996 3.60005 28.7996Z" fill="#1268FB"/>
<path d="M3.60005 50.3992C5.58828 50.3992 7.19997 48.7874 7.19997 46.7992C7.19997 44.811 5.58828 43.1992 3.60005 43.1992C1.61183 43.1992 0 44.811 0 46.7992C0 48.7874 1.61183 50.3992 3.60005 50.3992Z" fill="#1268FB"/>
<path d="M3.60005 72.0008C5.58828 72.0008 7.19998 70.389 7.19998 68.4008C7.19998 66.4126 5.58828 64.8008 3.60005 64.8008C1.61183 64.8008 0 66.4126 0 68.4008C0 70.389 1.61183 72.0008 3.60005 72.0008Z" fill="#1268FB"/>
<path d="M3.60005 93.6004C5.58828 93.6004 7.19997 91.9886 7.19997 90.0004C7.19997 88.0122 5.58828 86.4004 3.60005 86.4004C1.61183 86.4004 0 88.0122 0 90.0004C0 91.9886 1.61183 93.6004 3.60005 93.6004Z" fill="#1268FB"/>
<path d="M3.6003 115.2C5.58852 115.2 7.20022 113.588 7.20022 111.6C7.20022 109.612 5.58852 108 3.6003 108C1.61207 108 0.000244141 109.612 0.000244141 111.6C0.000244141 113.588 1.61207 115.2 3.6003 115.2Z" fill="#1268FB"/>
<path d="M3.60005 136.8C5.58828 136.8 7.19998 135.188 7.19998 133.2C7.19998 131.211 5.58828 129.6 3.60005 129.6C1.61183 129.6 0 131.211 0 133.2C0 135.188 1.61183 136.8 3.60005 136.8Z" fill="#1268FB"/>
<path d="M3.60005 158.399C5.58828 158.399 7.19998 156.787 7.19998 154.799C7.19998 152.811 5.58828 151.199 3.60005 151.199C1.61183 151.199 0 152.811 0 154.799C0 156.787 1.61183 158.399 3.60005 158.399Z" fill="#1268FB"/>
<path d="M3.60005 180.001C5.58828 180.001 7.19998 178.389 7.19998 176.401C7.19998 174.413 5.58828 172.801 3.60005 172.801C1.61183 172.801 0 174.413 0 176.401C0 178.389 1.61183 180.001 3.60005 180.001Z" fill="#1268FB"/>
<path d="M25.1997 7.2C27.1879 7.2 28.7996 5.58822 28.7996 3.6C28.7996 1.61177 27.1879 0 25.1997 0C23.2114 0 21.5996 1.61177 21.5996 3.6C21.5996 5.58822 23.2114 7.2 25.1997 7.2Z" fill="#1268FB"/>
<path d="M25.1997 28.7996C27.1879 28.7996 28.7996 27.1878 28.7996 25.1996C28.7996 23.2114 27.1879 21.5996 25.1997 21.5996C23.2114 21.5996 21.5996 23.2114 21.5996 25.1996C21.5996 27.1878 23.2114 28.7996 25.1997 28.7996Z" fill="#1268FB"/>
<path d="M25.1997 50.3992C27.1879 50.3992 28.7996 48.7874 28.7996 46.7992C28.7996 44.811 27.1879 43.1992 25.1997 43.1992C23.2114 43.1992 21.5996 44.811 21.5996 46.7992C21.5996 48.7874 23.2114 50.3992 25.1997 50.3992Z" fill="#1268FB"/>
<path d="M25.1997 72.0008C27.1879 72.0008 28.7996 70.389 28.7996 68.4008C28.7996 66.4126 27.1879 64.8008 25.1997 64.8008C23.2114 64.8008 21.5996 66.4126 21.5996 68.4008C21.5996 70.389 23.2114 72.0008 25.1997 72.0008Z" fill="#1268FB"/>
<path d="M25.1997 93.6004C27.1879 93.6004 28.7996 91.9886 28.7996 90.0004C28.7996 88.0122 27.1879 86.4004 25.1997 86.4004C23.2114 86.4004 21.5996 88.0122 21.5996 90.0004C21.5996 91.9886 23.2114 93.6004 25.1997 93.6004Z" fill="#1268FB"/>
<path d="M25.1997 115.2C27.1879 115.2 28.7996 113.588 28.7996 111.6C28.7996 109.612 27.1879 108 25.1997 108C23.2114 108 21.5996 109.612 21.5996 111.6C21.5996 113.588 23.2114 115.2 25.1997 115.2Z" fill="#1268FB"/>
<path d="M25.1997 136.8C27.1879 136.8 28.7996 135.188 28.7996 133.2C28.7996 131.211 27.1879 129.6 25.1997 129.6C23.2114 129.6 21.5996 131.211 21.5996 133.2C21.5996 135.188 23.2114 136.8 25.1997 136.8Z" fill="#1268FB"/>
<path d="M25.1997 158.399C27.1879 158.399 28.7996 156.787 28.7996 154.799C28.7996 152.811 27.1879 151.199 25.1997 151.199C23.2114 151.199 21.5996 152.811 21.5996 154.799C21.5996 156.787 23.2114 158.399 25.1997 158.399Z" fill="#1268FB"/>
<path d="M25.1997 180.001C27.1879 180.001 28.7996 178.389 28.7996 176.401C28.7996 174.413 27.1879 172.801 25.1997 172.801C23.2114 172.801 21.5996 174.413 21.5996 176.401C21.5996 178.389 23.2114 180.001 25.1997 180.001Z" fill="#1268FB"/>
<path d="M46.8 7.2C48.7882 7.2 50.3999 5.58822 50.3999 3.6C50.3999 1.61177 48.7882 0 46.8 0C44.8118 0 43.2 1.61177 43.2 3.6C43.2 5.58822 44.8118 7.2 46.8 7.2Z" fill="#1268FB"/>
<path d="M46.8 28.7996C48.7882 28.7996 50.3999 27.1878 50.3999 25.1996C50.3999 23.2114 48.7882 21.5996 46.8 21.5996C44.8118 21.5996 43.2 23.2114 43.2 25.1996C43.2 27.1878 44.8118 28.7996 46.8 28.7996Z" fill="#1268FB"/>
<path d="M46.8 50.3992C48.7882 50.3992 50.3999 48.7874 50.3999 46.7992C50.3999 44.811 48.7882 43.1992 46.8 43.1992C44.8118 43.1992 43.2 44.811 43.2 46.7992C43.2 48.7874 44.8118 50.3992 46.8 50.3992Z" fill="#1268FB"/>
<path d="M46.8 72.0008C48.7882 72.0008 50.3999 70.389 50.3999 68.4008C50.3999 66.4126 48.7882 64.8008 46.8 64.8008C44.8118 64.8008 43.2 66.4126 43.2 68.4008C43.2 70.389 44.8118 72.0008 46.8 72.0008Z" fill="#1268FB"/>
<path d="M46.8 93.6004C48.7882 93.6004 50.3999 91.9886 50.3999 90.0004C50.3999 88.0122 48.7882 86.4004 46.8 86.4004C44.8118 86.4004 43.2 88.0122 43.2 90.0004C43.2 91.9886 44.8118 93.6004 46.8 93.6004Z" fill="#1268FB"/>
<path d="M46.8 115.2C48.7882 115.2 50.3999 113.588 50.3999 111.6C50.3999 109.612 48.7882 108 46.8 108C44.8118 108 43.2 109.612 43.2 111.6C43.2 113.588 44.8118 115.2 46.8 115.2Z" fill="#1268FB"/>
<path d="M46.8 136.8C48.7882 136.8 50.3999 135.188 50.3999 133.2C50.3999 131.211 48.7882 129.6 46.8 129.6C44.8118 129.6 43.2 131.211 43.2 133.2C43.2 135.188 44.8118 136.8 46.8 136.8Z" fill="#1268FB"/>
<path d="M46.8 158.399C48.7882 158.399 50.3999 156.787 50.3999 154.799C50.3999 152.811 48.7882 151.199 46.8 151.199C44.8118 151.199 43.2 152.811 43.2 154.799C43.2 156.787 44.8118 158.399 46.8 158.399Z" fill="#1268FB"/>
<path d="M46.8 180.001C48.7882 180.001 50.3999 178.389 50.3999 176.401C50.3999 174.413 48.7882 172.801 46.8 172.801C44.8118 172.801 43.2 174.413 43.2 176.401C43.2 178.389 44.8118 180.001 46.8 180.001Z" fill="#1268FB"/>
<path d="M68.4008 7.2C70.3891 7.2 72.0008 5.58822 72.0008 3.6C72.0008 1.61177 70.3891 0 68.4008 0C66.4126 0 64.8008 1.61177 64.8008 3.6C64.8008 5.58822 66.4126 7.2 68.4008 7.2Z" fill="#1268FB"/>
<path d="M68.4008 28.7996C70.3891 28.7996 72.0008 27.1878 72.0008 25.1996C72.0008 23.2114 70.3891 21.5996 68.4008 21.5996C66.4126 21.5996 64.8008 23.2114 64.8008 25.1996C64.8008 27.1878 66.4126 28.7996 68.4008 28.7996Z" fill="#1268FB"/>
<path d="M68.4008 50.3992C70.3891 50.3992 72.0008 48.7874 72.0008 46.7992C72.0008 44.811 70.3891 43.1992 68.4008 43.1992C66.4126 43.1992 64.8008 44.811 64.8008 46.7992C64.8008 48.7874 66.4126 50.3992 68.4008 50.3992Z" fill="#1268FB"/>
<path d="M68.4008 72.0008C70.3891 72.0008 72.0008 70.389 72.0008 68.4008C72.0008 66.4126 70.3891 64.8008 68.4008 64.8008C66.4126 64.8008 64.8008 66.4126 64.8008 68.4008C64.8008 70.389 66.4126 72.0008 68.4008 72.0008Z" fill="#1268FB"/>
<path d="M68.4008 93.6004C70.3891 93.6004 72.0008 91.9886 72.0008 90.0004C72.0008 88.0122 70.3891 86.4004 68.4008 86.4004C66.4126 86.4004 64.8008 88.0122 64.8008 90.0004C64.8008 91.9886 66.4126 93.6004 68.4008 93.6004Z" fill="#1268FB"/>
<path d="M68.4008 115.2C70.3891 115.2 72.0008 113.588 72.0008 111.6C72.0008 109.612 70.3891 108 68.4008 108C66.4126 108 64.8008 109.612 64.8008 111.6C64.8008 113.588 66.4126 115.2 68.4008 115.2Z" fill="#1268FB"/>
<path d="M68.4008 136.8C70.3891 136.8 72.0008 135.188 72.0008 133.2C72.0008 131.211 70.3891 129.6 68.4008 129.6C66.4126 129.6 64.8008 131.211 64.8008 133.2C64.8008 135.188 66.4126 136.8 68.4008 136.8Z" fill="#1268FB"/>
<path d="M68.4008 158.399C70.3891 158.399 72.0008 156.787 72.0008 154.799C72.0008 152.811 70.3891 151.199 68.4008 151.199C66.4126 151.199 64.8008 152.811 64.8008 154.799C64.8008 156.787 66.4126 158.399 68.4008 158.399Z" fill="#1268FB"/>
<path d="M68.4008 180.001C70.3891 180.001 72.0008 178.389 72.0008 176.401C72.0008 174.413 70.3891 172.801 68.4008 172.801C66.4126 172.801 64.8008 174.413 64.8008 176.401C64.8008 178.389 66.4126 180.001 68.4008 180.001Z" fill="#1268FB"/>
</svg>
