<svg width="163" height="145" viewBox="0 0 163 145" fill="none" xmlns="http://www.w3.org/2000/svg">
<path d="M6.52 141.147C6.52 139.347 5.06045 137.887 3.26 137.887C1.45955 137.887 0 139.347 0 141.147C0 142.948 1.45955 144.407 3.26 144.407C5.06045 144.407 6.52 142.948 6.52 141.147Z" fill="#1268FB"/>
<path d="M26.0805 141.147C26.0805 139.347 24.621 137.887 22.8205 137.887C21.0201 137.887 19.5605 139.347 19.5605 141.147C19.5605 142.948 21.0201 144.407 22.8205 144.407C24.621 144.407 26.0805 142.948 26.0805 141.147Z" fill="#1268FB"/>
<path d="M45.6391 141.147C45.6391 139.347 44.1796 137.887 42.3791 137.887C40.5787 137.887 39.1191 139.347 39.1191 141.147C39.1191 142.948 40.5787 144.407 42.3791 144.407C44.1796 144.407 45.6391 142.948 45.6391 141.147Z" fill="#1268FB"/>
<path d="M65.1997 141.147C65.1997 139.347 63.7401 137.887 61.9397 137.887C60.1392 137.887 58.6797 139.347 58.6797 141.147C58.6797 142.948 60.1392 144.407 61.9397 144.407C63.7401 144.407 65.1997 142.948 65.1997 141.147Z" fill="#1268FB"/>
<path d="M84.7602 141.147C84.7602 139.347 83.3007 137.887 81.5002 137.887C79.6998 137.887 78.2402 139.347 78.2402 141.147C78.2402 142.948 79.6998 144.407 81.5002 144.407C83.3007 144.407 84.7602 142.948 84.7602 141.147Z" fill="#1268FB"/>
<path d="M104.321 141.147C104.321 139.347 102.861 137.887 101.061 137.887C99.2603 137.887 97.8008 139.347 97.8008 141.147C97.8008 142.948 99.2603 144.407 101.061 144.407C102.861 144.407 104.321 142.948 104.321 141.147Z" fill="#1268FB"/>
<path d="M123.879 141.147C123.879 139.347 122.42 137.887 120.619 137.887C118.819 137.887 117.359 139.347 117.359 141.147C117.359 142.948 118.819 144.407 120.619 144.407C122.42 144.407 123.879 142.948 123.879 141.147Z" fill="#1268FB"/>
<path d="M143.44 141.147C143.44 139.347 141.98 137.887 140.18 137.887C138.379 137.887 136.92 139.347 136.92 141.147C136.92 142.948 138.379 144.407 140.18 144.407C141.98 144.407 143.44 142.948 143.44 141.147Z" fill="#1268FB"/>
<path d="M163 141.147C163 139.347 161.541 137.887 159.74 137.887C157.94 137.887 156.48 139.347 156.48 141.147C156.48 142.948 157.94 144.407 159.74 144.407C161.541 144.407 163 142.948 163 141.147Z" fill="#1268FB"/>
<path d="M6.52 121.587C6.52 119.786 5.06045 118.327 3.26 118.327C1.45955 118.327 0 119.786 0 121.587C0 123.387 1.45955 124.847 3.26 124.847C5.06045 124.847 6.52 123.387 6.52 121.587Z" fill="#1268FB"/>
<path d="M26.0805 121.587C26.0805 119.786 24.621 118.327 22.8205 118.327C21.0201 118.327 19.5605 119.786 19.5605 121.587C19.5605 123.387 21.0201 124.847 22.8205 124.847C24.621 124.847 26.0805 123.387 26.0805 121.587Z" fill="#1268FB"/>
<path d="M45.6391 121.587C45.6391 119.786 44.1796 118.327 42.3791 118.327C40.5787 118.327 39.1191 119.786 39.1191 121.587C39.1191 123.387 40.5787 124.847 42.3791 124.847C44.1796 124.847 45.6391 123.387 45.6391 121.587Z" fill="#1268FB"/>
<path d="M65.1997 121.587C65.1997 119.786 63.7401 118.327 61.9397 118.327C60.1392 118.327 58.6797 119.786 58.6797 121.587C58.6797 123.387 60.1392 124.847 61.9397 124.847C63.7401 124.847 65.1997 123.387 65.1997 121.587Z" fill="#1268FB"/>
<path d="M84.7602 121.587C84.7602 119.786 83.3007 118.327 81.5002 118.327C79.6998 118.327 78.2402 119.786 78.2402 121.587C78.2402 123.387 79.6998 124.847 81.5002 124.847C83.3007 124.847 84.7602 123.387 84.7602 121.587Z" fill="#1268FB"/>
<path d="M104.321 121.587C104.321 119.786 102.861 118.327 101.061 118.327C99.2603 118.327 97.8008 119.786 97.8008 121.587C97.8008 123.387 99.2603 124.847 101.061 124.847C102.861 124.847 104.321 123.387 104.321 121.587Z" fill="#1268FB"/>
<path d="M123.879 121.587C123.879 119.786 122.42 118.327 120.619 118.327C118.819 118.327 117.359 119.786 117.359 121.587C117.359 123.387 118.819 124.847 120.619 124.847C122.42 124.847 123.879 123.387 123.879 121.587Z" fill="#1268FB"/>
<path d="M143.44 121.587C143.44 119.786 141.98 118.327 140.18 118.327C138.379 118.327 136.92 119.786 136.92 121.587C136.92 123.387 138.379 124.847 140.18 124.847C141.98 124.847 143.44 123.387 143.44 121.587Z" fill="#1268FB"/>
<path d="M163 121.587C163 119.786 161.541 118.327 159.74 118.327C157.94 118.327 156.48 119.786 156.48 121.587C156.48 123.387 157.94 124.847 159.74 124.847C161.541 124.847 163 123.387 163 121.587Z" fill="#1268FB"/>
<path d="M6.52 102.026C6.52 100.226 5.06045 98.7662 3.26 98.7662C1.45955 98.7662 0 100.226 0 102.026C0 103.827 1.45955 105.286 3.26 105.286C5.06045 105.286 6.52 103.827 6.52 102.026Z" fill="#1268FB"/>
<path d="M26.0805 102.026C26.0805 100.226 24.621 98.7662 22.8205 98.7662C21.0201 98.7662 19.5605 100.226 19.5605 102.026C19.5605 103.827 21.0201 105.286 22.8205 105.286C24.621 105.286 26.0805 103.827 26.0805 102.026Z" fill="#1268FB"/>
<path d="M45.6391 102.026C45.6391 100.226 44.1796 98.7662 42.3791 98.7662C40.5787 98.7662 39.1191 100.226 39.1191 102.026C39.1191 103.827 40.5787 105.286 42.3791 105.286C44.1796 105.286 45.6391 103.827 45.6391 102.026Z" fill="#1268FB"/>
<path d="M65.1997 102.026C65.1997 100.226 63.7401 98.7662 61.9397 98.7662C60.1392 98.7662 58.6797 100.226 58.6797 102.026C58.6797 103.827 60.1392 105.286 61.9397 105.286C63.7401 105.286 65.1997 103.827 65.1997 102.026Z" fill="#1268FB"/>
<path d="M84.7602 102.026C84.7602 100.226 83.3007 98.7662 81.5002 98.7662C79.6998 98.7662 78.2402 100.226 78.2402 102.026C78.2402 103.827 79.6998 105.286 81.5002 105.286C83.3007 105.286 84.7602 103.827 84.7602 102.026Z" fill="#1268FB"/>
<path d="M104.321 102.026C104.321 100.226 102.861 98.7662 101.061 98.7662C99.2603 98.7662 97.8008 100.226 97.8008 102.026C97.8008 103.827 99.2603 105.286 101.061 105.286C102.861 105.286 104.321 103.827 104.321 102.026Z" fill="#1268FB"/>
<path d="M123.879 102.026C123.879 100.226 122.42 98.7662 120.619 98.7662C118.819 98.7662 117.359 100.226 117.359 102.026C117.359 103.827 118.819 105.286 120.619 105.286C122.42 105.286 123.879 103.827 123.879 102.026Z" fill="#1268FB"/>
<path d="M143.44 102.026C143.44 100.226 141.98 98.7662 140.18 98.7662C138.379 98.7662 136.92 100.226 136.92 102.026C136.92 103.827 138.379 105.286 140.18 105.286C141.98 105.286 143.44 103.827 143.44 102.026Z" fill="#1268FB"/>
<path d="M163 102.026C163 100.226 161.541 98.7662 159.74 98.7662C157.94 98.7662 156.48 100.226 156.48 102.026C156.48 103.827 157.94 105.286 159.74 105.286C161.541 105.286 163 103.827 163 102.026Z" fill="#1268FB"/>
<path d="M6.52 82.4675C6.52 80.667 5.06045 79.2076 3.26 79.2076C1.45955 79.2076 0 80.667 0 82.4675C0 84.2679 1.45955 85.7275 3.26 85.7275C5.06045 85.7275 6.52 84.2679 6.52 82.4675Z" fill="#1268FB"/>
<path d="M26.0805 82.4675C26.0805 80.667 24.621 79.2076 22.8205 79.2076C21.0201 79.2076 19.5605 80.667 19.5605 82.4675C19.5605 84.2679 21.0201 85.7275 22.8205 85.7275C24.621 85.7275 26.0805 84.2679 26.0805 82.4675Z" fill="#1268FB"/>
<path d="M45.6391 82.4675C45.6391 80.667 44.1796 79.2076 42.3791 79.2076C40.5787 79.2076 39.1191 80.667 39.1191 82.4675C39.1191 84.2679 40.5787 85.7275 42.3791 85.7275C44.1796 85.7275 45.6391 84.2679 45.6391 82.4675Z" fill="#1268FB"/>
<path d="M65.1997 82.4675C65.1997 80.667 63.7401 79.2076 61.9397 79.2076C60.1392 79.2076 58.6797 80.667 58.6797 82.4675C58.6797 84.2679 60.1392 85.7275 61.9397 85.7275C63.7401 85.7275 65.1997 84.2679 65.1997 82.4675Z" fill="#1268FB"/>
<path d="M84.7602 82.4675C84.7602 80.667 83.3007 79.2076 81.5002 79.2076C79.6998 79.2076 78.2402 80.667 78.2402 82.4675C78.2402 84.2679 79.6998 85.7275 81.5002 85.7275C83.3007 85.7275 84.7602 84.2679 84.7602 82.4675Z" fill="#1268FB"/>
<path d="M104.321 82.4675C104.321 80.667 102.861 79.2076 101.061 79.2076C99.2603 79.2076 97.8008 80.667 97.8008 82.4675C97.8008 84.2679 99.2603 85.7275 101.061 85.7275C102.861 85.7275 104.321 84.2679 104.321 82.4675Z" fill="#1268FB"/>
<path d="M123.879 82.4675C123.879 80.667 122.42 79.2076 120.619 79.2076C118.819 79.2076 117.359 80.667 117.359 82.4675C117.359 84.2679 118.819 85.7275 120.619 85.7275C122.42 85.7275 123.879 84.2679 123.879 82.4675Z" fill="#1268FB"/>
<path d="M143.44 82.4675C143.44 80.667 141.98 79.2076 140.18 79.2076C138.379 79.2076 136.92 80.667 136.92 82.4675C136.92 84.2679 138.379 85.7275 140.18 85.7275C141.98 85.7275 143.44 84.2679 143.44 82.4675Z" fill="#1268FB"/>
<path d="M163 82.4675C163 80.667 161.541 79.2076 159.74 79.2076C157.94 79.2076 156.48 80.667 156.48 82.4675C156.48 84.2679 157.94 85.7275 159.74 85.7275C161.541 85.7275 163 84.2679 163 82.4675Z" fill="#1268FB"/>
<path d="M6.52 62.9069C6.52 61.1065 5.06045 59.647 3.26 59.647C1.45955 59.647 0 61.1065 0 62.9069C0 64.7074 1.45955 66.167 3.26 66.167C5.06045 66.167 6.52 64.7074 6.52 62.9069Z" fill="#1268FB"/>
<path d="M26.0805 62.9069C26.0805 61.1065 24.621 59.647 22.8205 59.647C21.0201 59.647 19.5605 61.1065 19.5605 62.9069C19.5605 64.7074 21.0201 66.167 22.8205 66.167C24.621 66.167 26.0805 64.7074 26.0805 62.9069Z" fill="#1268FB"/>
<path d="M45.6391 62.9069C45.6391 61.1065 44.1796 59.647 42.3791 59.647C40.5787 59.647 39.1191 61.1065 39.1191 62.9069C39.1191 64.7074 40.5787 66.167 42.3791 66.167C44.1796 66.167 45.6391 64.7074 45.6391 62.9069Z" fill="#1268FB"/>
<path d="M65.1997 62.9069C65.1997 61.1065 63.7401 59.647 61.9397 59.647C60.1392 59.647 58.6797 61.1065 58.6797 62.9069C58.6797 64.7074 60.1392 66.167 61.9397 66.167C63.7401 66.167 65.1997 64.7074 65.1997 62.9069Z" fill="#1268FB"/>
<path d="M84.7602 62.9069C84.7602 61.1065 83.3007 59.647 81.5002 59.647C79.6998 59.647 78.2402 61.1065 78.2402 62.9069C78.2402 64.7074 79.6998 66.167 81.5002 66.167C83.3007 66.167 84.7602 64.7074 84.7602 62.9069Z" fill="#1268FB"/>
<path d="M104.321 62.9069C104.321 61.1065 102.861 59.647 101.061 59.647C99.2603 59.647 97.8008 61.1065 97.8008 62.9069C97.8008 64.7074 99.2603 66.167 101.061 66.167C102.861 66.167 104.321 64.7074 104.321 62.9069Z" fill="#1268FB"/>
<path d="M123.879 62.9069C123.879 61.1065 122.42 59.647 120.619 59.647C118.819 59.647 117.359 61.1065 117.359 62.9069C117.359 64.7074 118.819 66.167 120.619 66.167C122.42 66.167 123.879 64.7074 123.879 62.9069Z" fill="#1268FB"/>
<path d="M143.44 62.9069C143.44 61.1065 141.98 59.647 140.18 59.647C138.379 59.647 136.92 61.1065 136.92 62.9069C136.92 64.7074 138.379 66.167 140.18 66.167C141.98 66.167 143.44 64.7074 143.44 62.9069Z" fill="#1268FB"/>
<path d="M163 62.9069C163 61.1065 161.541 59.647 159.74 59.647C157.94 59.647 156.48 61.1065 156.48 62.9069C156.48 64.7074 157.94 66.167 159.74 66.167C161.541 66.167 163 64.7074 163 62.9069Z" fill="#1268FB"/>
<path d="M6.52 43.3464C6.52 41.5459 5.06045 40.0865 3.26 40.0865C1.45955 40.0865 0 41.5459 0 43.3464C0 45.1468 1.45955 46.6064 3.26 46.6064C5.06045 46.6064 6.52 45.1468 6.52 43.3464Z" fill="#1268FB"/>
<path d="M26.0805 43.3464C26.0805 41.5459 24.621 40.0865 22.8205 40.0865C21.0201 40.0865 19.5605 41.5459 19.5605 43.3464C19.5605 45.1468 21.0201 46.6064 22.8205 46.6064C24.621 46.6064 26.0805 45.1468 26.0805 43.3464Z" fill="#1268FB"/>
<path d="M45.6391 43.3464C45.6391 41.546 44.1796 40.0865 42.3791 40.0865C40.5787 40.0865 39.1191 41.546 39.1191 43.3464C39.1191 45.1468 40.5787 46.6064 42.3791 46.6064C44.1796 46.6064 45.6391 45.1468 45.6391 43.3464Z" fill="#1268FB"/>
<path d="M65.1997 43.3464C65.1997 41.5459 63.7401 40.0865 61.9397 40.0865C60.1392 40.0865 58.6797 41.5459 58.6797 43.3464C58.6797 45.1468 60.1392 46.6064 61.9397 46.6064C63.7401 46.6064 65.1997 45.1468 65.1997 43.3464Z" fill="#1268FB"/>
<path d="M84.7602 43.3464C84.7602 41.546 83.3007 40.0865 81.5002 40.0865C79.6998 40.0865 78.2402 41.546 78.2402 43.3464C78.2402 45.1468 79.6998 46.6064 81.5002 46.6064C83.3007 46.6064 84.7602 45.1468 84.7602 43.3464Z" fill="#1268FB"/>
<path d="M104.321 43.3464C104.321 41.5459 102.861 40.0865 101.061 40.0865C99.2603 40.0865 97.8008 41.5459 97.8008 43.3464C97.8008 45.1468 99.2603 46.6064 101.061 46.6064C102.861 46.6064 104.321 45.1468 104.321 43.3464Z" fill="#1268FB"/>
<path d="M123.879 43.3464C123.879 41.5459 122.42 40.0865 120.619 40.0865C118.819 40.0865 117.359 41.5459 117.359 43.3464C117.359 45.1468 118.819 46.6064 120.619 46.6064C122.42 46.6064 123.879 45.1468 123.879 43.3464Z" fill="#1268FB"/>
<path d="M143.44 43.3464C143.44 41.5459 141.98 40.0865 140.18 40.0865C138.379 40.0865 136.92 41.5459 136.92 43.3464C136.92 45.1468 138.379 46.6064 140.18 46.6064C141.98 46.6064 143.44 45.1468 143.44 43.3464Z" fill="#1268FB"/>
<path d="M163 43.3464C163 41.5459 161.541 40.0865 159.74 40.0865C157.94 40.0865 156.48 41.5459 156.48 43.3464C156.48 45.1468 157.94 46.6064 159.74 46.6064C161.541 46.6064 163 45.1468 163 43.3464Z" fill="#1268FB"/>
<path d="M6.52 23.7858C6.52 21.9854 5.06045 20.5259 3.26 20.5259C1.45955 20.5259 0 21.9854 0 23.7858C0 25.5863 1.45955 27.0459 3.26 27.0459C5.06045 27.0459 6.52 25.5863 6.52 23.7858Z" fill="#1268FB"/>
<path d="M26.0805 23.7858C26.0805 21.9854 24.621 20.5259 22.8205 20.5259C21.0201 20.5259 19.5605 21.9854 19.5605 23.7858C19.5605 25.5863 21.0201 27.0459 22.8205 27.0459C24.621 27.0459 26.0805 25.5863 26.0805 23.7858Z" fill="#1268FB"/>
<path d="M45.6391 23.7859C45.6391 21.9854 44.1796 20.5259 42.3791 20.5259C40.5787 20.5259 39.1191 21.9854 39.1191 23.7859C39.1191 25.5863 40.5787 27.0459 42.3791 27.0459C44.1796 27.0459 45.6391 25.5863 45.6391 23.7859Z" fill="#1268FB"/>
<path d="M65.1997 23.7858C65.1997 21.9854 63.7401 20.5259 61.9397 20.5259C60.1392 20.5259 58.6797 21.9854 58.6797 23.7858C58.6797 25.5863 60.1392 27.0459 61.9397 27.0459C63.7401 27.0459 65.1997 25.5863 65.1997 23.7858Z" fill="#1268FB"/>
<path d="M84.7602 23.7859C84.7602 21.9854 83.3007 20.5259 81.5002 20.5259C79.6998 20.5259 78.2402 21.9854 78.2402 23.7859C78.2402 25.5863 79.6998 27.0459 81.5002 27.0459C83.3007 27.0459 84.7602 25.5863 84.7602 23.7859Z" fill="#1268FB"/>
<path d="M104.321 23.7858C104.321 21.9854 102.861 20.5259 101.061 20.5259C99.2603 20.5259 97.8008 21.9854 97.8008 23.7858C97.8008 25.5863 99.2603 27.0459 101.061 27.0459C102.861 27.0459 104.321 25.5863 104.321 23.7858Z" fill="#1268FB"/>
<path d="M123.879 23.7858C123.879 21.9854 122.42 20.5259 120.619 20.5259C118.819 20.5259 117.359 21.9854 117.359 23.7858C117.359 25.5863 118.819 27.0459 120.619 27.0459C122.42 27.0459 123.879 25.5863 123.879 23.7858Z" fill="#1268FB"/>
<path d="M143.44 23.7858C143.44 21.9854 141.98 20.5259 140.18 20.5259C138.379 20.5259 136.92 21.9854 136.92 23.7858C136.92 25.5863 138.379 27.0459 140.18 27.0459C141.98 27.0459 143.44 25.5863 143.44 23.7858Z" fill="#1268FB"/>
<path d="M163 23.7858C163 21.9854 161.541 20.5259 159.74 20.5259C157.94 20.5259 156.48 21.9854 156.48 23.7858C156.48 25.5863 157.94 27.0459 159.74 27.0459C161.541 27.0459 163 25.5863 163 23.7858Z" fill="#1268FB"/>
<path d="M6.52 4.22726C6.52 2.42681 5.06045 0.967328 3.26 0.967328C1.45955 0.967328 0 2.42681 0 4.22726C0 6.0277 1.45955 7.4873 3.26 7.4873C5.06045 7.4873 6.52 6.0277 6.52 4.22726Z" fill="#1268FB"/>
<path d="M26.0805 4.22726C26.0805 2.42681 24.621 0.967328 22.8205 0.967328C21.0201 0.967328 19.5605 2.42681 19.5605 4.22726C19.5605 6.0277 21.0201 7.4873 22.8205 7.4873C24.621 7.4873 26.0805 6.0277 26.0805 4.22726Z" fill="#1268FB"/>
<path d="M45.6391 4.22726C45.6391 2.42681 44.1796 0.967331 42.3791 0.967331C40.5787 0.967331 39.1191 2.42681 39.1191 4.22726C39.1191 6.02771 40.5787 7.4873 42.3791 7.4873C44.1796 7.4873 45.6391 6.02771 45.6391 4.22726Z" fill="#1268FB"/>
<path d="M65.1997 4.22726C65.1997 2.42681 63.7401 0.967327 61.9397 0.967327C60.1392 0.967327 58.6797 2.42681 58.6797 4.22726C58.6797 6.0277 60.1392 7.4873 61.9397 7.4873C63.7401 7.4873 65.1997 6.0277 65.1997 4.22726Z" fill="#1268FB"/>
<path d="M84.7602 4.22726C84.7602 2.42681 83.3007 0.967331 81.5002 0.967331C79.6998 0.967331 78.2402 2.42681 78.2402 4.22726C78.2402 6.02771 79.6998 7.4873 81.5002 7.4873C83.3007 7.4873 84.7602 6.02771 84.7602 4.22726Z" fill="#1268FB"/>
<path d="M104.321 4.22726C104.321 2.42681 102.861 0.967327 101.061 0.967327C99.2603 0.967327 97.8008 2.42681 97.8008 4.22726C97.8008 6.0277 99.2603 7.4873 101.061 7.4873C102.861 7.4873 104.321 6.0277 104.321 4.22726Z" fill="#1268FB"/>
<path d="M123.879 4.22726C123.879 2.42681 122.42 0.967327 120.619 0.967327C118.819 0.967327 117.359 2.42681 117.359 4.22726C117.359 6.0277 118.819 7.4873 120.619 7.4873C122.42 7.4873 123.879 6.0277 123.879 4.22726Z" fill="#1268FB"/>
<path d="M143.44 4.22726C143.44 2.42681 141.98 0.967327 140.18 0.967327C138.379 0.967327 136.92 2.42681 136.92 4.22726C136.92 6.0277 138.379 7.4873 140.18 7.4873C141.98 7.4873 143.44 6.0277 143.44 4.22726Z" fill="#1268FB"/>
<path d="M163 4.22726C163 2.42681 161.541 0.967327 159.74 0.967327C157.94 0.967327 156.48 2.42681 156.48 4.22726C156.48 6.0277 157.94 7.4873 159.74 7.4873C161.541 7.4873 163 6.0277 163 4.22726Z" fill="#1268FB"/>
</svg>
