<svg width="35" height="35" viewBox="0 0 35 35" fill="none" xmlns="http://www.w3.org/2000/svg">
<path d="M23.6787 17.4269C24.0673 17.4269 24.4223 17.2074 24.5961 16.8599L25.6258 14.8006C25.8791 14.294 25.6737 13.6779 25.1671 13.4246C24.6605 13.1713 24.0445 13.3767 23.7911 13.8832L23.0449 15.3756H21.6138C21.5968 14.2773 21.148 13.2821 20.4292 12.5531L21.4696 10.8191C21.761 10.3334 21.6035 9.70342 21.1178 9.41194C20.6321 9.12052 20.0021 9.27799 19.7106 9.76372L18.6713 11.4959C18.3001 11.3856 17.9075 11.3254 17.5009 11.3254C17.0944 11.3254 16.7018 11.3856 16.3306 11.4959L15.2913 9.76372C14.9999 9.27799 14.3697 9.12052 13.8841 9.41194C13.3984 9.70335 13.2409 10.3334 13.5323 10.8191L14.5727 12.5531C13.8539 13.2822 13.4051 14.2773 13.3881 15.3756H11.957L11.2108 13.8832C10.9574 13.3766 10.3415 13.1713 9.83475 13.4246C9.32809 13.6779 9.12276 14.294 9.37609 14.8006L10.4057 16.8599C10.5795 17.2074 10.9346 17.4269 11.3231 17.4269H13.3865V19.5626H11.3231C10.9346 19.5626 10.5796 19.7821 10.4057 20.1296L9.37609 22.1889C9.12276 22.6955 9.32816 23.3116 9.83475 23.5649C10.3305 23.8159 10.9565 23.6179 11.2108 23.1063L11.957 21.6139H13.5158C13.9727 23.3881 15.5862 24.7028 17.5009 24.7028C19.4157 24.7028 21.0292 23.388 21.486 21.6139H23.0449L23.7911 23.1063C24.0454 23.618 24.6713 23.8159 25.1671 23.5649C25.6738 23.3116 25.8791 22.6955 25.6258 22.1889L24.5961 20.1296C24.4224 19.7821 24.0673 19.5626 23.6787 19.5626H21.6154V17.4269H23.6787ZM19.5625 15.3757H15.4392C15.4734 14.2676 16.3847 13.3767 17.5008 13.3767C18.6169 13.3767 19.5283 14.2677 19.5625 15.3757ZM17.5009 22.6516C16.3632 22.6516 15.4376 21.726 15.4376 20.5883V17.427H19.5642V20.5883C19.5642 21.726 18.6386 22.6516 17.5009 22.6516Z" fill="white"/>
<path d="M33.9743 16.4743H32.9064C32.6628 12.736 31.0915 9.25502 28.4182 6.5817C25.745 3.90844 22.2639 2.33712 18.5256 2.09357V1.02562C18.5256 0.459206 18.0664 0 17.5 0C16.9336 0 16.4744 0.459206 16.4744 1.02562V2.09364C12.736 2.33719 9.25502 3.90851 6.58176 6.58176C3.90851 9.25502 2.33719 12.736 2.09364 16.4744H1.02562C0.459206 16.4744 0 16.9336 0 17.5C0 18.0664 0.459206 18.5256 1.02562 18.5256H2.09364C2.33719 22.2639 3.90851 25.7449 6.58176 28.4182C9.25502 31.0915 12.736 32.6628 16.4744 32.9064V33.9744C16.4744 34.5408 16.9336 35 17.5 35C18.0664 35 18.5256 34.5408 18.5256 33.9744V32.9064C22.2639 32.6628 25.7449 31.0915 28.4182 28.4182C31.0915 25.745 32.6628 22.2639 32.9064 18.5256H33.9743C34.5407 18.5256 34.9999 18.0664 34.9999 17.5C34.9999 16.9336 34.5407 16.4743 33.9743 16.4743ZM18.5256 30.8505V29.8557C18.5256 29.2893 18.0664 28.8301 17.5 28.8301C16.9336 28.8301 16.4744 29.2893 16.4744 29.8557V30.8505C9.90731 30.3507 4.64929 25.0927 4.14947 18.5256H5.14425C5.71067 18.5256 6.16987 18.0664 6.16987 17.5C6.16987 16.9336 5.71067 16.4744 5.14425 16.4744H4.14947C4.64922 9.90731 9.90724 4.64929 16.4744 4.14953V5.14425C16.4744 5.71067 16.9336 6.16987 17.5 6.16987C18.0664 6.16987 18.5256 5.71067 18.5256 5.14425V4.14947C25.0927 4.64922 30.3507 9.90724 30.8505 16.4743H29.8558C29.2894 16.4743 28.8302 16.9335 28.8302 17.4999C28.8302 18.0663 29.2894 18.5256 29.8558 18.5256H30.8505C30.3507 25.0926 25.0927 30.3506 18.5256 30.8505Z" fill="white"/>
</svg>
