<svg width="31" height="29" viewBox="0 0 31 29" fill="none" xmlns="http://www.w3.org/2000/svg">
<path d="M15.3647 28C3.713 19.8715 5.07638 7.99911 5.07638 7.99911C13.2877 5.48722 15.3647 2.72947 15.3647 2.72947C15.3647 2.72947 17.4418 5.48722 25.6531 7.99911C25.6531 7.99911 27.0165 19.8715 15.3647 28Z" stroke="white" stroke-width="1.78812" stroke-miterlimit="10" stroke-linecap="round" stroke-linejoin="round"/>
<path d="M18.6539 13.0376H12.0735C11.6672 13.0376 11.3379 13.3669 11.3379 13.7732V18.8933C11.3379 19.2996 11.6672 19.6289 12.0735 19.6289H18.6539C19.0602 19.6289 19.3895 19.2996 19.3895 18.8933V13.7732C19.3895 13.3669 19.0602 13.0376 18.6539 13.0376Z" stroke="white" stroke-width="1.78812" stroke-miterlimit="10" stroke-linecap="round" stroke-linejoin="round"/>
<path d="M18.2967 13.0352V11.6507C18.2967 10.0306 16.9833 8.71721 15.3632 8.71721C13.7431 8.71721 12.4297 10.0306 12.4297 11.6507V13.0352" stroke="white" stroke-width="1.78812" stroke-miterlimit="10" stroke-linecap="round" stroke-linejoin="round"/>
<path d="M15.3633 16.0156V16.6465" stroke="white" stroke-width="1.78812" stroke-miterlimit="10" stroke-linecap="round" stroke-linejoin="round"/>
<path d="M4.57624 2.78805C4.57624 3.77557 3.77564 4.57617 2.78812 4.57617C1.8006 4.57617 1 3.77557 1 2.78805C1 1.80053 1.8006 0.999934 2.78812 0.999934C3.77564 0.999934 4.57624 1.80053 4.57624 2.78805Z" stroke="white" stroke-width="1.78812" stroke-miterlimit="10" stroke-linecap="round" stroke-linejoin="round"/>
<path d="M4.57624 24.1533C4.57624 25.1408 3.77564 25.9414 2.78812 25.9414C1.8006 25.9414 1 25.1408 1 24.1533C1 23.1658 1.8006 22.3652 2.78812 22.3652C3.77564 22.3652 4.57624 23.1658 4.57624 24.1533Z" stroke="white" stroke-width="1.78812" stroke-miterlimit="10" stroke-linecap="round" stroke-linejoin="round"/>
<path d="M4.57617 24.1543H10.9618" stroke="white" stroke-width="1.78812" stroke-miterlimit="10" stroke-linecap="round" stroke-linejoin="round"/>
<path d="M26.1543 24.1533C26.1543 25.1408 26.9549 25.9414 27.9424 25.9414C28.9299 25.9414 29.7305 25.1408 29.7305 24.1533C29.7305 23.1658 28.9299 22.3652 27.9424 22.3652C26.9549 22.3652 26.1543 23.1658 26.1543 24.1533Z" stroke="white" stroke-width="1.78812" stroke-miterlimit="10" stroke-linecap="round" stroke-linejoin="round"/>
<path d="M26.1532 24.1543H19.7676" stroke="white" stroke-width="1.78812" stroke-miterlimit="10" stroke-linecap="round" stroke-linejoin="round"/>
<path d="M4.57617 2.78832H9.28089V6.49414" stroke="white" stroke-width="1.78812" stroke-miterlimit="10" stroke-linecap="round" stroke-linejoin="round"/>
<path d="M26.1543 2.78805C26.1543 3.77557 26.9549 4.57617 27.9424 4.57617C28.9299 4.57617 29.7305 3.77557 29.7305 2.78805C29.7305 1.80053 28.9299 0.999934 27.9424 0.999934C26.9549 0.999934 26.1543 1.80053 26.1543 2.78805Z" stroke="white" stroke-width="1.78812" stroke-miterlimit="10" stroke-linecap="round" stroke-linejoin="round"/>
<path d="M26.152 2.79028H21.4473V6.49609" stroke="white" stroke-width="1.78812" stroke-miterlimit="10" stroke-linecap="round" stroke-linejoin="round"/>
<path d="M25.25 13.418H29.7286" stroke="white" stroke-width="1.78812" stroke-miterlimit="10" stroke-linecap="round" stroke-linejoin="round"/>
<path d="M5.47864 13.418H1" stroke="white" stroke-width="1.78812" stroke-miterlimit="10" stroke-linecap="round" stroke-linejoin="round"/>
<path d="M6.79487 17.6543H3.0332" stroke="white" stroke-width="1.78812" stroke-miterlimit="10" stroke-linecap="round" stroke-linejoin="round"/>
<path d="M23.9336 17.6543H27.6953" stroke="white" stroke-width="1.78812" stroke-miterlimit="10" stroke-linecap="round" stroke-linejoin="round"/>
</svg>
