<svg width="50" height="50" viewBox="0 0 50 50" fill="none" xmlns="http://www.w3.org/2000/svg">
<rect width="50" height="50" rx="3" fill="#1268FB"/>
<path d="M20.4641 25.2857L23.6784 28.5L30.107 22.0714M39.1358 15.6177C38.8069 15.6343 38.4758 15.6428 38.1427 15.6428C33.2032 15.6428 28.6975 13.7858 25.2855 10.7319C21.8735 13.7857 17.3678 15.6426 12.4284 15.6426C12.0954 15.6426 11.7643 15.6341 11.4354 15.6175C11.0346 17.1661 10.8213 18.7903 10.8213 20.4643C10.8213 29.4506 16.9675 37.0015 25.2856 39.1424C33.6036 37.0015 39.7499 29.4506 39.7499 20.4643C39.7499 18.7904 39.5366 17.1663 39.1358 15.6177Z" stroke="white" stroke-width="2" stroke-linecap="round" stroke-linejoin="round"/>
</svg>
