<svg width="50" height="50" viewBox="0 0 50 50" fill="none" xmlns="http://www.w3.org/2000/svg">
<rect width="50" height="50" rx="3" fill="#1268FB"/>
<path d="M25.2859 15.6428V12.4285M25.2859 15.6428C23.5107 15.6428 22.0716 17.0818 22.0716 18.857C22.0716 20.6322 23.5107 22.0713 25.2859 22.0713M25.2859 15.6428C27.0611 15.6428 28.5001 17.0818 28.5001 18.857C28.5001 20.6322 27.0611 22.0713 25.2859 22.0713M15.643 34.9285C17.4182 34.9285 18.8573 33.4894 18.8573 31.7142C18.8573 29.939 17.4182 28.4999 15.643 28.4999M15.643 34.9285C13.8678 34.9285 12.4287 33.4894 12.4287 31.7142C12.4287 29.939 13.8678 28.4999 15.643 28.4999M15.643 34.9285V38.1428M15.643 28.4999V12.4285M25.2859 22.0713V38.1428M34.9287 34.9285C36.7039 34.9285 38.143 33.4894 38.143 31.7142C38.143 29.939 36.7039 28.4999 34.9287 28.4999M34.9287 34.9285C33.1535 34.9285 31.7144 33.4894 31.7144 31.7142C31.7144 29.939 33.1535 28.4999 34.9287 28.4999M34.9287 34.9285V38.1428M34.9287 28.4999V12.4285" stroke="white" stroke-width="2" stroke-linecap="round" stroke-linejoin="round"/>
</svg>
