<svg width="50" height="50" viewBox="0 0 50 50" fill="none" xmlns="http://www.w3.org/2000/svg">
<rect width="50" height="50" rx="3" fill="#1268FB"/>
<path d="M21.5304 33.3215H29.0405M25.2855 10.8215V12.4287M35.5133 15.058L34.3769 16.1944M39.7499 25.2857H38.1427M12.4284 25.2857H10.8213M16.1941 16.1944L15.0577 15.058M19.6034 30.968C16.4652 27.8298 16.4652 22.7419 19.6034 19.6037C22.7415 16.4656 27.8295 16.4656 30.9676 19.6037C34.1057 22.7419 34.1057 27.8298 30.9676 30.968L30.0883 31.8472C29.0712 32.8644 28.4998 34.2439 28.4998 35.6823V36.5358C28.4998 38.311 27.0607 39.7501 25.2855 39.7501C23.5103 39.7501 22.0712 38.311 22.0712 36.5358V35.6823C22.0712 34.2439 21.4998 32.8644 20.4826 31.8472L19.6034 30.968Z" stroke="white" stroke-width="2" stroke-linecap="round" stroke-linejoin="round"/>
</svg>
