<svg width="50" height="50" viewBox="0 0 50 50" fill="none" xmlns="http://www.w3.org/2000/svg">
<rect width="50" height="50" rx="3" fill="#1268FB"/>
<path d="M13.0902 33.838H13.0888C13.0747 33.8378 13.0604 33.8376 13.0458 33.8372C11.2501 33.7914 9.83127 32.2991 9.87603 30.5035V25.5546C9.87603 23.7145 11.2678 22.1028 13.0902 22.1028H13.4404V20.2872C13.4404 13.9844 18.5497 8.875 24.8525 8.875C31.1554 8.875 36.2647 13.9844 36.2647 20.2872V22.1032C37.2053 22.1198 37.9944 22.6475 38.5463 23.375C39.1066 24.1136 39.433 25.0706 39.433 25.9504V30.9009C39.433 31.7034 39.1545 32.3899 38.6484 32.8908C38.1549 33.3792 37.4535 33.6828 36.6053 33.7536L35.8867 34.8127L35.8832 34.8178L35.8831 34.8177C34.3931 36.7992 32.0669 37.9725 29.5917 37.9959C29.4614 38.6984 29.1254 39.3473 28.6251 39.8596L28.6251 39.8596C27.8505 40.6523 26.7943 41.107 25.6862 41.125L25.6842 41.125C23.4438 41.1252 21.6212 39.3208 21.5988 37.0805L21.5988 37.0782C21.6139 35.1675 22.9638 33.5278 24.836 33.146C26.9917 32.7063 29.0965 34.0694 29.5869 36.2014C31.4525 36.1799 33.2073 35.3098 34.3537 33.8379H33.6843H33.6786L33.6786 33.8378C33.6696 33.8373 33.6606 33.8368 33.6517 33.8361C33.6432 33.8355 33.6347 33.8347 33.6262 33.8338C33.1467 33.7825 32.7989 33.3539 32.8464 32.8748V23.1782C32.8464 22.9182 32.9218 22.655 33.0618 22.4534C33.2027 22.2506 33.4156 22.1027 33.6843 22.1027H34.4306V20.2871C34.4306 14.9973 30.1423 10.7091 24.8525 10.7091C19.5628 10.7091 15.2745 14.9973 15.2745 20.2871V22.1027H16.0208C16.2895 22.1027 16.5024 22.2506 16.6433 22.4535C16.7833 22.655 16.8587 22.9182 16.8587 23.1782V32.8748L13.0902 33.838ZM13.0902 33.838H16.0208V33.8381L16.0267 33.8378C16.5107 33.8151 16.8847 33.4042 16.862 32.9203L13.0902 33.838ZM27.2978 38.5761L27.2978 38.5761C27.6848 38.1799 27.8875 37.6393 27.8565 37.0863L27.8561 37.0793H27.9813L27.8563 37.0793V37.0793V37.0793V37.0792V37.0792V37.0792V37.0792V37.0792V37.0792V37.0791V37.0791V37.0791V37.0791V37.0791V37.0791V37.0791V37.079V37.079V37.079V37.079V37.079V37.079V37.0789V37.0789V37.0789V37.0789V37.0789V37.0789V37.0788V37.0788V37.0788V37.0788V37.0788V37.0788V37.0788V37.0787V37.0787V37.0787V37.0787V37.0787V37.0787V37.0786V37.0786V37.0786V37.0786V37.0786V37.0786V37.0786V37.0785V37.0785V37.0785V37.0785V37.0785V37.0785V37.0784V37.0784V37.0784V37.0784V37.0784V37.0784V37.0784V37.0783V37.0783V37.0783V37.0783V37.0783V37.0783V37.0782V37.0782V37.0782V37.0782V37.0782V37.0782V37.0781V37.0781V37.0781V37.0781V37.0781V37.0781V37.0781V37.078V37.078V37.078V37.078V37.078V37.078V37.0779V37.0779V37.0779V37.0779V37.0779V37.0779V37.0779V37.0778V37.0778V37.0778V37.0778V37.0778V37.0778V37.0777V37.0777V37.0777V37.0777V37.0777V37.0777V37.0776V37.0776V37.0776V37.0776V37.0776V37.0776V37.0776V37.0775V37.0775V37.0775V37.0775V37.0775V37.0774V37.0774L27.2978 38.5761ZM27.2978 38.5761L27.2953 38.5787M27.2978 38.5761L27.2953 38.5787M27.2953 38.5787C26.8802 39.0288 26.2971 39.2867 25.6849 39.291M27.2953 38.5787L25.6849 39.291M25.6849 39.291C24.4643 39.2709 23.4739 38.2972 23.433 37.0772C23.4336 35.8567 24.423 34.8672 25.6438 34.8667C26.8652 34.8662 27.8558 35.856 27.8563 37.0774L25.6849 39.291ZM11.7101 30.511L11.7102 30.511V30.505V25.5545C11.7102 24.6899 12.3086 23.9369 13.0902 23.9369H15.0245V32.0038H13.0917C12.3086 31.9839 11.6895 31.3335 11.7086 30.5502L11.5836 30.5471L11.7086 30.5505C11.7089 30.5374 11.7094 30.5242 11.7101 30.511ZM37.5989 30.9011C37.5989 31.385 37.371 31.6524 37.0897 31.8062C36.7991 31.9651 36.447 32.0038 36.2189 32.0038H34.6806V23.9369H36.2189C36.5922 23.9369 36.9353 24.2016 37.1927 24.6067C37.4481 25.0088 37.5989 25.5203 37.5989 25.9506V30.9011Z" fill="white" stroke="white" stroke-width="0.25"/>
</svg>
