<svg width="30" height="32" viewBox="0 0 30 32" fill="none" xmlns="http://www.w3.org/2000/svg">
<path d="M26.2189 13.2278H26.1397V11.2872C26.1397 5.05345 21.0864 0 14.8525 0C8.61874 0 3.56537 5.05345 3.56537 11.2872V13.2278H3.09015C1.34755 13.2278 0.00102964 14.7723 0.00102964 16.5546V21.5051C-0.0428613 23.2324 1.32193 24.6683 3.04929 24.7122C3.06294 24.7126 3.07651 24.7128 3.09015 24.713H6.02084C6.43595 24.6935 6.75668 24.3411 6.73712 23.926C6.73644 23.911 6.7353 23.8961 6.73371 23.8812V14.1782C6.73371 13.703 6.45649 13.2277 6.02084 13.2277H5.14954V11.2871C5.14954 5.92831 9.49376 1.58409 14.8525 1.58409C20.2113 1.58409 24.5556 5.92831 24.5556 11.2871V13.2277H23.6843C23.2486 13.2277 22.9714 13.7029 22.9714 14.1782V23.8812C22.9272 24.2944 23.2263 24.6653 23.6395 24.7095C23.6544 24.7111 23.6693 24.7122 23.6843 24.7129H24.5951L24.5159 24.8317C23.3275 26.4111 21.4627 27.3361 19.4862 27.3267C19.0535 25.205 16.9827 23.8358 14.861 24.2685C13.0466 24.6385 11.7384 26.2275 11.7238 28.0792C11.7455 30.251 13.5123 32.0002 15.6842 32C16.7593 31.9826 17.7841 31.5414 18.5357 30.7723C19.0427 30.253 19.375 29.5884 19.4862 28.8712C21.9614 28.8806 24.2956 27.7208 25.7832 25.7425L26.5357 24.6336C28.2387 24.5148 29.308 23.4455 29.308 21.9009V16.9504C29.3081 15.2476 28.0408 13.2278 26.2189 13.2278ZM5.14954 23.1288H3.09015C2.23735 23.108 1.56284 22.3999 1.58361 21.5471C1.58398 21.5331 1.58452 21.5191 1.5852 21.505V16.5545C1.5852 15.6436 2.21885 14.8119 3.09015 14.8119H5.14954V23.1288ZM17.3872 29.6635C16.9483 30.1394 16.3317 30.4119 15.6843 30.416C14.3958 30.3955 13.3501 29.3673 13.308 28.0793C13.3075 26.7888 14.3532 25.7422 15.6437 25.7417C16.9342 25.7412 17.9808 26.7869 17.9813 28.0774C17.9813 28.078 17.9813 28.0787 17.9813 28.0793C18.0143 28.6673 17.7987 29.2421 17.3872 29.6635ZM27.7239 21.9011C27.7239 22.9704 26.6942 23.1288 26.2189 23.1288H24.5556V14.8119H26.2189C27.0902 14.8119 27.7239 16.0397 27.7239 16.9506V21.9011Z" fill="white"/>
</svg>
