<svg width="46" height="38" viewBox="0 0 46 38" fill="none" xmlns="http://www.w3.org/2000/svg">
<path d="M33.4167 35.6667H43.8334V31.5C43.8334 28.0483 41.0351 25.25 37.5834 25.25C35.5925 25.25 33.8191 26.1809 32.6745 27.6311M33.4167 35.6667H12.5834M33.4167 35.6667V31.5C33.4167 30.1329 33.1533 28.8272 32.6745 27.6311M12.5834 35.6667H2.16669V31.5C2.16669 28.0483 4.96491 25.25 8.41669 25.25C10.4075 25.25 12.181 26.1809 13.3255 27.6311M12.5834 35.6667V31.5C12.5834 30.1329 12.8467 28.8272 13.3255 27.6311M13.3255 27.6311C14.8615 23.7938 18.6142 21.0834 23 21.0834C27.3858 21.0834 31.1386 23.7938 32.6745 27.6311M29.25 8.58337C29.25 12.0352 26.4518 14.8334 23 14.8334C19.5482 14.8334 16.75 12.0352 16.75 8.58337C16.75 5.13159 19.5482 2.33337 23 2.33337C26.4518 2.33337 29.25 5.13159 29.25 8.58337ZM41.75 14.8334C41.75 17.1346 39.8845 19 37.5834 19C35.2822 19 33.4167 17.1346 33.4167 14.8334C33.4167 12.5322 35.2822 10.6667 37.5834 10.6667C39.8845 10.6667 41.75 12.5322 41.75 14.8334ZM12.5834 14.8334C12.5834 17.1346 10.7179 19 8.41669 19C6.1155 19 4.25002 17.1346 4.25002 14.8334C4.25002 12.5322 6.1155 10.6667 8.41669 10.6667C10.7179 10.6667 12.5834 12.5322 12.5834 14.8334Z" stroke="currentColor" stroke-width="3" stroke-linecap="round" stroke-linejoin="round"/>
</svg>
