<svg width="42" height="42" viewBox="0 0 42 42" fill="none" xmlns="http://www.w3.org/2000/svg">
<path d="M16.1324 31.4167H25.8677M21 2.25V4.33333M34.2583 7.74175L32.7851 9.21489M39.7501 20.9999H37.6668M4.33346 20.9999H2.25012M9.2149 9.21489L7.74176 7.74175M13.6343 28.3657C9.56635 24.2978 9.56635 17.7023 13.6343 13.6344C17.7023 9.56639 24.2977 9.56639 28.3657 13.6344C32.4337 17.7023 32.4337 24.2978 28.3657 28.3657L27.2259 29.5055C25.9074 30.824 25.1667 32.6123 25.1667 34.477V35.5833C25.1667 37.8845 23.3012 39.75 21 39.75C18.6988 39.75 16.8333 37.8845 16.8333 35.5833V34.477C16.8333 32.6123 16.0926 30.824 14.7741 29.5055L13.6343 28.3657Z" stroke="currentColor" stroke-width="3" stroke-linecap="round" stroke-linejoin="round"/>
</svg>
