<svg width="29" height="29" viewBox="0 0 29 29" fill="none" xmlns="http://www.w3.org/2000/svg">
<path d="M11.0926 21.7917H17.9073M14.4999 1.375V2.83333M23.7807 5.21922L22.7495 6.25042M27.625 14.4999H26.1667M2.83333 14.4999H1.375M6.25034 6.25042L5.21915 5.21922M9.34394 19.656C6.49636 16.8084 6.49636 12.1916 9.34394 9.34405C12.1915 6.49647 16.8083 6.49647 19.6559 9.34405C22.5035 12.1916 22.5035 16.8084 19.6559 19.656L18.8581 20.4539C17.9351 21.3768 17.4166 22.6286 17.4166 23.9339V24.7083C17.4166 26.3192 16.1108 27.625 14.4999 27.625C12.8891 27.625 11.5833 26.3192 11.5833 24.7083V23.9339C11.5833 22.6286 11.0647 21.3768 10.1418 20.4539L9.34394 19.656Z" stroke="white" stroke-width="2" stroke-linecap="round" stroke-linejoin="round"/>
</svg>
