<svg width="87" height="87" viewBox="0 0 87 87" fill="none" xmlns="http://www.w3.org/2000/svg">
<path d="M83.6979 32.2835C83.4382 32.3459 83.2138 32.5085 83.0736 32.7359C82.9334 32.9632 82.8888 33.2368 82.9496 33.4968C83.6867 36.6252 84.0599 39.8282 84.0619 43.0422C84.0489 53.9173 79.723 64.3432 72.0332 72.033C64.3434 79.7228 53.9175 84.0487 43.0424 84.0617C34.1105 84.093 25.4182 81.1735 18.3161 75.7567C19.2697 74.3349 19.6507 72.6052 19.3828 70.9143C19.1149 69.2234 18.2178 67.6962 16.8714 66.6388C15.525 65.5814 13.8287 65.0719 12.1225 65.2124C10.4163 65.3529 8.82617 66.133 7.67088 67.3964C6.51559 68.6599 5.88045 70.3132 5.89275 72.0252C5.90506 73.7371 6.56389 75.3812 7.73723 76.6279C8.91056 77.8746 10.5117 78.6318 12.2198 78.7477C13.9278 78.8637 15.6166 78.3299 16.9477 77.2532C24.4255 83.01 33.6054 86.1166 43.0424 86.084C49.5437 86.077 55.9591 84.599 61.808 81.7606C67.6569 78.9222 72.7877 74.797 76.8161 69.6942C80.8444 64.5913 83.6658 58.6431 85.0689 52.295C86.472 45.947 86.4204 39.3637 84.918 33.0385C84.8879 32.9085 84.8324 32.7859 84.7546 32.6775C84.6769 32.5691 84.5785 32.4772 84.4651 32.407C84.3517 32.3369 84.2255 32.2898 84.0938 32.2686C83.9622 32.2474 83.8276 32.2524 83.6979 32.2835Z" fill="#010E37"/>
<path d="M2.02237 43.0418C2.02281 35.7454 3.96933 28.5811 7.66123 22.2876C11.3531 15.9942 16.6568 10.7993 23.0254 7.23854C29.3941 3.67782 36.5971 1.88016 43.892 2.0309C51.1869 2.18164 58.3096 4.27532 64.5257 8.09608C63.8841 9.46874 63.7814 11.0323 64.238 12.4771C64.6945 13.9219 65.6771 15.1425 66.9909 15.8972C68.3048 16.6519 69.8542 16.8856 71.3323 16.5521C72.8103 16.2186 74.1092 15.3422 74.9717 14.0964C75.8342 12.8506 76.1973 11.3263 75.9892 9.82546C75.7811 8.32461 75.0169 6.95665 73.848 5.99252C72.6791 5.02839 71.1908 4.5384 69.6778 4.61962C68.1647 4.70083 66.7374 5.34731 65.6784 6.43103C59.1582 2.40033 51.6799 0.183915 44.0164 0.0108522C36.3528 -0.162211 28.7821 1.71435 22.0866 5.44661C15.3911 9.17886 9.81367 14.6314 5.93081 21.2407C2.04795 27.85 0.000493079 35.3764 4.05883e-05 43.0418C-0.00358444 45.6693 0.235618 48.2915 0.714595 50.875C0.755708 51.1077 0.877641 51.3185 1.05891 51.4702C1.24019 51.6219 1.46917 51.7047 1.70553 51.7041C1.76676 51.7041 1.8278 51.6973 1.88754 51.6839C2.15113 51.6363 2.38506 51.4861 2.53799 51.2661C2.69091 51.0462 2.75034 50.7746 2.70321 50.511C2.24881 48.0472 2.02091 45.5471 2.02237 43.0418Z" fill="#010E37"/>
<path d="M36.9746 36.3606V36.9673H49.1086V36.3606C49.0142 28.1635 37.069 28.1635 36.9746 36.3606Z" fill="#010E37"/>
<path d="M71.3209 22.031C59.9419 22.1456 48.9944 15.1146 44.8082 12.0811C44.2942 11.7098 43.6762 11.5099 43.042 11.5099C42.4079 11.5099 41.7899 11.7098 41.2759 12.0811C37.0897 15.1146 26.1152 22.1186 14.7632 22.031C14.36 22.027 13.9601 22.1027 13.5863 22.2539C13.2126 22.4052 12.8724 22.6288 12.5855 22.912C12.2985 23.1952 12.0704 23.5324 11.9143 23.9041C11.7581 24.2758 11.6771 24.6748 11.6758 25.0779C11.6825 40.6431 14.7969 62.9089 41.6736 76.5124C42.0974 76.7284 42.5663 76.841 43.042 76.841C43.5177 76.841 43.9867 76.7284 44.4105 76.5124C71.2872 62.9089 74.4016 40.6431 74.4083 25.0779C74.4022 24.2647 74.0737 23.4871 73.4949 22.9158C72.916 22.3445 72.1341 22.0263 71.3209 22.031ZM54.1648 52.8107C54.1648 54.1516 53.6322 55.4376 52.684 56.3857C51.7359 57.3339 50.4499 57.8666 49.109 57.8666H36.9751C35.6342 57.8666 34.3482 57.3339 33.4001 56.3857C32.4519 55.4376 31.9193 54.1516 31.9193 52.8107V42.025C31.9198 41.0417 32.207 40.0799 32.7458 39.2573C33.2846 38.4348 34.0515 37.7872 34.9527 37.3939V36.349C35.0741 25.5296 51.01 25.5296 51.1313 36.349V37.3939C52.0325 37.7872 52.7995 38.4348 53.3383 39.2573C53.8771 40.0799 54.1643 41.0417 54.1648 42.025V52.8107Z" fill="#010E37"/>
<path d="M44.6995 46.2548C44.6845 46.1643 44.6887 46.0716 44.712 45.9829C44.7352 45.8941 44.7769 45.8113 44.8343 45.7397C45.0601 45.4132 45.1923 45.0311 45.2165 44.6349C45.2407 44.2386 45.1561 43.8433 44.9718 43.4917C44.7874 43.1401 44.5104 42.8456 44.1707 42.6401C43.831 42.4347 43.4415 42.326 43.0445 42.326C42.6475 42.326 42.2581 42.4347 41.9184 42.6401C41.5787 42.8456 41.3017 43.1401 41.1173 43.4917C40.933 43.8433 40.8484 44.2386 40.8726 44.6349C40.8968 45.0311 41.029 45.4132 41.2548 45.7397C41.3119 45.8105 41.3535 45.8926 41.3767 45.9805C41.3999 46.0684 41.4043 46.1603 41.3896 46.25C41.2312 47.0394 40.7829 49.2963 40.4668 50.863C40.4283 51.0584 40.4336 51.2599 40.4824 51.453C40.5311 51.646 40.622 51.826 40.7485 51.9797C40.875 52.1335 41.034 52.2574 41.2141 52.3424C41.3942 52.4274 41.5909 52.4715 41.79 52.4714H44.2977C44.4972 52.4715 44.6942 52.4273 44.8746 52.342C45.055 52.2567 45.2141 52.1325 45.3407 51.9782C45.4672 51.8239 45.5579 51.6435 45.6063 51.45C45.6546 51.2564 45.6594 51.0546 45.6203 50.8589L44.6995 46.2548Z" fill="#010E37"/>
</svg>
