<svg width="70" height="70" viewBox="0 0 70 70" fill="none" xmlns="http://www.w3.org/2000/svg">
<path d="M34.9996 35.5547C31.5933 35.5547 28.2636 36.5648 25.4314 38.4572C22.5992 40.3496 20.3918 43.0393 19.0883 46.1862C17.7848 49.3332 17.4437 52.796 18.1083 56.1368C18.7728 59.4776 20.4131 62.5463 22.8216 64.9549C25.2302 67.3634 28.2989 69.0037 31.6397 69.6682C34.9805 70.3327 38.4433 69.9917 41.5902 68.6882C44.7372 67.3847 47.4269 65.1772 49.3193 62.3451C51.2117 59.5129 52.2218 56.1831 52.2218 52.7769C52.2167 48.2109 50.4006 43.8333 47.1719 40.6046C43.9432 37.3759 39.5656 35.5598 34.9996 35.5547ZM33.3329 61.6658C33.3329 62.1078 33.1573 62.5317 32.8447 62.8443C32.5322 63.1569 32.1083 63.3325 31.6662 63.3325C31.2242 63.3325 30.8003 63.1569 30.4877 62.8443C30.1752 62.5317 29.9996 62.1078 29.9996 61.6658V47.2214L28.2217 48.5549C27.868 48.8201 27.4235 48.9339 26.9859 48.8714C26.5483 48.8088 26.1534 48.5749 25.8882 48.2212C25.6231 47.8676 25.5092 47.423 25.5718 46.9854C25.6344 46.5478 25.8682 46.153 26.2219 45.8878L30.6664 42.5545C30.9141 42.3693 31.2085 42.2566 31.5166 42.2291C31.8247 42.2015 32.1344 42.2602 32.411 42.3986C32.6877 42.537 32.9204 42.7495 33.0832 43.0126C33.246 43.2756 33.3325 43.5787 33.3329 43.888V61.6658ZM43.7772 59.666L39.3328 62.9994C39.085 63.1845 38.7907 63.2971 38.4826 63.3246C38.1745 63.3521 37.8648 63.2934 37.5882 63.1551C37.3115 63.0167 37.0788 62.8042 36.916 62.5412C36.7532 62.2782 36.6667 61.9751 36.6662 61.6658V43.888C36.6662 43.446 36.8418 43.0221 37.1544 42.7095C37.467 42.3969 37.8909 42.2214 38.3329 42.2214C38.7749 42.2214 39.1989 42.3969 39.5114 42.7095C39.824 43.0221 39.9996 43.446 39.9996 43.888V58.3325L41.7775 56.9989C41.9526 56.8676 42.1519 56.7721 42.3639 56.7178C42.5759 56.6635 42.7966 56.6515 43.0133 56.6825C43.23 56.7135 43.4384 56.7868 43.6268 56.8984C43.8151 57.0099 43.9796 57.1575 44.1109 57.3326C44.2422 57.5077 44.3377 57.707 44.392 57.919C44.4463 58.1311 44.4583 58.3517 44.4273 58.5684C44.3964 58.7851 44.323 58.9935 44.2115 59.1819C44.0999 59.3702 43.9524 59.5347 43.7772 59.666Z" fill="#1268FB"/>
<path d="M56.633 20.4535C56.3229 14.9258 53.9086 9.72652 49.8857 5.92292C45.8627 2.11932 40.5364 0 35 0C29.4636 0 24.1373 2.11932 20.1143 5.92292C16.0914 9.72652 13.677 14.9258 13.367 20.4535C9.54756 21.3292 6.14123 23.4818 3.71088 26.5555C1.28053 29.6293 -0.0283748 33.4402 0.000466632 37.3586C0.0293081 41.277 1.39417 45.0683 3.8695 48.1059C6.34484 51.1436 9.78248 53.2458 13.6144 54.0652C13.7291 54.0901 13.8463 54.1026 13.9637 54.1026C14.3753 54.102 14.7721 53.9493 15.0778 53.6736C15.3835 53.398 15.5764 53.0191 15.6193 52.6097C15.6623 52.2004 15.5523 51.7897 15.3106 51.4566C15.0688 51.1235 14.7124 50.8916 14.3099 50.8056C11.1235 50.1238 8.27854 48.3428 6.27322 45.7745C4.2679 43.2061 3.23005 40.0141 3.34144 36.7575C3.45283 33.5009 4.70635 30.3873 6.88248 27.962C9.0586 25.5366 12.0186 23.9542 15.2441 23.4917C15.6439 23.4346 16.0093 23.2343 16.2726 22.928C16.5358 22.6218 16.6789 22.2304 16.6753 21.8266C16.6752 21.7732 16.6723 21.7198 16.6667 21.6666C16.6627 16.8043 18.5904 12.1396 22.0258 8.69862C25.4612 5.25765 30.1228 3.32231 34.9851 3.31836C39.8474 3.3144 44.5121 5.24215 47.9531 8.67751C51.394 12.1129 53.3294 16.7745 53.3333 21.6368C53.3306 21.6715 53.3252 21.7914 53.3246 21.8267C53.321 22.2304 53.464 22.6217 53.7271 22.928C53.9902 23.2342 54.3556 23.4345 54.7553 23.4917C57.9808 23.954 60.9409 25.5364 63.1171 27.9616C65.2934 30.3869 66.547 33.5005 66.6585 36.7571C66.77 40.0137 65.7323 43.2057 63.7271 45.7741C61.7219 48.3426 58.877 50.1237 55.6906 50.8056C55.4764 50.8511 55.2732 50.9383 55.0927 51.0623C54.9122 51.1863 54.7579 51.3447 54.6386 51.5284C54.5194 51.7121 54.4375 51.9175 54.3977 52.1329C54.3579 52.3483 54.3609 52.5694 54.4066 52.7836C54.4523 52.9978 54.5398 53.2009 54.6641 53.3812C54.7883 53.5616 54.9469 53.7157 55.1307 53.8347C55.3146 53.9537 55.5201 54.0354 55.7355 54.0749C55.9509 54.1144 56.172 54.1111 56.3862 54.0652C60.218 53.2457 63.6555 51.1434 66.1308 48.1057C68.606 45.068 69.9708 41.2767 69.9995 37.3584C70.0283 33.4401 68.7194 29.6291 66.289 26.5554C63.8587 23.4817 60.4524 21.3292 56.633 20.4535Z" fill="#010E37"/>
<path d="M36.6654 30.5558V12.778C36.6654 12.336 36.4898 11.912 36.1772 11.5995C35.8646 11.2869 35.4407 11.1113 34.9987 11.1113C34.5567 11.1113 34.1327 11.2869 33.8202 11.5995C33.5076 11.912 33.332 12.336 33.332 12.778V30.5558C33.332 30.9978 33.5076 31.4217 33.8202 31.7343C34.1327 32.0468 34.5567 32.2224 34.9987 32.2224C35.4407 32.2224 35.8646 32.0468 36.1772 31.7343C36.4898 31.4217 36.6654 30.9978 36.6654 30.5558Z" fill="#010E37"/>
<path d="M43.3333 31.6661V24.5784L47.2895 20.6222C47.4442 20.4675 47.567 20.2838 47.6507 20.0816C47.7345 19.8794 47.7776 19.6627 47.7776 19.4438C47.7776 19.225 47.7345 19.0083 47.6507 18.8061C47.567 18.6039 47.4442 18.4202 47.2895 18.2654C47.1348 18.1107 46.951 17.9879 46.7489 17.9042C46.5467 17.8204 46.33 17.7773 46.1111 17.7773C45.8923 17.7773 45.6756 17.8204 45.4734 17.9042C45.2712 17.9879 45.0875 18.1107 44.9327 18.2654L40.4883 22.7099C40.3335 22.8646 40.2107 23.0483 40.1269 23.2505C40.0431 23.4527 40 23.6694 40 23.8883V31.6661C40 32.1081 40.1756 32.532 40.4882 32.8446C40.8007 33.1571 41.2246 33.3327 41.6667 33.3327C42.1087 33.3327 42.5326 33.1571 42.8452 32.8446C43.1577 32.532 43.3333 32.1081 43.3333 31.6661Z" fill="#010E37"/>
<path d="M28.3336 33.3327C28.5525 33.3328 28.7692 33.2897 28.9714 33.2059C29.1737 33.1222 29.3574 32.9994 29.5122 32.8446C29.667 32.6899 29.7897 32.5061 29.8735 32.3039C29.9572 32.1017 30.0003 31.8849 30.0003 31.6661V23.8883C30.0002 23.6694 29.9571 23.4527 29.8733 23.2505C29.7896 23.0483 29.6668 22.8646 29.512 22.7099L25.0675 18.2654C24.755 17.9529 24.3311 17.7773 23.8891 17.7773C23.4472 17.7773 23.0233 17.9529 22.7108 18.2654C22.3982 18.578 22.2227 19.0019 22.2227 19.4438C22.2227 19.8858 22.3982 20.3097 22.7108 20.6222L26.6669 24.5784V31.6661C26.6669 31.8849 26.71 32.1017 26.7937 32.3039C26.8775 32.5061 27.0002 32.6899 27.155 32.8446C27.3098 32.9994 27.4935 33.1222 27.6957 33.2059C27.898 33.2897 28.1147 33.3328 28.3336 33.3327Z" fill="#010E37"/>
</svg>
