<svg width="74" height="70" viewBox="0 0 74 70" fill="none" xmlns="http://www.w3.org/2000/svg">
<path d="M56.6012 36.3388C53.8453 36.3396 51.1318 37.017 48.6989 38.3116C46.2661 39.6062 44.1883 41.4784 42.6481 43.7637L38.3021 39.4177V34.4849C38.2994 34.0207 38.1131 33.5765 37.784 33.2492C37.4548 32.922 37.0095 32.7383 36.5454 32.7383C36.0812 32.7383 35.6359 32.922 35.3067 33.2492C34.9776 33.5765 34.7913 34.0207 34.7887 34.4849V39.4177L30.6101 43.5962C28.1561 40.0663 24.4427 37.6108 20.2337 36.7348C16.0247 35.8588 11.64 36.6289 7.98143 38.8866C4.32281 41.1444 1.66839 44.7183 0.564044 48.8732C-0.5403 53.0281 -0.0106069 57.4483 2.04419 61.2246C4.09899 65.001 7.52268 67.8464 11.6112 69.1758C15.6997 70.5052 20.1421 70.2175 24.025 68.3718C27.9078 66.5261 30.9358 63.2628 32.4863 59.2529C34.0368 55.2431 33.9919 50.7915 32.3608 46.8137L36.1501 43.0244H36.9406L40.9442 47.028C39.6326 50.3764 39.4284 54.057 40.3615 57.53C41.2945 61.003 43.3158 64.0856 46.1288 66.326C48.9418 68.5663 52.3987 69.8464 55.9924 69.9785C59.5861 70.1107 63.1276 69.088 66.0976 67.0604C69.0676 65.0327 71.3099 62.1069 72.4955 58.7118C73.6812 55.3167 73.7479 51.6311 72.6858 48.1954C71.6238 44.7596 69.4889 41.7545 66.5942 39.6208C63.6995 37.487 60.1973 36.3368 56.6012 36.3388ZM16.7823 66.4958C13.8674 66.4949 11.0342 65.5319 8.72256 63.7562C11.0371 61.9873 13.8692 61.0289 16.7823 61.0289C19.6954 61.0289 22.5276 61.9873 24.8421 63.7562C22.5304 65.5319 19.6973 66.4949 16.7823 66.4958ZM27.3533 61.2487C24.3597 58.833 20.629 57.5155 16.7823 57.5155C12.9356 57.5155 9.20495 58.833 6.21137 61.2487C4.69839 59.2759 3.76765 56.9191 3.52443 54.4448C3.28122 51.9706 3.73523 49.4777 4.83512 47.248C5.93502 45.0184 7.63689 43.141 9.74824 41.8283C11.8596 40.5155 14.2962 39.8198 16.7823 39.8198C19.2685 39.8198 21.7051 40.5155 23.8164 41.8283C25.9278 43.141 27.6296 45.0184 28.7295 47.248C29.8294 49.4777 30.2834 51.9706 30.0402 54.4448C29.797 56.9191 28.8663 59.2759 27.3533 61.2487ZM56.6012 66.4958C53.6862 66.4949 50.8531 65.5319 48.5414 63.7562C50.8559 61.9873 53.6881 61.0289 56.6012 61.0289C59.5143 61.0289 62.3465 61.9873 64.661 63.7562C62.3493 65.5319 59.5161 66.4949 56.6012 66.4958ZM67.1721 61.2487C64.1786 58.833 60.4479 57.5155 56.6012 57.5155C52.7545 57.5155 49.0238 58.833 46.0302 61.2487C44.5172 59.2759 43.5865 56.9191 43.3433 54.4448C43.1001 51.9706 43.5541 49.4776 44.654 47.248C45.7539 45.0184 47.4557 43.141 49.5671 41.8282C51.6784 40.5155 54.115 39.8198 56.6012 39.8198C59.0874 39.8198 61.5239 40.5155 63.6353 41.8282C65.7466 43.141 67.4485 45.0184 68.5484 47.248C69.6483 49.4776 70.1023 51.9706 69.8591 54.4448C69.6159 56.9191 68.6851 59.2759 67.1721 61.2487Z" fill="#010E37"/>
<path d="M16.7827 41.9512C15.3929 41.9512 14.0344 42.3633 12.8788 43.1354C11.7232 43.9075 10.8226 45.005 10.2908 46.289C9.7589 47.573 9.61975 48.9858 9.89088 50.3489C10.162 51.712 10.8313 52.9641 11.814 53.9468C12.7967 54.9295 14.0488 55.5988 15.4119 55.8699C16.7749 56.141 18.1878 56.0019 19.4718 55.47C20.7558 54.9382 21.8532 54.0375 22.6254 52.882C23.3975 51.7264 23.8096 50.3678 23.8096 48.978C23.8076 47.115 23.0666 45.3289 21.7492 44.0115C20.4319 42.6942 18.6457 41.9532 16.7827 41.9512ZM16.7827 52.4915C16.0878 52.4915 15.4085 52.2854 14.8307 51.8993C14.2529 51.5133 13.8026 50.9645 13.5367 50.3225C13.2708 49.6805 13.2012 48.9741 13.3368 48.2925C13.4723 47.611 13.807 46.9849 14.2983 46.4935C14.7897 46.0022 15.4158 45.6676 16.0973 45.532C16.7789 45.3964 17.4853 45.466 18.1273 45.732C18.7693 45.9979 19.3181 46.4482 19.7041 47.026C20.0902 47.6038 20.2962 48.2831 20.2962 48.978C20.2952 49.9096 19.9247 50.8026 19.266 51.4613C18.6073 52.12 17.7142 52.4905 16.7827 52.4915Z" fill="#010E37"/>
<path d="M56.6013 41.9513C55.2116 41.9513 53.853 42.3634 52.6974 43.1355C51.5419 43.9076 50.6412 45.0051 50.1094 46.2891C49.5775 47.5731 49.4384 48.9859 49.7095 50.349C49.9806 51.7121 50.6499 52.9642 51.6326 53.9469C52.6153 54.9296 53.8674 55.5989 55.2305 55.87C56.5935 56.1411 58.0064 56.002 59.2904 55.4701C60.5744 54.9383 61.6718 54.0376 62.444 52.8821C63.2161 51.7265 63.6282 50.3679 63.6282 48.9782C63.6262 47.1151 62.8852 45.329 61.5678 44.0117C60.2505 42.6943 58.4644 41.9533 56.6013 41.9513ZM56.6013 52.4916C55.9064 52.4916 55.2271 52.2855 54.6493 51.8995C54.0716 51.5134 53.6212 50.9647 53.3553 50.3226C53.0894 49.6806 53.0198 48.9742 53.1554 48.2926C53.2909 47.6111 53.6256 46.985 54.117 46.4937C54.6083 46.0023 55.2344 45.6677 55.9159 45.5321C56.5975 45.3966 57.3039 45.4661 57.9459 45.7321C58.5879 45.998 59.1367 46.4484 59.5227 47.0262C59.9088 47.604 60.1148 48.2833 60.1148 48.9782C60.1138 49.9097 59.7433 50.8027 59.0846 51.4614C58.4259 52.1201 57.5329 52.4906 56.6013 52.4916Z" fill="#010E37"/>
<path d="M36.5464 14.6005C38.4791 14.6005 40.0459 13.0338 40.0459 11.1011C40.0459 9.16834 38.4791 7.60156 36.5464 7.60156C34.6136 7.60156 33.0469 9.16834 33.0469 11.1011C33.0469 13.0338 34.6136 14.6005 36.5464 14.6005Z" fill="#1268FB"/>
<path d="M36.546 20.4335C40.7493 20.4287 44.799 22.0132 47.8829 24.8692C49.7724 22.6946 50.9966 20.0224 51.4096 17.1712C51.8225 14.3201 51.4066 11.4104 50.2117 8.789C49.0167 6.16764 47.093 3.94528 44.67 2.38693C42.247 0.828578 39.4269 0 36.546 0C33.6651 0 30.845 0.828578 28.422 2.38693C25.999 3.94528 24.0753 6.16764 22.8803 8.789C21.6853 11.4104 21.2695 14.3201 21.6824 17.1712C22.0953 20.0224 23.3196 22.6946 25.2091 24.8692C28.293 22.0132 32.3427 20.4287 36.546 20.4335ZM36.546 4.10257C37.9303 4.10257 39.2834 4.51305 40.4344 5.28211C41.5854 6.05117 42.4825 7.14426 43.0122 8.42316C43.5419 9.70205 43.6805 11.1093 43.4105 12.467C43.1404 13.8246 42.4738 15.0717 41.495 16.0506C40.5162 17.0294 39.2691 17.696 37.9114 17.966C36.5538 18.2361 35.1465 18.0975 33.8676 17.5678C32.5887 17.038 31.4956 16.1409 30.7266 14.99C29.9575 13.839 29.547 12.4858 29.547 11.1015C29.549 9.24593 30.2871 7.46689 31.5992 6.15477C32.9113 4.84264 34.6904 4.1046 36.546 4.10257Z" fill="#1268FB"/>
<path d="M36.5474 23.9336C33.3287 23.9304 30.2202 25.1056 27.8086 27.2372C30.3534 29.071 33.4107 30.0577 36.5474 30.0577C39.684 30.0577 42.7413 29.071 45.2861 27.2372C42.8745 25.1056 39.766 23.9304 36.5474 23.9336Z" fill="#1268FB"/>
</svg>
