<svg width="70" height="70" viewBox="0 0 70 70" fill="none" xmlns="http://www.w3.org/2000/svg">
<path d="M34.9998 22.2227C31.8133 22.2227 28.6984 23.1676 26.0489 24.9379C23.3995 26.7082 21.3345 29.2244 20.1151 32.1683C18.8957 35.1122 18.5766 38.3516 19.1982 41.4769C19.8199 44.6021 21.3543 47.4729 23.6075 49.726C25.8607 51.9792 28.7314 53.5137 31.8567 54.1353C34.9819 54.757 38.2213 54.4379 41.1652 53.2185C44.1092 51.9991 46.6254 49.9341 48.3957 47.2846C50.166 44.6352 51.1109 41.5202 51.1109 38.3338C51.106 34.0623 49.407 29.9673 46.3866 26.9469C43.3663 23.9266 39.2712 22.2276 34.9998 22.2227ZM34.9998 50.2782C34.6152 50.2782 34.2393 50.1642 33.9195 49.9505C33.5998 49.7369 33.3505 49.4332 33.2034 49.0779C33.0562 48.7226 33.0177 48.3316 33.0927 47.9544C33.1677 47.5772 33.3529 47.2308 33.6249 46.9588C33.8968 46.6869 34.2433 46.5017 34.6204 46.4267C34.9976 46.3517 35.3886 46.3902 35.7439 46.5373C36.0992 46.6845 36.4029 46.9337 36.6165 47.2535C36.8302 47.5733 36.9442 47.9492 36.9442 48.3338C36.9442 48.8495 36.7394 49.344 36.3747 49.7087C36.0101 50.0734 35.5155 50.2782 34.9998 50.2782ZM36.3887 39.778V42.7782C36.3887 43.1466 36.2424 43.4998 35.9819 43.7603C35.7214 44.0208 35.3681 44.1671 34.9998 44.1671C34.6314 44.1671 34.2782 44.0208 34.0177 43.7603C33.7572 43.4998 33.6109 43.1466 33.6109 42.7782V38.541C33.6109 38.3586 33.6468 38.178 33.7166 38.0095C33.7864 37.841 33.8887 37.6879 34.0177 37.5589C34.1466 37.4299 34.2998 37.3276 34.4683 37.2578C34.6368 37.188 34.8174 37.1521 34.9998 37.1521C35.7345 37.1521 36.4527 36.9342 37.0635 36.526C37.6744 36.1178 38.1505 35.5376 38.4316 34.8589C38.7127 34.1801 38.7862 33.4332 38.6428 32.7126C38.4995 31.992 38.1456 31.3302 37.6261 30.8107C37.1065 30.2912 36.4446 29.9375 35.724 29.7942C35.0035 29.651 34.2566 29.7246 33.5778 30.0058C32.8991 30.287 32.319 30.7632 31.9109 31.3741C31.5028 31.985 31.285 32.7032 31.2851 33.4379C31.2851 33.8063 31.1387 34.1596 30.8783 34.42C30.6178 34.6805 30.2645 34.8268 29.8962 34.8268C29.5278 34.8268 29.1745 34.6805 28.9141 34.42C28.6536 34.1596 28.5073 33.8063 28.5073 33.4379C28.5068 32.2132 28.8528 31.0134 29.5052 29.9769C30.1576 28.9405 31.0898 28.1097 32.1942 27.5804C33.2987 27.0512 34.5303 26.8451 35.7468 26.986C36.9634 27.1269 38.1153 27.609 39.0695 28.3766C40.0238 29.1443 40.7415 30.1661 41.1397 31.3243C41.538 32.4824 41.6006 33.7295 41.3202 34.9217C41.0399 36.1139 40.4281 37.2025 39.5555 38.0618C38.6829 38.9211 37.585 39.516 36.3887 39.778Z" fill="#1268FB"/>
<path d="M65.5556 31.1769V30.5556C65.5556 22.4517 62.3363 14.6798 56.606 8.94952C50.8758 3.21924 43.1038 0 35 0C26.8962 0 19.1242 3.21924 13.394 8.94952C7.66368 14.6798 4.44444 22.4517 4.44444 30.5556V31.1769C3.22658 31.3091 2.10011 31.8853 1.28025 32.7955C0.460385 33.7057 0.00460926 34.8861 0 36.1111V51.6667C0.0038433 52.9087 0.470811 54.1046 1.3096 55.0206C2.14839 55.9366 3.29868 56.5068 4.53556 56.6197C4.93872 60.2937 6.68251 63.6901 9.43323 66.1587C12.1839 68.6274 15.7484 69.9951 19.4444 70H36.1111C37.4372 70 38.709 69.4732 39.6466 68.5355C40.5843 67.5979 41.1111 66.3261 41.1111 65C41.1111 63.6739 40.5843 62.4022 39.6466 61.4645C38.709 60.5268 37.4372 60 36.1111 60H33.8889C32.5633 60.0014 31.2923 60.5287 30.3549 61.4661C29.4176 62.4034 28.8903 63.6744 28.8889 65V66.6667H19.4444C16.6298 66.6619 13.9116 65.6404 11.7903 63.7903C9.66912 61.9402 8.28768 59.386 7.90039 56.5981C9.09479 56.4365 10.1904 55.8481 10.9847 54.9417C11.7791 54.0352 12.2187 52.8719 12.2222 51.6667V36.1111C12.2176 34.8861 11.7618 33.7057 10.942 32.7955C10.1221 31.8853 8.99564 31.3091 7.77778 31.1769V30.5556C7.7749 26.5874 8.64503 22.6671 10.3265 19.0727L11.4746 19.8383C12.2902 20.3849 13.2499 20.6769 14.2318 20.6771C15.0327 20.6755 15.8218 20.483 16.5334 20.1153C17.2451 19.7477 17.8588 19.2157 18.3236 18.5633C20.2232 15.9139 22.7267 13.7551 25.6269 12.2659C28.527 10.7767 31.7402 9.99997 35.0003 9.99997C38.2604 9.99997 41.4736 10.7767 44.3737 12.2659C47.2738 13.7551 49.7774 15.9139 51.677 18.5633C52.4283 19.625 53.5639 20.352 54.8425 20.5901C56.1212 20.8281 57.4423 20.5584 58.5254 19.8383L59.6735 19.0727C61.355 22.6671 62.2251 26.5873 62.2222 30.5556V31.1769C61.0044 31.3091 59.8779 31.8853 59.058 32.7955C58.2382 33.7057 57.7824 34.8861 57.7778 36.1111V51.6667C57.7792 52.9923 58.3065 54.2632 59.2438 55.2006C60.1812 56.138 61.4521 56.6652 62.7778 56.6667H65C66.3256 56.6652 67.5966 56.138 68.5339 55.2006C69.4713 54.2632 69.9986 52.9923 70 51.6667V36.1111C69.9954 34.8861 69.5396 33.7057 68.7198 32.7955C67.8999 31.8853 66.7734 31.3091 65.5556 31.1769ZM32.2222 65C32.2227 64.5581 32.3985 64.1345 32.7109 63.822C33.0234 63.5096 33.447 63.3338 33.8889 63.3333H36.1111C36.5531 63.3333 36.9771 63.5089 37.2896 63.8215C37.6022 64.134 37.7778 64.558 37.7778 65C37.7778 65.442 37.6022 65.866 37.2896 66.1785C36.9771 66.4911 36.5531 66.6667 36.1111 66.6667H32.2222V65ZM8.88889 36.1111V51.6667C8.88841 52.1085 8.71266 52.5322 8.4002 52.8446C8.08774 53.1571 7.6641 53.3329 7.22222 53.3333H5C4.55812 53.3329 4.13448 53.1571 3.82202 52.8446C3.50957 52.5322 3.33382 52.1085 3.33333 51.6667V36.1111C3.33382 35.6692 3.50957 35.2456 3.82202 34.9331C4.13448 34.6207 4.55812 34.4449 5 34.4444H7.22222C7.6641 34.4449 8.08774 34.6207 8.4002 34.9331C8.71266 35.2456 8.88841 35.6692 8.88889 36.1111ZM56.6764 17.0649C56.3109 17.3031 55.8669 17.3895 55.4387 17.3058C55.0104 17.2222 54.6316 16.975 54.3826 16.6168C52.1743 13.5381 49.2644 11.0298 45.8938 9.29949C42.5233 7.56919 38.789 6.66667 35.0003 6.66667C31.2115 6.66667 27.4773 7.56919 24.1067 9.29949C20.7361 11.0298 17.8263 13.5381 15.6179 16.6168C15.3688 16.975 14.9899 17.2222 14.5616 17.3058C14.1333 17.3895 13.6892 17.3031 13.3236 17.0649L11.9275 16.134C14.3707 12.2174 17.7707 8.98731 21.8072 6.74786C25.8437 4.5084 30.3839 3.33333 35 3.33333C39.6161 3.33333 44.1563 4.5084 48.1928 6.74786C52.2293 8.98731 55.6293 12.2174 58.0725 16.134L56.6764 17.0649ZM66.6667 51.6667C66.6662 52.1085 66.4904 52.5322 66.178 52.8446C65.8655 53.1571 65.4419 53.3329 65 53.3333H62.7778C62.3359 53.3329 61.9123 53.1571 61.5998 52.8446C61.2873 52.5322 61.1116 52.1085 61.1111 51.6667V36.1111C61.1116 35.6692 61.2873 35.2456 61.5998 34.9331C61.9123 34.6207 62.3359 34.4449 62.7778 34.4444H65C65.4419 34.4449 65.8655 34.6207 66.178 34.9331C66.4904 35.2456 66.6662 35.6692 66.6667 36.1111V51.6667Z" fill="white"/>
</svg>
