<svg width="30" height="30" viewBox="0 0 30 30" fill="none" xmlns="http://www.w3.org/2000/svg">
<path d="M15.0003 22.8723C14.5351 22.8723 14.158 23.2494 14.158 23.7146C14.158 24.1798 14.5351 24.5569 15.0003 24.5569C15.4655 24.5569 15.8426 24.1798 15.8426 23.7146C15.8426 23.2494 15.4655 22.8723 15.0003 22.8723Z" fill="white" stroke="white" stroke-width="0.0580909"/>
<path d="M8.02828 29L6.62376 20.5148C6.4467 19.4525 7.26589 18.4855 8.34278 18.4855H21.6556C22.7325 18.4855 23.5517 19.4525 23.3746 20.5148L21.9701 29" stroke="white" stroke-width="1.74273" stroke-miterlimit="10" stroke-linecap="round" stroke-linejoin="round"/>
<path d="M23.7144 11.5154C23.7144 14.4029 18.4862 18.4863 15.0007 18.4863C11.5153 18.4863 6.28711 14.4029 6.28711 11.5154C6.28711 8.62795 10.1883 8.02996 15.0007 8.02996C19.8132 8.02996 23.7144 8.62795 23.7144 11.5154Z" stroke="white" stroke-width="1.74273" stroke-miterlimit="10" stroke-linecap="round" stroke-linejoin="round"/>
<path d="M6.28711 11.5137C6.28711 5.7388 11.5153 0.999218 15.0007 0.999218C18.4862 0.999218 23.7144 5.7388 23.7144 11.5137" stroke="white" stroke-width="1.74273" stroke-miterlimit="10" stroke-linecap="round" stroke-linejoin="round"/>
<path d="M20.2278 8.44171V9.77182C20.2278 12.6592 17.8871 15 14.9997 15C12.1123 15 9.77148 12.6592 9.77148 9.77182V8.44171" stroke="white" stroke-width="1.74273" stroke-miterlimit="10" stroke-linecap="round" stroke-linejoin="round"/>
<path d="M7.29345 14.0124C4.37601 17.1265 2.21212 20.9142 1.1077 25.0404C1.0341 25.3154 1 25.6008 1 25.8855C1 27.5735 2.36845 29 4.05645 29H25.9434C27.6314 29 28.9998 27.5735 28.9998 25.8855C28.9998 25.6009 28.9657 25.3154 28.8922 25.0404C27.7877 20.9142 25.6238 17.1265 22.7064 14.0124" stroke="white" stroke-width="1.74273" stroke-miterlimit="10" stroke-linecap="round" stroke-linejoin="round"/>
</svg>
