<svg width="371" height="151" viewBox="0 0 371 151" fill="none" xmlns="http://www.w3.org/2000/svg">
<path d="M64.0498 1.99267H91.944V87.6191H113.618V111.431H91.944V142.533H64.6329L64.7301 111.431H0V88.1051L64.0498 1.99267ZM26.2419 87.6191H64.7301V36.1072L26.2419 87.6191Z" fill="white"/>
<path d="M181.993 0.0488281C198.71 0.0488281 211.896 6.30154 221.55 18.807C231.204 31.2476 236.032 49.1634 236.032 72.5543C236.032 95.8157 231.269 113.667 221.744 126.107C212.22 138.483 198.969 144.671 181.993 144.671C164.952 144.671 151.636 138.483 142.047 126.107C132.522 113.731 127.759 95.9129 127.759 72.6515C127.759 57.1007 129.962 43.915 134.368 33.0942C138.774 22.2735 145.027 14.0769 153.127 8.50456C161.226 2.86741 170.848 0.0488281 181.993 0.0488281ZM181.993 121.442C190.351 121.442 196.474 117.716 200.362 110.265C204.25 102.749 206.194 90.2109 206.194 72.6515C206.194 54.7033 204.217 41.8415 200.265 34.0662C196.312 26.2908 190.189 22.4031 181.895 22.4031C173.602 22.4031 167.414 26.3232 163.332 34.1633C159.314 42.0035 157.306 54.8329 157.306 72.6515C157.306 90.1461 159.314 102.652 163.332 110.168C167.349 117.684 173.569 121.442 181.993 121.442Z" fill="white"/>
<path d="M343.5 7.49414L370.175 15.6496L345.14 97.5346L365.867 103.871L358.905 126.643L338.178 120.306L329.085 150.049L302.968 142.064L312.154 112.35L250.252 93.4244L257.072 71.1175L343.5 7.49414ZM282.309 78.3252L319.116 89.5781L334.176 40.3169L282.309 78.3252Z" fill="white"/>
</svg>
