<svg width="130" height="30" viewBox="0 0 130 30" fill="none" xmlns="http://www.w3.org/2000/svg">
<mask id="path-1-outside-1_0_1684" maskUnits="userSpaceOnUse" x="36.5" y="4.86364" width="93" height="22" fill="black">
<rect fill="white" x="36.5" y="4.86364" width="93" height="22"/>
<path d="M37.5 9.28658V5.86364H53.6271V9.28658H47.6154V25.5H43.5117V9.28658H37.5Z"/>
<path d="M60.4072 25.7876C58.8923 25.7876 57.5883 25.4808 56.4953 24.8672C55.4086 24.2472 54.5713 23.3714 53.9832 22.2401C53.3952 21.1023 53.1011 19.7567 53.1011 18.2035C53.1011 16.6886 53.3952 15.359 53.9832 14.2148C54.5713 13.0707 55.3991 12.179 56.4665 11.5398C57.5404 10.9006 58.7996 10.581 60.2442 10.581C61.2158 10.581 62.1203 10.7376 62.9577 11.0508C63.8014 11.3576 64.5365 11.821 65.1629 12.4411C65.7957 13.0611 66.2879 13.8409 66.6395 14.7805C66.991 15.7138 67.1668 16.8068 67.1668 18.0597V19.1815H54.7311V16.6502H63.322C63.322 16.0621 63.1942 15.5412 62.9385 15.0874C62.6828 14.6335 62.328 14.2788 61.8742 14.0231C61.4268 13.761 60.9058 13.63 60.3113 13.63C59.6913 13.63 59.1416 13.7738 58.6622 14.0614C58.1892 14.3427 57.8184 14.723 57.55 15.2024C57.2815 15.6754 57.1441 16.2028 57.1377 16.7844V19.191C57.1377 19.9197 57.2719 20.5494 57.5404 21.0799C57.8153 21.6104 58.202 22.0195 58.7005 22.3072C59.1991 22.5948 59.7904 22.7386 60.4743 22.7386C60.9282 22.7386 61.3437 22.6747 61.7208 22.5469C62.0979 22.419 62.4207 22.2273 62.6892 21.9716C62.9577 21.7159 63.1622 21.4027 63.3028 21.032L67.0805 21.2812C66.8888 22.1889 66.4956 22.9815 65.9012 23.6591C65.3131 24.3303 64.5525 24.8544 63.6192 25.2315C62.6924 25.6023 61.6217 25.7876 60.4072 25.7876Z"/>
<path d="M76.1114 25.7876C74.6029 25.7876 73.3053 25.468 72.2187 24.8288C71.1384 24.1832 70.3074 23.2884 69.7258 22.1442C69.1505 21 68.8628 19.6832 68.8628 18.1939C68.8628 16.6854 69.1537 15.3622 69.7353 14.2244C70.3234 13.0803 71.1576 12.1886 72.2378 11.5494C73.3181 10.9038 74.6029 10.581 76.0922 10.581C77.377 10.581 78.502 10.8143 79.4672 11.2809C80.4324 11.7475 81.1963 12.4027 81.7588 13.2464C82.3213 14.0902 82.6313 15.081 82.6888 16.2187H78.8344C78.7258 15.4837 78.4381 14.8924 77.9715 14.445C77.5113 13.9911 76.9072 13.7642 76.1594 13.7642C75.5265 13.7642 74.9736 13.9368 74.5006 14.282C74.034 14.6207 73.6697 15.1161 73.4076 15.7681C73.1455 16.4201 73.0145 17.2095 73.0145 18.1364C73.0145 19.076 73.1423 19.875 73.398 20.5334C73.6601 21.1918 74.0276 21.6935 74.5006 22.0387C74.9736 22.3839 75.5265 22.5565 76.1594 22.5565C76.626 22.5565 77.0447 22.4606 77.4154 22.2688C77.7925 22.0771 78.1025 21.799 78.3454 21.4347C78.5947 21.0639 78.7577 20.6197 78.8344 20.1019H82.6888C82.6249 21.2269 82.3181 22.2177 81.7684 23.0742C81.225 23.9244 80.474 24.5891 79.5152 25.0685C78.5564 25.5479 77.4218 25.7876 76.1114 25.7876Z"/>
<path d="M89.0135 16.9858V25.5H84.929V5.86364H88.8984V13.3711H89.071C89.4034 12.5018 89.9403 11.821 90.6818 11.3288C91.4233 10.8303 92.3533 10.581 93.4719 10.581C94.4947 10.581 95.3864 10.8047 96.147 11.2521C96.9141 11.6932 97.5085 12.3292 97.9304 13.1602C98.3587 13.9847 98.5696 14.9723 98.5632 16.1229V25.5H94.4787V16.8516C94.4851 15.9439 94.255 15.2376 93.7884 14.7326C93.3281 14.2276 92.6825 13.9751 91.8516 13.9751C91.2955 13.9751 90.8033 14.0934 90.375 14.3299C89.9531 14.5664 89.6207 14.9116 89.3778 15.3654C89.1413 15.8129 89.0199 16.353 89.0135 16.9858Z"/>
<path d="M101.326 25.5V23.0646L108.536 14.1381V14.0327H101.575V10.7727H113.455V13.4286L106.686 22.1346V22.2401H113.704V25.5H101.326Z"/>
<path d="M120.652 25.7781C119.712 25.7781 118.875 25.6151 118.14 25.2891C117.405 24.9567 116.823 24.4677 116.395 23.8221C115.973 23.1701 115.762 22.3583 115.762 21.3867C115.762 20.5685 115.912 19.8814 116.213 19.3253C116.513 18.7692 116.922 18.3217 117.44 17.983C117.958 17.6442 118.546 17.3885 119.204 17.2159C119.869 17.0433 120.566 16.9219 121.294 16.8516C122.151 16.7621 122.841 16.679 123.365 16.6023C123.89 16.5192 124.27 16.3977 124.506 16.2379C124.743 16.0781 124.861 15.8416 124.861 15.5284V15.4709C124.861 14.8636 124.669 14.3938 124.286 14.0614C123.909 13.729 123.372 13.5629 122.675 13.5629C121.94 13.5629 121.355 13.7259 120.92 14.0518C120.486 14.3714 120.198 14.7741 120.058 15.2599L116.28 14.9531C116.472 14.0582 116.849 13.2848 117.411 12.6328C117.974 11.9744 118.699 11.4695 119.588 11.1179C120.483 10.7599 121.518 10.581 122.694 10.581C123.512 10.581 124.295 10.6768 125.043 10.8686C125.798 11.0604 126.466 11.3576 127.047 11.7603C127.635 12.163 128.099 12.6808 128.437 13.3136C128.776 13.94 128.946 14.6911 128.946 15.5668V25.5H125.072V23.4577H124.957C124.721 23.918 124.404 24.3239 124.008 24.6754C123.611 25.0206 123.135 25.2923 122.579 25.4904C122.023 25.6822 121.381 25.7781 120.652 25.7781ZM121.822 22.9592C122.423 22.9592 122.953 22.8409 123.413 22.6044C123.874 22.3615 124.235 22.0355 124.497 21.6264C124.759 21.2173 124.89 20.7539 124.89 20.2361V18.6733C124.762 18.7564 124.586 18.8331 124.363 18.9034C124.145 18.9673 123.899 19.0281 123.624 19.0856C123.349 19.1367 123.075 19.1847 122.8 19.2294C122.525 19.2678 122.276 19.3029 122.052 19.3349C121.572 19.4052 121.154 19.517 120.796 19.6705C120.438 19.8239 120.16 20.0316 119.962 20.2937C119.763 20.5494 119.664 20.869 119.664 21.2525C119.664 21.8086 119.866 22.2337 120.268 22.5277C120.678 22.8153 121.195 22.9592 121.822 22.9592Z"/>
</mask>
<path d="M37.5 9.28658V5.86364H53.6271V9.28658H47.6154V25.5H43.5117V9.28658H37.5Z" fill="white"/>
<path d="M60.4072 25.7876C58.8923 25.7876 57.5883 25.4808 56.4953 24.8672C55.4086 24.2472 54.5713 23.3714 53.9832 22.2401C53.3952 21.1023 53.1011 19.7567 53.1011 18.2035C53.1011 16.6886 53.3952 15.359 53.9832 14.2148C54.5713 13.0707 55.3991 12.179 56.4665 11.5398C57.5404 10.9006 58.7996 10.581 60.2442 10.581C61.2158 10.581 62.1203 10.7376 62.9577 11.0508C63.8014 11.3576 64.5365 11.821 65.1629 12.4411C65.7957 13.0611 66.2879 13.8409 66.6395 14.7805C66.991 15.7138 67.1668 16.8068 67.1668 18.0597V19.1815H54.7311V16.6502H63.322C63.322 16.0621 63.1942 15.5412 62.9385 15.0874C62.6828 14.6335 62.328 14.2788 61.8742 14.0231C61.4268 13.761 60.9058 13.63 60.3113 13.63C59.6913 13.63 59.1416 13.7738 58.6622 14.0614C58.1892 14.3427 57.8184 14.723 57.55 15.2024C57.2815 15.6754 57.1441 16.2028 57.1377 16.7844V19.191C57.1377 19.9197 57.2719 20.5494 57.5404 21.0799C57.8153 21.6104 58.202 22.0195 58.7005 22.3072C59.1991 22.5948 59.7904 22.7386 60.4743 22.7386C60.9282 22.7386 61.3437 22.6747 61.7208 22.5469C62.0979 22.419 62.4207 22.2273 62.6892 21.9716C62.9577 21.7159 63.1622 21.4027 63.3028 21.032L67.0805 21.2812C66.8888 22.1889 66.4956 22.9815 65.9012 23.6591C65.3131 24.3303 64.5525 24.8544 63.6192 25.2315C62.6924 25.6023 61.6217 25.7876 60.4072 25.7876Z" fill="white"/>
<path d="M76.1114 25.7876C74.6029 25.7876 73.3053 25.468 72.2187 24.8288C71.1384 24.1832 70.3074 23.2884 69.7258 22.1442C69.1505 21 68.8628 19.6832 68.8628 18.1939C68.8628 16.6854 69.1537 15.3622 69.7353 14.2244C70.3234 13.0803 71.1576 12.1886 72.2378 11.5494C73.3181 10.9038 74.6029 10.581 76.0922 10.581C77.377 10.581 78.502 10.8143 79.4672 11.2809C80.4324 11.7475 81.1963 12.4027 81.7588 13.2464C82.3213 14.0902 82.6313 15.081 82.6888 16.2187H78.8344C78.7258 15.4837 78.4381 14.8924 77.9715 14.445C77.5113 13.9911 76.9072 13.7642 76.1594 13.7642C75.5265 13.7642 74.9736 13.9368 74.5006 14.282C74.034 14.6207 73.6697 15.1161 73.4076 15.7681C73.1455 16.4201 73.0145 17.2095 73.0145 18.1364C73.0145 19.076 73.1423 19.875 73.398 20.5334C73.6601 21.1918 74.0276 21.6935 74.5006 22.0387C74.9736 22.3839 75.5265 22.5565 76.1594 22.5565C76.626 22.5565 77.0447 22.4606 77.4154 22.2688C77.7925 22.0771 78.1025 21.799 78.3454 21.4347C78.5947 21.0639 78.7577 20.6197 78.8344 20.1019H82.6888C82.6249 21.2269 82.3181 22.2177 81.7684 23.0742C81.225 23.9244 80.474 24.5891 79.5152 25.0685C78.5564 25.5479 77.4218 25.7876 76.1114 25.7876Z" fill="white"/>
<path d="M89.0135 16.9858V25.5H84.929V5.86364H88.8984V13.3711H89.071C89.4034 12.5018 89.9403 11.821 90.6818 11.3288C91.4233 10.8303 92.3533 10.581 93.4719 10.581C94.4947 10.581 95.3864 10.8047 96.147 11.2521C96.9141 11.6932 97.5085 12.3292 97.9304 13.1602C98.3587 13.9847 98.5696 14.9723 98.5632 16.1229V25.5H94.4787V16.8516C94.4851 15.9439 94.255 15.2376 93.7884 14.7326C93.3281 14.2276 92.6825 13.9751 91.8516 13.9751C91.2955 13.9751 90.8033 14.0934 90.375 14.3299C89.9531 14.5664 89.6207 14.9116 89.3778 15.3654C89.1413 15.8129 89.0199 16.353 89.0135 16.9858Z" fill="white"/>
<path d="M101.326 25.5V23.0646L108.536 14.1381V14.0327H101.575V10.7727H113.455V13.4286L106.686 22.1346V22.2401H113.704V25.5H101.326Z" fill="white"/>
<path d="M120.652 25.7781C119.712 25.7781 118.875 25.6151 118.14 25.2891C117.405 24.9567 116.823 24.4677 116.395 23.8221C115.973 23.1701 115.762 22.3583 115.762 21.3867C115.762 20.5685 115.912 19.8814 116.213 19.3253C116.513 18.7692 116.922 18.3217 117.44 17.983C117.958 17.6442 118.546 17.3885 119.204 17.2159C119.869 17.0433 120.566 16.9219 121.294 16.8516C122.151 16.7621 122.841 16.679 123.365 16.6023C123.89 16.5192 124.27 16.3977 124.506 16.2379C124.743 16.0781 124.861 15.8416 124.861 15.5284V15.4709C124.861 14.8636 124.669 14.3938 124.286 14.0614C123.909 13.729 123.372 13.5629 122.675 13.5629C121.94 13.5629 121.355 13.7259 120.92 14.0518C120.486 14.3714 120.198 14.7741 120.058 15.2599L116.28 14.9531C116.472 14.0582 116.849 13.2848 117.411 12.6328C117.974 11.9744 118.699 11.4695 119.588 11.1179C120.483 10.7599 121.518 10.581 122.694 10.581C123.512 10.581 124.295 10.6768 125.043 10.8686C125.798 11.0604 126.466 11.3576 127.047 11.7603C127.635 12.163 128.099 12.6808 128.437 13.3136C128.776 13.94 128.946 14.6911 128.946 15.5668V25.5H125.072V23.4577H124.957C124.721 23.918 124.404 24.3239 124.008 24.6754C123.611 25.0206 123.135 25.2923 122.579 25.4904C122.023 25.6822 121.381 25.7781 120.652 25.7781ZM121.822 22.9592C122.423 22.9592 122.953 22.8409 123.413 22.6044C123.874 22.3615 124.235 22.0355 124.497 21.6264C124.759 21.2173 124.89 20.7539 124.89 20.2361V18.6733C124.762 18.7564 124.586 18.8331 124.363 18.9034C124.145 18.9673 123.899 19.0281 123.624 19.0856C123.349 19.1367 123.075 19.1847 122.8 19.2294C122.525 19.2678 122.276 19.3029 122.052 19.3349C121.572 19.4052 121.154 19.517 120.796 19.6705C120.438 19.8239 120.16 20.0316 119.962 20.2937C119.763 20.5494 119.664 20.869 119.664 21.2525C119.664 21.8086 119.866 22.2337 120.268 22.5277C120.678 22.8153 121.195 22.9592 121.822 22.9592Z" fill="white"/>
<path d="M37.5 9.28658V5.86364H53.6271V9.28658H47.6154V25.5H43.5117V9.28658H37.5Z" stroke="white" stroke-width="0.5" mask="url(#path-1-outside-1_0_1684)"/>
<path d="M60.4072 25.7876C58.8923 25.7876 57.5883 25.4808 56.4953 24.8672C55.4086 24.2472 54.5713 23.3714 53.9832 22.2401C53.3952 21.1023 53.1011 19.7567 53.1011 18.2035C53.1011 16.6886 53.3952 15.359 53.9832 14.2148C54.5713 13.0707 55.3991 12.179 56.4665 11.5398C57.5404 10.9006 58.7996 10.581 60.2442 10.581C61.2158 10.581 62.1203 10.7376 62.9577 11.0508C63.8014 11.3576 64.5365 11.821 65.1629 12.4411C65.7957 13.0611 66.2879 13.8409 66.6395 14.7805C66.991 15.7138 67.1668 16.8068 67.1668 18.0597V19.1815H54.7311V16.6502H63.322C63.322 16.0621 63.1942 15.5412 62.9385 15.0874C62.6828 14.6335 62.328 14.2788 61.8742 14.0231C61.4268 13.761 60.9058 13.63 60.3113 13.63C59.6913 13.63 59.1416 13.7738 58.6622 14.0614C58.1892 14.3427 57.8184 14.723 57.55 15.2024C57.2815 15.6754 57.1441 16.2028 57.1377 16.7844V19.191C57.1377 19.9197 57.2719 20.5494 57.5404 21.0799C57.8153 21.6104 58.202 22.0195 58.7005 22.3072C59.1991 22.5948 59.7904 22.7386 60.4743 22.7386C60.9282 22.7386 61.3437 22.6747 61.7208 22.5469C62.0979 22.419 62.4207 22.2273 62.6892 21.9716C62.9577 21.7159 63.1622 21.4027 63.3028 21.032L67.0805 21.2812C66.8888 22.1889 66.4956 22.9815 65.9012 23.6591C65.3131 24.3303 64.5525 24.8544 63.6192 25.2315C62.6924 25.6023 61.6217 25.7876 60.4072 25.7876Z" stroke="white" stroke-width="0.5" mask="url(#path-1-outside-1_0_1684)"/>
<path d="M76.1114 25.7876C74.6029 25.7876 73.3053 25.468 72.2187 24.8288C71.1384 24.1832 70.3074 23.2884 69.7258 22.1442C69.1505 21 68.8628 19.6832 68.8628 18.1939C68.8628 16.6854 69.1537 15.3622 69.7353 14.2244C70.3234 13.0803 71.1576 12.1886 72.2378 11.5494C73.3181 10.9038 74.6029 10.581 76.0922 10.581C77.377 10.581 78.502 10.8143 79.4672 11.2809C80.4324 11.7475 81.1963 12.4027 81.7588 13.2464C82.3213 14.0902 82.6313 15.081 82.6888 16.2187H78.8344C78.7258 15.4837 78.4381 14.8924 77.9715 14.445C77.5113 13.9911 76.9072 13.7642 76.1594 13.7642C75.5265 13.7642 74.9736 13.9368 74.5006 14.282C74.034 14.6207 73.6697 15.1161 73.4076 15.7681C73.1455 16.4201 73.0145 17.2095 73.0145 18.1364C73.0145 19.076 73.1423 19.875 73.398 20.5334C73.6601 21.1918 74.0276 21.6935 74.5006 22.0387C74.9736 22.3839 75.5265 22.5565 76.1594 22.5565C76.626 22.5565 77.0447 22.4606 77.4154 22.2688C77.7925 22.0771 78.1025 21.799 78.3454 21.4347C78.5947 21.0639 78.7577 20.6197 78.8344 20.1019H82.6888C82.6249 21.2269 82.3181 22.2177 81.7684 23.0742C81.225 23.9244 80.474 24.5891 79.5152 25.0685C78.5564 25.5479 77.4218 25.7876 76.1114 25.7876Z" stroke="white" stroke-width="0.5" mask="url(#path-1-outside-1_0_1684)"/>
<path d="M89.0135 16.9858V25.5H84.929V5.86364H88.8984V13.3711H89.071C89.4034 12.5018 89.9403 11.821 90.6818 11.3288C91.4233 10.8303 92.3533 10.581 93.4719 10.581C94.4947 10.581 95.3864 10.8047 96.147 11.2521C96.9141 11.6932 97.5085 12.3292 97.9304 13.1602C98.3587 13.9847 98.5696 14.9723 98.5632 16.1229V25.5H94.4787V16.8516C94.4851 15.9439 94.255 15.2376 93.7884 14.7326C93.3281 14.2276 92.6825 13.9751 91.8516 13.9751C91.2955 13.9751 90.8033 14.0934 90.375 14.3299C89.9531 14.5664 89.6207 14.9116 89.3778 15.3654C89.1413 15.8129 89.0199 16.353 89.0135 16.9858Z" stroke="white" stroke-width="0.5" mask="url(#path-1-outside-1_0_1684)"/>
<path d="M101.326 25.5V23.0646L108.536 14.1381V14.0327H101.575V10.7727H113.455V13.4286L106.686 22.1346V22.2401H113.704V25.5H101.326Z" stroke="white" stroke-width="0.5" mask="url(#path-1-outside-1_0_1684)"/>
<path d="M120.652 25.7781C119.712 25.7781 118.875 25.6151 118.14 25.2891C117.405 24.9567 116.823 24.4677 116.395 23.8221C115.973 23.1701 115.762 22.3583 115.762 21.3867C115.762 20.5685 115.912 19.8814 116.213 19.3253C116.513 18.7692 116.922 18.3217 117.44 17.983C117.958 17.6442 118.546 17.3885 119.204 17.2159C119.869 17.0433 120.566 16.9219 121.294 16.8516C122.151 16.7621 122.841 16.679 123.365 16.6023C123.89 16.5192 124.27 16.3977 124.506 16.2379C124.743 16.0781 124.861 15.8416 124.861 15.5284V15.4709C124.861 14.8636 124.669 14.3938 124.286 14.0614C123.909 13.729 123.372 13.5629 122.675 13.5629C121.94 13.5629 121.355 13.7259 120.92 14.0518C120.486 14.3714 120.198 14.7741 120.058 15.2599L116.28 14.9531C116.472 14.0582 116.849 13.2848 117.411 12.6328C117.974 11.9744 118.699 11.4695 119.588 11.1179C120.483 10.7599 121.518 10.581 122.694 10.581C123.512 10.581 124.295 10.6768 125.043 10.8686C125.798 11.0604 126.466 11.3576 127.047 11.7603C127.635 12.163 128.099 12.6808 128.437 13.3136C128.776 13.94 128.946 14.6911 128.946 15.5668V25.5H125.072V23.4577H124.957C124.721 23.918 124.404 24.3239 124.008 24.6754C123.611 25.0206 123.135 25.2923 122.579 25.4904C122.023 25.6822 121.381 25.7781 120.652 25.7781ZM121.822 22.9592C122.423 22.9592 122.953 22.8409 123.413 22.6044C123.874 22.3615 124.235 22.0355 124.497 21.6264C124.759 21.2173 124.89 20.7539 124.89 20.2361V18.6733C124.762 18.7564 124.586 18.8331 124.363 18.9034C124.145 18.9673 123.899 19.0281 123.624 19.0856C123.349 19.1367 123.075 19.1847 122.8 19.2294C122.525 19.2678 122.276 19.3029 122.052 19.3349C121.572 19.4052 121.154 19.517 120.796 19.6705C120.438 19.8239 120.16 20.0316 119.962 20.2937C119.763 20.5494 119.664 20.869 119.664 21.2525C119.664 21.8086 119.866 22.2337 120.268 22.5277C120.678 22.8153 121.195 22.9592 121.822 22.9592Z" stroke="white" stroke-width="0.5" mask="url(#path-1-outside-1_0_1684)"/>
<path d="M12.3633 12.3633H17.6367V17.6367H12.3633V12.3633Z" fill="white"/>
<path d="M22.9102 7.08984H7.08984V22.9102H22.9102V7.08984ZM19.3945 19.3945H10.6055V10.6055H19.3945V19.3945Z" fill="white"/>
<path d="M30 17.6367H26.4258V15.8789H24.668V21.1523H26.4258V19.3945H30V17.6367Z" fill="white"/>
<path d="M30 10.6055H26.4258V8.84766H24.668V14.1211H26.4258V12.3633H30V10.6055Z" fill="white"/>
<path d="M10.6055 0V3.57422H8.84766V5.33203H14.1211V3.57422H12.3633V0H10.6055Z" fill="white"/>
<path d="M17.6367 0V3.57422H15.8789V5.33203H21.1523V3.57422H19.3945V0H17.6367Z" fill="white"/>
<path d="M12.3633 30V26.4258H14.1211V24.668H8.84766V26.4258H10.6055V30H12.3633Z" fill="white"/>
<path d="M19.3945 30V26.4258H21.1523V24.668H15.8789V26.4258H17.6367V30H19.3945Z" fill="white"/>
<path d="M3.57422 14.1211H5.33203V8.84766H3.57422V10.6055H0V12.3633H3.57422V14.1211Z" fill="white"/>
<path d="M3.57422 21.1523H5.33203V15.8789H3.57422V17.6367H0V19.3945H3.57422V21.1523Z" fill="white"/>
</svg>
