<svg width="151" height="26" viewBox="0 0 151 26" fill="none" xmlns="http://www.w3.org/2000/svg">
<g opacity="0.5" clip-path="url(#clip0_0_1950)">
<path fill-rule="evenodd" clip-rule="evenodd" d="M15.8141 1.96436C13.439 1.96436 11.5138 3.86907 11.5138 6.21862C11.5138 8.5682 13.439 10.4729 15.8141 10.4729C18.1891 10.4729 20.1143 8.5682 20.1143 6.21862C20.1143 3.86907 18.1891 1.96436 15.8141 1.96436ZM7.4061 10.2408C11.8824 10.2408 15.5112 13.8308 15.5112 18.2592V24.8312H11.4797V18.2592C11.4797 17.7874 11.3978 17.3349 11.2473 16.9142L5.32567 22.7727L2.47497 19.9523L8.18563 14.3029C7.93331 14.2545 7.67269 14.2291 7.4061 14.2291H0.763184V10.2408H7.4061ZM24.3223 10.2408C19.8461 10.2408 16.2172 13.8308 16.2172 18.2592V24.8312H20.2487V18.2592C20.2487 17.8898 20.299 17.5319 20.393 17.1921L26.5875 23.3204L29.4383 20.5001L23.2438 14.3719C23.5873 14.2788 23.949 14.2291 24.3223 14.2291H30.9652V10.2408H24.3223Z" fill="currentColor"/>
<path d="M37.4155 25.0614V2.13672H43.9782L51.0145 21.7816H51.5219V2.13672H55.2769V25.0614H48.8496L41.6439 5.38299H41.1704V25.0614H37.4155Z" fill="currentColor"/>
<path d="M70.3181 22.0489L71.2653 21.9487L71.3331 24.6594C68.762 25.1726 66.4842 25.4292 64.4997 25.4292C61.9964 25.4292 60.1922 24.7485 59.0873 23.3877C58.0047 22.0265 57.4634 19.8513 57.4634 16.8617C57.4634 10.9269 59.9103 7.95947 64.8041 7.95947C69.5401 7.95947 71.9082 10.5141 71.9082 15.6233L71.6714 18.2337H61.1845C61.207 19.6171 61.5115 20.6322 62.098 21.2792C62.6842 21.9263 63.7781 22.2496 65.3793 22.2496C66.9804 22.2496 68.6268 22.1829 70.3181 22.0489ZM68.2885 15.4227C68.2885 13.7715 68.0178 12.6225 67.4765 11.9755C66.9581 11.3061 66.0671 10.9715 64.8041 10.9715C63.5413 10.9715 62.6167 11.3173 62.0302 12.009C61.4664 12.7006 61.1731 13.8385 61.1508 15.4227H68.2885Z" fill="currentColor"/>
<path d="M82.863 11.4402H78.1945V18.8028C78.1945 20.1639 78.296 21.0675 78.499 21.5136C78.7019 21.9598 79.2206 22.1831 80.0552 22.1831L82.8291 22.0826L82.9981 24.9941C81.4871 25.2842 80.3371 25.4293 79.5478 25.4293C77.6309 25.4293 76.3115 24.9941 75.5899 24.1241C74.8905 23.2539 74.5412 21.6141 74.5412 19.2046V11.4402H72.376V8.32779H74.5412V3.4751H78.1945V8.32779H82.863V11.4402Z" fill="currentColor"/>
<path d="M82.8784 8.32764H86.4982L89.1705 21.9488H89.847L93.0609 8.66232H96.8497L100.063 21.9488H100.74L103.378 8.32764H107.032L103.446 25.061H97.5938L94.9551 13.5819L92.3166 25.061H86.4643L82.8784 8.32764Z" fill="currentColor"/>
<path d="M109.383 10.1348C110.556 8.68459 112.495 7.95947 115.202 7.95947C117.907 7.95947 119.836 8.68459 120.986 10.1348C122.159 11.585 122.745 13.7604 122.745 16.6609C122.745 19.5612 122.181 21.7477 121.053 23.2202C119.926 24.693 117.976 25.4292 115.202 25.4292C112.428 25.4292 110.476 24.693 109.349 23.2202C108.221 21.7477 107.658 19.5612 107.658 16.6609C107.658 13.7604 108.233 11.585 109.383 10.1348ZM112.156 21.0114C112.675 21.904 113.691 22.3502 115.202 22.3502C116.713 22.3502 117.727 21.904 118.246 21.0114C118.765 20.1191 119.024 18.6578 119.024 16.6273C119.024 14.597 118.742 13.1579 118.179 12.3101C117.637 11.4623 116.644 11.0384 115.202 11.0384C113.758 11.0384 112.755 11.4623 112.191 12.3101C111.65 13.1579 111.378 14.597 111.378 16.6273C111.378 18.6578 111.638 20.1191 112.156 21.0114Z" fill="currentColor"/>
<path d="M124.717 25.061V8.3276H128.37V10.3356C130.287 9.1085 132.204 8.31644 134.121 7.95947V11.6074C132.182 11.9867 130.524 12.4775 129.149 13.0799L128.403 13.3811V25.061H124.717Z" fill="currentColor"/>
<path d="M138.937 25.0611H135.25V1.3667H138.937V15.0546L141.035 14.8538L145.027 8.32778H149.154L144.283 16.159L149.424 25.0611H145.263L141.137 17.9995L138.937 18.2338V25.0611Z" fill="currentColor"/>
</g>
<defs>
<clipPath id="clip0_0_1950">
<rect width="150.116" height="25.3872" fill="currentColor" transform="translate(0.0878906 0.310547)"/>
</clipPath>
</defs>
</svg>
