<svg width="144" height="31" viewBox="0 0 144 31" fill="none" xmlns="http://www.w3.org/2000/svg">
<g opacity="0.5" clip-path="url(#clip0_0_1930)">
<path d="M116.588 2.43262V28.5777H120.456V2.43262H116.588Z" fill="currentColor"/>
<path fill-rule="evenodd" clip-rule="evenodd" d="M81.613 28.9991C80.0866 28.9991 78.8116 28.6474 77.7877 27.9438C77.6756 27.8671 77.5668 27.787 77.4608 27.7039V28.5771H74.0479V2.854H77.9442V13.8737C78.9001 13.2657 80.0565 12.9617 81.4138 12.9617C82.8832 12.9617 84.1629 13.3088 85.2532 14.0027C86.3435 14.6967 87.1872 15.6487 87.7842 16.8586C88.391 18.059 88.6942 19.4329 88.6942 20.9802C88.6942 22.4997 88.3957 23.8642 87.7984 25.0743C87.2109 26.284 86.3859 27.2406 85.3244 27.9438C84.2626 28.6474 83.0255 28.9991 81.613 28.9991ZM77.802 18.5608C77.5742 19.2547 77.4608 20.0611 77.4608 20.9802C77.4608 21.8994 77.5742 22.7061 77.802 23.4C78.0293 24.0941 78.3993 24.6331 78.9109 25.018C79.4324 25.4025 80.1246 25.5945 80.9872 25.5945C81.8213 25.5945 82.5041 25.3883 83.035 24.9757C83.566 24.5631 83.9592 24.0097 84.2151 23.3155C84.4712 22.6123 84.599 21.834 84.599 20.9802C84.599 20.1362 84.4664 19.3673 84.2009 18.6734C83.9355 17.9699 83.5232 17.4118 82.9638 16.9992C82.4139 16.5772 81.7075 16.3662 80.8449 16.3662C80.0391 16.3662 79.3849 16.5584 78.8828 16.9429C78.3898 17.3275 78.0293 17.8667 77.802 18.5608Z" fill="currentColor"/>
<path d="M67.9327 19.6016V28.5771H71.8003V18.589C71.8003 16.9289 71.35 15.5878 70.4494 14.5655C69.5584 13.5339 68.236 13.0181 66.4823 13.0181C65.4583 13.0181 64.5246 13.2431 63.6809 13.6933C62.9084 14.1014 62.2782 14.6624 61.7903 15.3761C61.4264 14.7284 60.9236 14.1956 60.2823 13.7777C59.5145 13.2713 58.5286 13.0181 57.3247 13.0181C56.2723 13.0181 55.3197 13.2478 54.4664 13.7074C53.8217 14.0585 53.2765 14.5055 52.8311 15.0484V13.3838H49.4185V28.5771H53.3145V19.3767C53.3145 18.5046 53.5565 17.7964 54.0399 17.2524C54.5329 16.6991 55.182 16.4225 55.9878 16.4225C56.8317 16.4225 57.4904 16.7038 57.9645 17.2666C58.4479 17.8199 58.6899 18.5984 58.6899 19.6016V28.5771H62.5574V19.3767C62.5574 18.7952 62.6665 18.284 62.8847 17.8433C63.1121 17.3932 63.4248 17.0461 63.8233 16.8023C64.2213 16.5491 64.6906 16.4225 65.231 16.4225C66.0747 16.4225 66.7333 16.7038 67.2073 17.2666C67.6908 17.8199 67.9327 18.5984 67.9327 19.6016Z" fill="currentColor"/>
<path d="M35.5611 28.4232C36.3194 28.8264 37.3005 29.0281 38.5047 29.0281C40.0118 29.0281 41.2586 28.7047 42.2445 28.0575C42.7124 27.7535 43.1248 27.4045 43.4816 27.0113V28.578H46.8945V13.3848H42.9981V21.0939C42.9981 22.0316 42.889 22.7913 42.6712 23.3729C42.4624 23.945 42.1924 24.3811 41.8603 24.6811C41.5286 24.972 41.1732 25.1687 40.7942 25.2721C40.415 25.3753 40.0592 25.4269 39.7276 25.4269C38.9028 25.4269 38.2628 25.2439 37.8077 24.8782C37.3622 24.5124 37.04 24.0577 36.8408 23.5136C36.6419 22.9695 36.5234 22.4302 36.4854 21.8957C36.4474 21.3519 36.4284 20.9064 36.4284 20.5592V13.3848H32.5039V21.9097C32.5039 22.1631 32.5226 22.5663 32.5605 23.1198C32.5985 23.6731 32.7076 24.2872 32.8878 24.9627C33.0677 25.6284 33.3666 26.2709 33.7836 26.89C34.2103 27.5088 34.8028 28.0199 35.5611 28.4232Z" fill="currentColor"/>
<path d="M90.4014 13.3845V28.5779H94.2974V20.8125C94.2974 20.2309 94.3781 19.7104 94.5394 19.2509C94.7006 18.7819 94.9374 18.3787 95.2502 18.0411C95.5632 17.6941 95.9471 17.4174 96.4021 17.2111C96.8572 16.9954 97.3644 16.8688 97.9238 16.8312C98.4923 16.7843 98.99 16.8265 99.4166 16.9579V13.3845C98.9521 13.3284 98.4875 13.319 98.023 13.3565C97.5586 13.3845 97.1082 13.4643 96.6722 13.5956C96.2361 13.7176 95.8332 13.8911 95.4636 14.1161C94.9801 14.3975 94.5725 14.7539 94.2408 15.1853C94.0836 15.3895 93.9413 15.6043 93.814 15.8294V13.3845H90.4014Z" fill="currentColor"/>
<path fill-rule="evenodd" clip-rule="evenodd" d="M107.56 28.9997C105.986 28.9997 104.597 28.6669 103.394 28.0009C102.199 27.3258 101.26 26.4021 100.578 25.2295C99.9048 24.048 99.5684 22.6975 99.5684 21.178C99.5684 19.5182 99.9 18.0738 100.564 16.8451C101.227 15.6166 102.142 14.6646 103.308 13.9894C104.474 13.3047 105.816 12.9624 107.332 12.9624C108.944 12.9624 110.314 13.3376 111.442 14.0878C112.57 14.8381 113.405 15.8932 113.944 17.2531C114.485 18.6132 114.675 20.212 114.514 22.0503H103.73C103.851 22.9623 104.137 23.7031 104.588 24.2729C105.214 25.0422 106.129 25.4266 107.332 25.4266C108.091 25.4266 108.74 25.2624 109.281 24.9342C109.821 24.6061 110.233 24.1324 110.518 23.5133L114.386 24.6107C113.807 25.9987 112.892 27.0771 111.641 27.846C110.399 28.6153 109.039 28.9997 107.56 28.9997ZM109.935 17.3094C110.265 17.7536 110.487 18.3869 110.6 19.2084H103.832C103.983 18.5069 104.235 17.93 104.588 17.4782C105.214 16.681 106.185 16.2824 107.503 16.2824C108.631 16.2824 109.442 16.6248 109.935 17.3094Z" fill="currentColor"/>
<path d="M123.58 28.5777V2.43262H127.448V28.5777H123.58Z" fill="currentColor"/>
<path fill-rule="evenodd" clip-rule="evenodd" d="M131.754 28.3807C132.522 28.7933 133.456 28.9997 134.555 28.9997C135.882 28.9997 136.977 28.7746 137.84 28.3243C138.528 27.9621 139.177 27.4251 139.788 26.7128V28.5777H143.173V19.2929C143.173 18.599 143.144 17.9705 143.087 17.4079C143.03 16.8451 142.85 16.2824 142.547 15.7197C142.006 14.7068 141.21 13.994 140.158 13.5814C139.105 13.1687 137.902 12.9624 136.546 12.9624C134.698 12.9624 133.237 13.3563 132.166 14.1441C131.095 14.9319 130.365 15.9541 129.977 17.2109L133.475 18.3081C133.721 17.6142 134.153 17.1312 134.768 16.8592C135.384 16.5873 135.977 16.4513 136.546 16.4513C137.57 16.4513 138.299 16.6623 138.735 17.0843C139.079 17.4158 139.286 17.8945 139.36 18.521C138.705 18.6191 138.084 18.7124 137.499 18.8005C136.504 18.9413 135.612 19.0914 134.826 19.2507C134.039 19.4102 133.361 19.5932 132.792 19.7994C131.967 20.0994 131.308 20.4748 130.816 20.9249C130.331 21.3657 129.981 21.8765 129.763 22.4581C129.545 23.0397 129.436 23.6822 129.436 24.3855C129.436 25.2295 129.63 26.0032 130.019 26.7067C130.417 27.4006 130.996 27.9586 131.754 28.3807ZM137.171 25.6233C136.688 25.8674 136.091 25.9894 135.38 25.9894C134.934 25.9894 134.55 25.9237 134.228 25.7923C133.906 25.6609 133.655 25.4736 133.475 25.2295C133.304 24.9764 133.219 24.6761 133.219 24.3291C133.219 24.0762 133.271 23.8461 133.375 23.64C133.488 23.4335 133.659 23.2462 133.887 23.0772C134.124 22.899 134.432 22.735 134.812 22.5848C135.143 22.4629 135.527 22.3502 135.963 22.2473C136.399 22.1441 136.973 22.0314 137.684 21.9094C138.141 21.8253 138.687 21.7291 139.324 21.6215C139.315 21.889 139.3 22.1913 139.276 22.5285C139.248 23.0726 139.134 23.5509 138.935 23.9635C138.83 24.179 138.632 24.4465 138.338 24.7653C138.053 25.084 137.665 25.3702 137.171 25.6233Z" fill="currentColor"/>
<path fill-rule="evenodd" clip-rule="evenodd" d="M11.1586 13.4935H0.655273V18.0186C0.655273 24.7755 6.19207 30.2531 13.022 30.2531C19.8521 30.2531 25.389 24.7755 25.389 18.0186V13.4935H14.5468V6.2868C14.5468 3.41742 12.1955 1.09131 9.29509 1.09131C6.39468 1.09131 4.04344 3.41742 4.04344 6.2868H7.43159C7.43159 5.26862 8.26594 4.44324 9.29509 4.44324C10.3243 4.44324 11.1586 5.26862 11.1586 6.2868V13.4935ZM11.1586 16.8454V23.214H14.5468V16.8454H22.0008V18.0186C22.0008 22.9245 17.9808 26.9013 13.022 26.9013C8.06331 26.9013 4.04344 22.9245 4.04344 18.0186V16.8454H11.1586Z" fill="currentColor"/>
</g>
<defs>
<clipPath id="clip0_0_1930">
<rect width="143.493" height="30.9062" fill="currentColor" transform="translate(0.507812)"/>
</clipPath>
</defs>
</svg>
