<svg width="158" height="30" viewBox="0 0 158 30" fill="none" xmlns="http://www.w3.org/2000/svg">
<g opacity="0.5" clip-path="url(#clip0_0_1940)">
<path d="M51.1596 26.3083C48.9092 26.3083 46.9197 25.871 45.1914 24.9964C43.463 24.1017 42.1267 22.8393 41.1823 21.2091C40.2378 19.5788 39.7656 17.6603 39.7656 15.4536C39.7656 13.2468 40.2378 11.3283 41.1823 9.69811C42.1267 8.04798 43.463 6.78558 45.1914 5.91083C46.9197 5.01618 48.9092 4.56885 51.1596 4.56885C52.6871 4.56885 54.0335 4.72792 55.199 5.04601C56.3849 5.34423 57.4698 5.82134 58.4543 6.47743V10.8015C57.5703 10.0858 56.5556 9.56887 55.4101 9.25077C54.2847 8.91279 52.9988 8.74382 51.5518 8.74382C50.2054 8.74382 48.9892 9.02215 47.9042 9.5788C46.8393 10.1156 45.9953 10.8909 45.3723 11.9049C44.7494 12.9187 44.4376 14.1017 44.4376 15.4536C44.4376 16.8254 44.7191 18.0282 45.2816 19.0619C45.8646 20.0758 46.6783 20.8612 47.7233 21.4178C48.7683 21.9745 49.9742 22.2527 51.3406 22.2527C52.5865 22.2527 53.6715 22.0341 54.596 21.5967V17.5709H51.1899V14.2309H59.027V24.2807C57.0375 25.6325 54.4155 26.3083 51.1596 26.3083Z" fill="currentColor"/>
<path d="M60.0854 11.5469H64.4863V13.6046C65.0692 12.9088 65.8829 12.3819 66.9279 12.0241C67.9728 11.6464 69.1587 11.4575 70.4847 11.4575V14.8869C69.0982 14.8869 67.8724 15.0956 66.8073 15.5132C65.7625 15.9306 65.0389 16.5669 64.6369 17.4217V25.8612H60.0854V11.5469Z" fill="currentColor"/>
<path d="M79.2316 26.3082C76.4583 26.3082 74.2777 25.6523 72.6902 24.3401C71.1028 23.0082 70.3091 21.1494 70.3091 18.7636C70.3091 16.3978 71.0125 14.529 72.419 13.1573C73.8458 11.7855 75.8753 11.0996 78.5082 11.0996C80.2361 11.0996 81.7031 11.4177 82.909 12.0539C84.1144 12.69 85.0291 13.5747 85.6521 14.708C86.2751 15.8213 86.5864 17.0837 86.5864 18.4952V20.3144H74.6499C74.9714 22.1433 76.6993 23.0578 79.8341 23.0578C80.7586 23.0578 81.7132 22.9784 82.6977 22.8193C83.6827 22.6602 84.5368 22.4416 85.2604 22.1632V25.3241C84.5569 25.6224 83.6525 25.8612 82.547 26.0398C81.442 26.2189 80.3366 26.3082 79.2316 26.3082ZM82.2757 17.3918C82.2158 16.4376 81.8538 15.702 81.1908 15.1851C80.5278 14.6483 79.6132 14.3799 78.4477 14.3799C77.3023 14.3799 76.3978 14.6483 75.7348 15.1851C75.0718 15.7219 74.7099 16.4575 74.6499 17.3918H82.2757Z" fill="currentColor"/>
<path d="M95.9163 26.3082C93.1433 26.3082 90.9627 25.6523 89.3753 24.3401C87.7878 23.0082 86.9937 21.1494 86.9937 18.7636C86.9937 16.3978 87.6971 14.529 89.104 13.1573C90.5305 11.7855 92.5604 11.0996 95.1927 11.0996C96.9212 11.0996 98.3881 11.4177 99.594 12.0539C100.8 12.69 101.714 13.5747 102.337 14.708C102.96 15.8213 103.271 17.0837 103.271 18.4952V20.3144H91.3344C91.656 22.1433 93.3844 23.0578 96.5192 23.0578C97.4437 23.0578 98.3984 22.9784 99.3828 22.8193C100.367 22.6602 101.222 22.4416 101.945 22.1632V25.3241C101.242 25.6224 100.338 25.8612 99.2321 26.0398C98.1266 26.2189 97.0217 26.3082 95.9163 26.3082ZM98.9608 17.3918C98.9004 16.4376 98.5389 15.702 97.8758 15.1851C97.2124 14.6483 96.2982 14.3799 95.1327 14.3799C93.9873 14.3799 93.0828 14.6483 92.4199 15.1851C91.7564 15.7219 91.3949 16.4575 91.3344 17.3918H98.9608Z" fill="currentColor"/>
<path d="M104.282 11.5469H108.683V13.3064C109.346 12.5708 110.129 12.0241 111.034 11.6663C111.958 11.2884 112.923 11.0996 113.927 11.0996C115.897 11.0996 117.364 11.6264 118.328 12.6801C119.313 13.7139 119.806 15.1155 119.806 16.8849V25.8612H115.254V17.3918C115.254 15.5429 114.39 14.6186 112.661 14.6186C111.897 14.6186 111.185 14.8073 110.521 15.1851C109.858 15.5429 109.296 16.0798 108.833 16.7955V25.8612H104.282V11.5469Z" fill="currentColor"/>
<path d="M123.823 9.34029C123.119 9.34029 122.527 9.11167 122.044 8.65439C121.562 8.19715 121.32 7.6206 121.32 6.92476C121.32 6.24884 121.562 5.68224 122.044 5.22496C122.527 4.74784 123.119 4.50928 123.823 4.50928C124.526 4.50928 125.118 4.74784 125.601 5.22496C126.083 5.68224 126.325 6.24884 126.325 6.92476C126.325 7.6206 126.083 8.19715 125.601 8.65439C125.118 9.11167 124.526 9.34029 123.823 9.34029ZM121.531 11.5471H126.114V25.8614H121.531V11.5471Z" fill="currentColor"/>
<path d="M133.874 26.3082C132.789 26.3082 131.625 26.189 130.378 25.9505C129.152 25.7319 128.187 25.4139 127.484 24.9964V21.4773C128.288 21.9545 129.253 22.3421 130.378 22.6404C131.503 22.9386 132.548 23.0876 133.513 23.0876C134.337 23.0876 134.94 23.0181 135.321 22.8789C135.703 22.7397 135.894 22.4813 135.894 22.1036C135.894 21.8054 135.784 21.5668 135.563 21.3879C135.342 21.1891 135 21.0201 134.537 20.8809C134.096 20.7219 133.352 20.4933 132.307 20.195C131.081 19.8372 130.117 19.4793 129.414 19.1215C128.73 18.7438 128.207 18.2765 127.846 17.7199C127.504 17.1632 127.333 16.4475 127.333 15.5728C127.333 14.0817 127.926 12.9684 129.112 12.2328C130.318 11.4773 131.946 11.0996 133.995 11.0996C135 11.0996 136.035 11.209 137.1 11.4276C138.185 11.6264 139.019 11.8948 139.602 12.2328V15.6622C139.019 15.2845 138.256 14.9763 137.311 14.7378C136.386 14.4992 135.482 14.3799 134.598 14.3799C133.774 14.3799 133.131 14.4594 132.669 14.6186C132.227 14.7775 132.005 15.0758 132.005 15.5132C132.005 15.8909 132.217 16.1791 132.639 16.378C133.08 16.5768 133.895 16.8253 135.081 17.1235L135.683 17.2725C136.949 17.6105 137.934 17.9883 138.637 18.4058C139.341 18.8034 139.833 19.2905 140.115 19.867C140.416 20.4236 140.566 21.1294 140.566 21.9843C140.566 23.2966 139.994 24.3501 138.849 25.1455C137.703 25.9206 136.045 26.3082 133.874 26.3082Z" fill="currentColor"/>
<path d="M141.62 3.82275H146.171V13.1866C146.855 12.4908 147.629 11.9739 148.492 11.6359C149.356 11.2781 150.281 11.0991 151.266 11.0991C153.235 11.0991 154.702 11.626 155.666 12.6797C156.651 13.7135 157.143 15.1151 157.143 16.8844V25.8607H152.592V17.3914C152.592 15.5425 151.727 14.618 150 14.618C149.236 14.618 148.523 14.8069 147.859 15.1846C147.196 15.5425 146.633 16.0792 146.171 16.7949V25.8607H141.62V3.82275Z" fill="currentColor"/>
<path fill-rule="evenodd" clip-rule="evenodd" d="M24.2206 8.04195C24.2206 11.8299 21.1169 14.9008 17.2879 14.9008C13.4589 14.9008 10.3549 11.8299 10.3549 8.04195C10.3549 4.25391 13.4589 1.18311 17.2879 1.18311C21.1169 1.18311 24.2206 4.25391 24.2206 8.04195ZM1.16122 14.4023C8.71455 13.8987 15.2975 19.4933 15.9106 26.9819C15.9742 27.7579 15.9711 28.5237 15.9063 29.2746C8.35294 29.7784 1.77001 24.1836 1.15682 16.6951C1.09332 15.9193 1.09635 15.1531 1.16122 14.4023ZM20.7934 29.0125C28.3627 28.4058 34.0179 21.8932 33.5087 14.4207C32.7497 14.3565 31.9755 14.3535 31.1912 14.4163C23.6217 15.023 17.9667 21.5355 18.4758 29.008C19.2347 29.0723 20.009 29.0754 20.7934 29.0125Z" fill="currentColor"/>
</g>
<defs>
<clipPath id="clip0_0_1940">
<rect width="156.738" height="29.8024" fill="currentColor" transform="translate(0.833984 0.103516)"/>
</clipPath>
</defs>
</svg>
