<svg width="149" height="30" viewBox="0 0 149 30" fill="none" xmlns="http://www.w3.org/2000/svg">
<g opacity="0.5" clip-path="url(#clip0_0_1959)">
<path d="M4.83083 4.32631C6.8382 2.43025 9.56394 1.32357 12.3265 1.18591C13.2721 1.18591 14.2203 1.19153 15.1658 1.18311C15.1176 2.1859 15.1658 3.19151 15.1375 4.19427C15.004 6.43579 14.1665 8.62676 12.7553 10.3852C10.9211 12.7504 8.1159 14.3374 5.13749 14.7474C3.83709 14.9553 2.5168 14.8233 1.2079 14.8598C1.23059 13.7559 1.15963 12.6492 1.24766 11.5481C1.50321 8.8178 2.80644 6.20267 4.83083 4.32631Z" fill="currentColor" fill-opacity="0.2"/>
<path d="M16.0405 1.18311C17.0541 1.19433 18.0678 1.17749 19.0842 1.18872C21.6141 1.36567 24.1098 2.32632 26.0148 3.99206C28.116 5.77571 29.5555 8.32623 29.9248 11.0509C30.0863 12.3149 29.9844 13.593 30.0469 14.8626C29.1608 14.8598 28.2779 14.857 27.3918 14.8626C25.2143 14.8036 23.0734 14.107 21.2506 12.9329C20.4102 12.3374 19.5471 11.7335 18.9168 10.9076C17.534 9.3796 16.5942 7.46109 16.2393 5.43866C15.9724 4.03416 16.0803 2.60164 16.0405 1.18311Z" fill="currentColor"/>
<path d="M1.20873 15.667C2.1088 15.7175 3.01171 15.6248 3.9089 15.7232C7.75045 15.8046 11.4785 17.9394 13.4688 21.1894C14.6102 23.0095 15.2234 25.1669 15.144 27.3102C15.1411 28.0124 15.1525 28.7115 15.1326 29.4113C13.7073 29.3689 12.2678 29.484 10.8567 29.2115C7.72208 28.6892 4.84022 26.8435 3.10537 24.209C1.7908 22.2933 1.13493 19.9535 1.20306 17.6417C1.20306 16.9816 1.20306 16.3243 1.20873 15.667Z" fill="currentColor"/>
<path d="M25.2501 15.964C26.795 15.6241 28.3874 15.6802 29.9577 15.6802L30.026 15.7478C29.9918 17.2168 30.1081 18.7027 29.8101 20.1549C29.1826 23.4133 27.0022 26.3235 24.0691 27.9218C22.2434 28.9274 20.148 29.4215 18.0611 29.3992C17.3939 29.4021 16.7238 29.3878 16.0565 29.4077C16.0565 28.1915 16.0054 26.9695 16.1446 25.7589C16.4682 22.829 18.0696 20.1016 20.3722 18.2589C21.7976 17.1466 23.4728 16.3404 25.2501 15.964Z" fill="currentColor" fill-opacity="0.6"/>
<path d="M41.6811 23.9696C41.6811 24.4641 41.508 24.8826 41.1623 25.2249C40.8354 25.5483 40.4218 25.71 39.9223 25.71C39.4415 25.71 39.0376 25.5483 38.7111 25.2249C38.3842 24.8826 38.2207 24.4641 38.2207 23.9696V6.33842C38.2207 5.84391 38.3842 5.43498 38.7111 5.11167C39.0568 4.76933 39.4799 4.59814 39.9799 4.59814C40.4795 4.59814 40.8834 4.76933 41.1911 5.11167C41.5176 5.43498 41.6811 5.84391 41.6811 6.33842V23.9696Z" fill="currentColor"/>
<path d="M55.5715 10.4468C56.0711 10.4468 56.4846 10.6179 56.8115 10.9603C57.138 11.2836 57.3015 11.6926 57.3015 12.1871V19.4336C57.3015 21.4497 56.7346 23.0473 55.6004 24.2265C54.4657 25.4056 52.8319 25.9955 50.6976 25.9955C48.5638 25.9955 46.9295 25.4056 45.7954 24.2265C44.6803 23.0473 44.1226 21.4497 44.1226 19.4336V12.1871C44.1226 11.6926 44.286 11.2836 44.613 10.9603C44.9399 10.6179 45.353 10.4468 45.853 10.4468C46.353 10.4468 46.766 10.6179 47.093 10.9603C47.4199 11.2836 47.5834 11.6926 47.5834 12.1871V19.4336C47.5834 20.5938 47.8431 21.4591 48.3619 22.0297C48.8811 22.5814 49.6595 22.8571 50.6976 22.8571C51.7554 22.8571 52.5434 22.5814 53.0627 22.0297C53.5815 21.4591 53.8411 20.5938 53.8411 19.4336V12.1871C53.8411 11.6926 54.0046 11.2836 54.3315 10.9603C54.658 10.6179 55.0715 10.4468 55.5715 10.4468Z" fill="currentColor"/>
<path d="M67.7094 10.1621C69.2476 10.1621 70.3817 10.533 71.1125 11.2747C71.8429 11.9975 72.3237 12.9389 72.554 14.0991L72.0641 13.8424L72.2949 13.386C72.5252 12.9484 72.881 12.4825 73.3619 11.988C73.8421 11.4744 74.4191 11.0465 75.0917 10.7042C75.7841 10.3428 76.5529 10.1621 77.3991 10.1621C78.7833 10.1621 79.8311 10.4569 80.5421 11.0465C81.2729 11.6361 81.7725 12.4254 82.0419 13.4144C82.3111 14.3845 82.4457 15.4686 82.4457 16.6668V23.9703C82.4457 24.4648 82.2823 24.8833 81.9553 25.2256C81.6284 25.549 81.2153 25.7108 80.7153 25.7108C80.2157 25.7108 79.8023 25.549 79.4753 25.2256C79.1484 24.8833 78.9848 24.4648 78.9848 23.9703V16.6668C78.9848 16.0392 78.9084 15.4781 78.7545 14.9836C78.6007 14.47 78.3219 14.0612 77.918 13.7568C77.5145 13.4525 76.9376 13.3003 76.188 13.3003C75.4572 13.3003 74.8325 13.4525 74.3133 13.7568C73.7941 14.0612 73.4003 14.47 73.1311 14.9836C72.881 15.4781 72.756 16.0392 72.756 16.6668V23.9703C72.756 24.4648 72.5925 24.8833 72.266 25.2256C71.9391 25.549 71.5256 25.7108 71.026 25.7108C70.526 25.7108 70.1125 25.549 69.786 25.2256C69.4591 24.8833 69.2956 24.4648 69.2956 23.9703V16.6668C69.2956 16.0392 69.2187 15.4781 69.0648 14.9836C68.9109 14.47 68.6321 14.0612 68.2287 13.7568C67.8248 13.4525 67.2478 13.3003 66.4983 13.3003C65.7679 13.3003 65.1429 13.4525 64.6236 13.7568C64.1048 14.0612 63.7105 14.47 63.4413 14.9836C63.1917 15.4781 63.0668 16.0392 63.0668 16.6668V23.9703C63.0668 24.4648 62.9033 24.8833 62.5764 25.2256C62.2494 25.549 61.8364 25.7108 61.3364 25.7108C60.8362 25.7108 60.4233 25.549 60.0964 25.2256C59.7693 24.8833 59.606 24.4648 59.606 23.9703V12.1877C59.606 11.6932 59.7693 11.2842 60.0964 10.9609C60.4233 10.6186 60.8362 10.4474 61.3364 10.4474C61.8364 10.4474 62.2494 10.6186 62.5764 10.9609C62.9033 11.2842 63.0668 11.6932 63.0668 12.1877V13.4144L62.634 13.3289C62.8071 13.0056 63.0475 12.6632 63.3548 12.3018C63.6625 11.9215 64.0375 11.5696 64.4799 11.2462C64.9217 10.9229 65.4121 10.6661 65.9501 10.4759C66.4886 10.2667 67.0752 10.1621 67.7094 10.1621Z" fill="currentColor"/>
<path d="M88.0084 23.9697C88.0084 24.4642 87.8449 24.8827 87.5179 25.2248C87.1914 25.5484 86.778 25.7101 86.2779 25.7101C85.7784 25.7101 85.3649 25.5484 85.0378 25.2248C84.7114 24.8827 84.548 24.4642 84.548 23.9697V12.187C84.548 11.6925 84.7114 11.2836 85.0378 10.9603C85.3649 10.6179 85.7784 10.4467 86.2779 10.4467C86.778 10.4467 87.1914 10.6179 87.5179 10.9603C87.8449 11.2836 88.0084 11.6925 88.0084 12.187V23.9697ZM86.249 8.5923C85.5956 8.5923 85.1341 8.48769 84.8648 8.27845C84.596 8.06924 84.4614 7.69837 84.4614 7.16581V6.62374C84.4614 6.07221 84.6057 5.70128 84.8937 5.51112C85.2014 5.30192 85.6629 5.19727 86.2779 5.19727C86.951 5.19727 87.4222 5.30192 87.691 5.51112C87.9602 5.72031 88.0949 6.09119 88.0949 6.62374V7.16581C88.0949 7.7174 87.9506 8.09779 87.6621 8.30699C87.3741 8.49721 86.9029 8.5923 86.249 8.5923Z" fill="currentColor"/>
<path d="M98.369 10.1621C99.7916 10.1621 100.868 10.4569 101.598 11.0465C102.349 11.6361 102.858 12.4254 103.127 13.4144C103.416 14.3845 103.56 15.4686 103.56 16.6668V23.9703C103.56 24.4648 103.396 24.8833 103.069 25.2256C102.742 25.549 102.329 25.7108 101.829 25.7108C101.33 25.7108 100.916 25.549 100.589 25.2256C100.262 24.8833 100.099 24.4648 100.099 23.9703V16.6668C100.099 16.0392 100.013 15.4781 99.8397 14.9836C99.6858 14.47 99.3974 14.0612 98.9743 13.7568C98.5516 13.4525 97.9458 13.3003 97.1578 13.3003C96.3884 13.3003 95.7351 13.4525 95.1966 13.7568C94.6778 14.0612 94.2739 14.47 93.9854 14.9836C93.7161 15.4781 93.5815 16.0392 93.5815 16.6668V23.9703C93.5815 24.4648 93.4186 24.8833 93.0915 25.2256C92.7646 25.549 92.3511 25.7108 91.8515 25.7108C91.3515 25.7108 90.938 25.549 90.6115 25.2256C90.2846 24.8833 90.1211 24.4648 90.1211 23.9703V12.1877C90.1211 11.6932 90.2846 11.2842 90.6115 10.9609C90.938 10.6186 91.3515 10.4474 91.8515 10.4474C92.3511 10.4474 92.7646 10.6186 93.0915 10.9609C93.4186 11.2842 93.5815 11.6932 93.5815 12.1877V13.4144L93.1492 13.3289C93.3223 13.0056 93.5719 12.6632 93.8988 12.3018C94.2258 11.9215 94.6104 11.5696 95.0523 11.2462C95.4947 10.9229 95.9947 10.6661 96.5519 10.4759C97.1096 10.2667 97.715 10.1621 98.369 10.1621Z" fill="currentColor"/>
<path d="M120.681 18.0933C120.681 19.6529 120.326 21.0318 119.615 22.2301C118.922 23.4093 117.98 24.3317 116.788 24.9972C115.616 25.6632 114.299 25.9961 112.838 25.9961C111.376 25.9961 110.05 25.6632 108.858 24.9972C107.685 24.3317 106.743 23.4093 106.032 22.2301C105.34 21.0318 104.994 19.6529 104.994 18.0933C104.994 16.5336 105.34 15.1643 106.032 13.985C106.743 12.7868 107.685 11.8549 108.858 11.1892C110.05 10.5045 111.376 10.1621 112.838 10.1621C114.299 10.1621 115.616 10.5045 116.788 11.1892C117.98 11.8549 118.922 12.7868 119.615 13.985C120.326 15.1643 120.681 16.5336 120.681 18.0933ZM117.221 18.0933C117.221 17.1233 117.019 16.2864 116.615 15.5827C116.231 14.86 115.702 14.2989 115.029 13.8994C114.375 13.5001 113.645 13.3003 112.838 13.3003C112.031 13.3003 111.29 13.5001 110.617 13.8994C109.963 14.2989 109.434 14.86 109.031 15.5827C108.646 16.2864 108.454 17.1233 108.454 18.0933C108.454 19.0442 108.646 19.8811 109.031 20.6039C109.434 21.3075 109.963 21.8592 110.617 22.2586C111.29 22.658 112.031 22.8577 112.838 22.8577C113.645 22.8577 114.375 22.658 115.029 22.2586C115.702 21.8592 116.231 21.3075 116.615 20.6039C117.019 19.8811 117.221 19.0442 117.221 18.0933Z" fill="currentColor"/>
<path d="M133.579 10.4468C134.079 10.4468 134.493 10.6179 134.82 10.9603C135.147 11.2836 135.31 11.6926 135.31 12.1871V19.4336C135.31 21.4497 134.743 23.0473 133.608 24.2265C132.474 25.4056 130.84 25.9955 128.706 25.9955C126.573 25.9955 124.938 25.4056 123.803 24.2265C122.688 23.0473 122.131 21.4497 122.131 19.4336V12.1871C122.131 11.6926 122.294 11.2836 122.621 10.9603C122.949 10.6179 123.362 10.4468 123.862 10.4468C124.362 10.4468 124.774 10.6179 125.101 10.9603C125.428 11.2836 125.591 11.6926 125.591 12.1871V19.4336C125.591 20.5938 125.851 21.4591 126.371 22.0297C126.889 22.5814 127.667 22.8571 128.706 22.8571C129.764 22.8571 130.552 22.5814 131.07 22.0297C131.589 21.4591 131.85 20.5938 131.85 19.4336V12.1871C131.85 11.6926 132.013 11.2836 132.34 10.9603C132.667 10.6179 133.079 10.4468 133.579 10.4468Z" fill="currentColor"/>
<path d="M136.721 23.3427C136.528 23.0765 136.442 22.7341 136.461 22.3156C136.48 21.8972 136.73 21.5358 137.211 21.2315C137.518 21.0413 137.845 20.9653 138.191 21.0033C138.537 21.0223 138.873 21.1935 139.2 21.5168C139.759 22.0684 140.345 22.4963 140.96 22.8006C141.574 23.105 142.344 23.2571 143.267 23.2571C143.556 23.2381 143.872 23.2001 144.218 23.143C144.565 23.067 144.863 22.9148 145.112 22.6865C145.381 22.4393 145.516 22.0684 145.516 21.5739C145.516 21.1554 145.371 20.8227 145.083 20.5754C144.795 20.328 144.411 20.1189 143.93 19.9477C143.468 19.7765 142.95 19.6149 142.372 19.4627C141.776 19.2915 141.162 19.1014 140.527 18.8921C139.912 18.683 139.345 18.4166 138.826 18.0933C138.307 17.7509 137.883 17.304 137.557 16.7524C137.23 16.2009 137.067 15.5066 137.067 14.6698C137.067 13.7188 137.336 12.9105 137.874 12.2448C138.412 11.5791 139.104 11.0655 139.95 10.7042C140.816 10.3428 141.719 10.1621 142.661 10.1621C143.258 10.1621 143.881 10.2382 144.536 10.3903C145.189 10.5235 145.814 10.7517 146.41 11.0751C147.006 11.3794 147.506 11.7882 147.909 12.3018C148.121 12.5872 148.246 12.9294 148.284 13.3289C148.323 13.7283 148.14 14.0896 147.737 14.413C147.449 14.6412 147.112 14.7458 146.727 14.7267C146.343 14.6888 146.026 14.5557 145.775 14.3274C145.449 13.9089 145.007 13.5761 144.449 13.3289C143.91 13.0817 143.286 12.958 142.574 12.958C142.286 12.958 141.97 12.996 141.623 13.072C141.296 13.1292 141.008 13.2718 140.758 13.5001C140.508 13.7093 140.383 14.0517 140.383 14.5271C140.383 14.9646 140.527 15.3164 140.816 15.5827C141.104 15.83 141.488 16.0392 141.97 16.2103C142.468 16.3626 142.997 16.5147 143.556 16.6668C144.132 16.819 144.718 16.9997 145.314 17.2088C145.91 17.4181 146.458 17.6938 146.958 18.0362C147.458 18.3785 147.862 18.8256 148.17 19.3771C148.476 19.9097 148.631 20.5944 148.631 21.4312C148.631 22.4013 148.342 23.2286 147.766 23.9133C147.188 24.5981 146.467 25.1209 145.602 25.4824C144.738 25.8249 143.853 25.9961 142.95 25.9961C141.815 25.9961 140.681 25.8058 139.547 25.4254C138.412 25.0258 137.47 24.3317 136.721 23.3427Z" fill="currentColor"/>
</g>
<defs>
<clipPath id="clip0_0_1959">
<rect width="147.908" height="29.8024" fill="currentColor" transform="translate(0.875 0.103516)"/>
</clipPath>
</defs>
</svg>
