<svg width="155" height="33" viewBox="0 0 155 33" fill="none" xmlns="http://www.w3.org/2000/svg">
<g clip-path="url(#clip0_0_1917)">
<path d="M0 21.3612L10.9406 16.5439L17.2378 20.1569L18.51 32.0101L10.7498 31.9465L11.8947 23.7063L10.559 22.9458L4.00729 28.0169L0 21.3612Z" fill="currentColor" fill-opacity="0.2"/>
<path d="M17.9382 19.6491L27.6068 26.6847L31.4233 19.9026L23.6628 16.7966V15.2754L31.4233 12.1061L27.6068 5.38721L17.9382 12.4231V19.6491Z" fill="currentColor" fill-opacity="0.6"/>
<path d="M17.2378 11.8532L18.51 0L10.7498 0.126735L11.8947 8.36694L10.559 9.12757L3.94369 4.05667L0 10.6488L10.9406 15.4661L17.2378 11.8532Z" fill="currentColor"/>
<path d="M57.3127 14.5839V25.6884H61.4891V11.5366H55.4067V14.5839H57.3127Z" fill="currentColor"/>
<path d="M57.1838 9.5489C57.5667 9.94481 58.1496 10.1427 58.9326 10.1427C59.7161 10.1427 60.29 9.94481 60.6552 9.5489C61.0385 9.13555 61.2295 8.61901 61.2295 7.99942C61.2295 7.36229 61.0385 6.84579 60.6552 6.44989C60.29 6.03675 59.7161 5.83008 58.9326 5.83008C58.1496 5.83008 57.5667 6.03675 57.1838 6.44989C56.8185 6.84579 56.6357 7.36229 56.6357 7.99942C56.6357 8.61901 56.8185 9.13555 57.1838 9.5489Z" fill="currentColor"/>
<path d="M42.773 25.379C43.9561 25.9127 45.4093 26.1797 47.1318 26.1797C48.7504 26.1797 50.1423 25.9297 51.3087 25.4307C52.4746 24.9316 53.3706 24.2341 53.9971 23.3388C54.6413 22.4263 54.9629 21.3675 54.9629 20.1623C54.9629 18.9916 54.6589 18.0016 54.0497 17.1924C53.4577 16.3661 52.6316 15.7205 51.5695 15.2557C50.508 14.7736 49.2813 14.4723 47.8889 14.3518L46.4273 14.2227C45.5571 14.1537 44.9305 13.9215 44.5478 13.5254C44.1648 13.1295 43.9733 12.6645 43.9733 12.131C43.9733 11.7176 44.0782 11.3389 44.2864 10.9946C44.4955 10.633 44.8086 10.349 45.2264 10.1423C45.6615 9.93585 46.1923 9.83249 46.8188 9.83249C47.4798 9.83249 48.0282 9.95291 48.4632 10.1941C48.559 10.245 48.65 10.2995 48.7353 10.3573L48.7561 10.3717C48.788 10.3935 48.8194 10.4162 48.8501 10.439C49.1144 10.6389 49.3247 10.8757 49.4813 11.1495C49.7072 11.5283 49.8211 11.9501 49.8211 12.415H53.9971C53.9971 11.1753 53.7099 10.0993 53.136 9.18687C52.5617 8.25724 51.7351 7.54277 50.6562 7.04334C49.5943 6.52684 48.3154 6.26855 46.8188 6.26855C45.3915 6.26855 44.1562 6.50978 43.1118 6.99176C42.068 7.45669 41.2501 8.12811 40.6584 9.006C40.0837 9.88406 39.7965 10.9258 39.7965 12.131C39.7965 13.8008 40.3626 15.1437 41.4937 16.1596C42.6246 17.1753 44.1389 17.7607 46.0358 17.9155L47.4716 18.0447C48.6371 18.1481 49.4813 18.3806 50.0035 18.7419C50.5252 19.0863 50.7865 19.5597 50.7865 20.1623C50.7865 20.4392 50.7408 20.699 50.649 20.9416C50.5809 21.1217 50.4877 21.2924 50.3692 21.4537C50.0901 21.815 49.6814 22.0991 49.142 22.306C48.6025 22.5125 47.9325 22.6157 47.1318 22.6157C46.2444 22.6157 45.5222 22.4954 44.9655 22.254C44.4085 21.9959 43.991 21.6602 43.7121 21.2471C43.4512 20.8337 43.321 20.3863 43.321 19.904H39.1704C39.1704 21.1265 39.4748 22.2108 40.0837 23.1579C40.693 24.0878 41.5894 24.8279 42.773 25.379Z" fill="currentColor"/>
<path d="M70.8066 25.87C69.3622 25.87 68.1962 25.6977 67.3089 25.3534C66.4211 24.9917 65.7686 24.3979 65.3509 23.5716C64.9507 22.7278 64.7506 21.5919 64.7506 20.1627V14.5588H62.584V11.5373H64.7506V7.71533H68.6399V11.5373H72.8168V14.5588H68.6399V20.3178C68.6399 20.9893 68.8141 21.5057 69.162 21.867C69.5273 22.2113 70.0409 22.3837 70.7023 22.3837H72.8168V25.87H70.8066Z" fill="currentColor"/>
<path fill-rule="evenodd" clip-rule="evenodd" d="M77.8448 25.5595C78.7843 25.9725 79.8636 26.1794 81.0818 26.1794C82.2821 26.1794 83.3441 25.9725 84.2664 25.5595C85.1888 25.1462 85.9546 24.5694 86.5633 23.8294C87.1726 23.0888 87.5818 22.2451 87.7901 21.2984H83.9529C83.7792 21.7285 83.4485 22.0902 82.9612 22.3828C82.474 22.6756 81.847 22.8218 81.0818 22.8218C80.6075 22.8218 80.1836 22.7664 79.8102 22.6555C79.526 22.571 79.2712 22.4546 79.0457 22.3057C78.5235 21.961 78.1406 21.4789 77.897 20.8594C77.8293 20.6828 77.7715 20.4982 77.7228 20.3058C77.6733 20.111 77.6331 19.9082 77.6029 19.6972H88.0513V18.3027C88.0513 17.0113 87.7728 15.8236 87.2162 14.739C86.6591 13.6368 85.8497 12.7503 84.7886 12.0788C83.7443 11.3902 82.4563 11.0459 80.9248 11.0459C79.7589 11.0459 78.7145 11.2525 77.7922 11.6657C76.888 12.0616 76.1308 12.6039 75.5216 13.2926C74.9128 13.9812 74.4428 14.7647 74.1117 15.6429C73.7986 16.5034 73.6421 17.4073 73.6421 18.3542V18.8707C73.6421 19.7833 73.7986 20.6785 74.1117 21.5566C74.4428 22.4174 74.9128 23.2006 75.5216 23.9066C76.1481 24.5951 76.9221 25.1462 77.8448 25.5595ZM77.6749 17.1436C77.6866 17.0889 77.6986 17.0351 77.712 16.9821C77.7482 16.8361 77.79 16.6962 77.8375 16.5624C77.8642 16.4864 77.8927 16.4121 77.9233 16.34C78.1842 15.7029 78.5671 15.2209 79.0715 14.8938C79.2604 14.7715 79.4648 14.6722 79.6843 14.5957C80.0534 14.4673 80.4673 14.4031 80.9248 14.4031C81.6388 14.4031 82.2299 14.5668 82.6999 14.8938C83.1871 15.2037 83.5528 15.6599 83.7964 16.2624C83.8163 16.3111 83.8348 16.3605 83.8529 16.4107C83.8819 16.4906 83.9086 16.5725 83.9335 16.6565C83.9702 16.7814 84.0025 16.9108 84.031 17.0445C84.0517 17.143 84.0694 17.2439 84.0853 17.3472H77.6348C77.6469 17.2781 77.6602 17.2104 77.6749 17.1436Z" fill="currentColor"/>
<path d="M89.7771 25.6885V11.5366H93.0925V15.101C93.1373 14.8891 93.1886 14.6858 93.246 14.4907C93.2951 14.3265 93.3476 14.168 93.4055 14.0158C93.7712 13.0516 94.3192 12.3286 95.05 11.8465C95.7808 11.3472 96.6769 11.0977 97.7389 11.0977H97.9212C99.0005 11.0977 99.8966 11.3472 100.61 11.8465C101.341 12.3286 101.889 13.0516 102.255 14.0158L102.284 14.0886L102.308 14.155C102.325 14.1081 102.342 14.0617 102.359 14.0158C102.742 13.0516 103.299 12.3286 104.03 11.8465C104.761 11.3472 105.657 11.0977 106.719 11.0977H106.902C107.98 11.0977 108.885 11.3472 109.616 11.8465C110.364 12.3286 110.93 13.0516 111.312 14.0158C111.695 14.9799 111.887 16.1851 111.887 17.6313V25.6885H107.71V17.3988C107.71 16.624 107.502 15.9957 107.084 15.5137C106.684 15.0316 106.109 14.7905 105.361 14.7905C104.613 14.7905 104.021 15.0403 103.586 15.5395C103.151 16.0215 102.933 16.6671 102.933 17.4764V25.6885H98.7306V17.3988C98.7306 16.624 98.5219 15.9957 98.1041 15.5137C97.704 15.0316 97.1383 14.7905 96.4078 14.7905C95.6415 14.7905 95.0414 15.0403 94.6063 15.5395C94.1713 16.0215 93.9535 16.6671 93.9535 17.4764V25.6885H89.7771Z" fill="currentColor"/>
<path fill-rule="evenodd" clip-rule="evenodd" d="M123.042 22.9628V25.6895H126.358V17.0124C126.358 15.7039 126.097 14.6366 125.575 13.8101C125.052 12.9665 124.288 12.3382 123.278 11.925C122.286 11.5118 121.059 11.3052 119.598 11.3052C119.281 11.3052 118.95 11.3085 118.605 11.3153C118.401 11.3195 118.192 11.3247 117.978 11.3309C117.404 11.3482 116.847 11.3739 116.308 11.4085L115.897 11.436C115.685 11.4505 115.486 11.4648 115.298 11.4794C115.158 11.4902 115.025 11.501 114.899 11.5118V14.9982C115.438 14.9637 116.038 14.9291 116.7 14.8949C116.884 14.8853 117.068 14.8764 117.25 14.868C117.512 14.856 117.772 14.8456 118.029 14.8364C118.231 14.8291 118.432 14.8227 118.632 14.8173C119.258 14.8 119.762 14.7915 120.145 14.7915C120.911 14.7915 121.467 14.9722 121.816 15.3338C122.164 15.6954 122.338 16.2377 122.338 16.9609V17.0124H119.754C118.484 17.0124 117.361 17.176 116.387 17.5032C115.412 17.813 114.655 18.3037 114.116 18.9751C113.576 19.6294 113.306 20.4731 113.306 21.5061C113.306 22.453 113.523 23.2707 113.958 23.9593C114.394 24.6307 114.994 25.1473 115.76 25.5085C116.543 25.8703 117.448 26.0512 118.475 26.0512C119.466 26.0512 120.302 25.8703 120.981 25.5085C121.677 25.1473 122.217 24.6307 122.599 23.9593C122.666 23.8462 122.729 23.7289 122.789 23.6069C122.871 23.4345 122.944 23.2528 123.009 23.063L123.042 22.9628ZM122.338 20.4472V19.3109H119.728C118.997 19.3109 118.432 19.4916 118.031 19.8532C117.648 20.1975 117.456 20.671 117.456 21.2735C117.456 21.5572 117.505 21.8149 117.6 22.0474C117.696 22.2803 117.839 22.4871 118.031 22.6681C118.432 23.0127 118.997 23.1846 119.728 23.1846C119.867 23.1846 120.002 23.1778 120.131 23.1641C120.237 23.1535 120.34 23.1377 120.44 23.1176C120.632 23.0788 120.812 23.0238 120.981 22.9522C121.364 22.7802 121.677 22.4961 121.92 22.0998C122.164 21.704 122.303 21.153 122.338 20.4472Z" fill="currentColor"/>
<path d="M128.857 25.6875V11.5357H132.172V16.2069C132.331 14.8734 132.732 13.7982 133.373 12.9819C134.243 11.8973 135.496 11.355 137.132 11.355H137.68V14.9187H136.636C135.487 14.9187 134.6 15.2285 133.974 15.8484C133.347 16.451 133.033 17.329 133.033 18.4824V25.6875H128.857Z" fill="currentColor"/>
<path d="M142.978 19.0778H144.361L148.876 25.6888H153.575L147.849 17.5697L152.557 11.537H148.172L142.978 18.2661V6.83691H138.801V25.6888H142.978V19.0778Z" fill="currentColor"/>
</g>
<defs>
<clipPath id="clip0_0_1917">
<rect width="154.531" height="32.01" fill="currentColor"/>
</clipPath>
</defs>
</svg>
