<svg width="51" height="51" viewBox="0 0 51 51" fill="none" xmlns="http://www.w3.org/2000/svg">
<path d="M26.5858 0.949219H0.664551V10.4559H22.2656C22.7516 9.9216 24.2961 8.12344 26.5858 5.20511C28.8755 2.28679 27.5399 1.15188 26.5858 0.949219Z" fill="#043A99"/>
<path d="M18.0537 15.4302H0.34082V35.7148C0.34082 41.1535 6.82114 47.5244 10.0613 50.03V25.0474H18.7017C19.393 25.0474 19.5658 24.3104 19.5658 23.942V18.5806C19.5658 16.0603 18.5577 15.4302 18.0537 15.4302Z" fill="#043A99"/>
<path d="M50.2392 12.9989V27.1484H49.4832L41.2208 16.9232C40.8068 16.2599 39.5899 15.2098 38.0346 16.3152C36.4793 17.4206 37.3866 19.2814 38.0346 20.0737L47.4311 32.4544C53.2202 37.6721 49.0512 45.1669 46.243 48.262C39.3307 53.6565 32.4183 49.6991 29.8262 47.0461L15.0835 29.5251H27.0721L36.6846 40.4135C37.6566 41.2426 38.4666 41.5189 39.7627 40.5241C40.7996 39.7282 40.4827 38.3501 40.1947 37.7605C38.4666 35.6602 33.6712 29.8899 28.3141 23.611C22.9571 17.3322 27.5941 10.0143 30.5823 7.14017C40.0003 0.596049 47.6111 8.3193 50.2392 12.9989Z" fill="#043A99"/>
</svg>
