<svg width="70" height="70" viewBox="0 0 70 70" fill="none" xmlns="http://www.w3.org/2000/svg">
<path d="M49.7095 23.3514C47.9523 23.0733 46.2802 22.4034 44.817 21.3914C43.3538 20.3793 42.1371 19.051 41.257 17.5049C41.1114 17.2495 40.9009 17.0371 40.6467 16.8895C40.3925 16.7418 40.1037 16.664 39.8098 16.6641H30.1888C29.8946 16.664 29.6057 16.7419 29.3514 16.8897C29.0971 17.0376 28.8865 17.2502 28.741 17.5059C27.8608 19.0518 26.6442 20.3799 25.1811 21.3917C23.7181 22.4036 22.0461 23.0734 20.2891 23.3514C19.8987 23.415 19.5437 23.6154 19.2875 23.9167C19.0313 24.218 18.8906 24.6006 18.8906 24.9961V36.7934C18.8906 46.3776 25.8686 53.3252 34.7183 53.3252H35.2298C44.0751 53.3252 51.1079 46.458 51.1079 36.7934V24.9961C51.1079 24.6006 50.9673 24.218 50.7111 23.9167C50.4549 23.6154 50.0999 23.415 49.7095 23.3514ZM43.9541 31.729L34.5111 41.172C34.3564 41.3268 34.1727 41.4496 33.9705 41.5334C33.7684 41.6171 33.5517 41.6602 33.3329 41.6602C33.114 41.6602 32.8974 41.6171 32.6952 41.5334C32.493 41.4496 32.3094 41.3268 32.1547 41.172L27.1554 36.1728C26.8429 35.8603 26.6674 35.4365 26.6674 34.9946C26.6674 34.5527 26.8429 34.1289 27.1554 33.8164C27.4679 33.5039 27.8917 33.3283 28.3336 33.3283C28.7755 33.3283 29.1994 33.5039 29.5118 33.8164L33.3329 37.6374L41.5977 29.3726C41.9102 29.0601 42.334 28.8846 42.7759 28.8846C43.2178 28.8846 43.6416 29.0601 43.9541 29.3726C44.2666 29.6851 44.4421 30.1089 44.4421 30.5508C44.4421 30.9928 44.2666 31.4166 43.9541 31.729V31.729Z" fill="#1268FB"/>
<path d="M68.3282 33.3283C68.7702 33.3283 69.1941 33.1527 69.5066 32.8402C69.8191 32.5277 69.9946 32.1038 69.9946 31.6618C69.9946 31.2199 69.8191 30.796 69.5066 30.4835C69.1941 30.171 68.7702 29.9954 68.3282 29.9954H57.7743V21.5169C57.7751 20.5335 57.4029 19.5864 56.7328 18.8666C56.0627 18.1468 55.1447 17.7079 54.1637 17.6384C53.2498 17.5837 52.3431 17.4426 51.4559 17.2169L53.2546 12.7206C53.4451 12.2437 53.7745 11.8351 54.2001 11.5478C54.6257 11.2605 55.1279 11.1078 55.6414 11.1094H58.0113C58.4135 12.5283 59.3153 13.7538 60.5504 14.5599C61.7854 15.3659 63.2703 15.698 64.731 15.495C66.1918 15.292 67.5298 14.5674 68.4982 13.4551C69.4666 12.3428 70 10.9178 70 9.44301C70 7.96822 69.4666 6.54319 68.4982 5.43088C67.5298 4.31857 66.1918 3.59405 64.731 3.39101C63.2703 3.18797 61.7854 3.52011 60.5504 4.32614C59.3153 5.13218 58.4135 6.35771 58.0113 7.7766H55.6414C54.462 7.7732 53.3089 8.12445 52.3317 8.78475C51.3545 9.44505 50.5984 10.3839 50.1615 11.4794L48.444 15.774C46.9514 14.5756 45.8454 12.9636 45.2643 11.1398C45.1538 10.8075 44.9416 10.5185 44.6577 10.3137C44.3738 10.1088 44.0326 9.99853 43.6825 9.99848H39.9992V1.66641C39.9992 1.22445 39.8236 0.800594 39.5111 0.488081C39.1986 0.175568 38.7748 0 38.3328 0C37.8908 0 37.467 0.175568 37.1545 0.488081C36.8419 0.800594 36.6664 1.22445 36.6664 1.66641V9.99848H33.3336V1.66641C33.3336 1.22445 33.158 0.800594 32.8455 0.488081C32.533 0.175568 32.1091 0 31.6671 0C31.2252 0 30.8013 0.175568 30.4888 0.488081C30.1763 0.800594 30.0007 1.22445 30.0007 1.66641V9.99848H26.3159C25.9593 9.99852 25.6122 10.1129 25.3254 10.3247C25.0387 10.5366 24.8274 10.8348 24.7226 11.1756C24.222 13.0251 23.1057 14.6486 21.558 15.7781L19.8368 11.475C19.3995 10.3805 18.6434 9.44268 17.6666 8.78319C16.6897 8.1237 15.5372 7.773 14.3586 7.7766H11.9887C11.5865 6.35771 10.6847 5.13218 9.44965 4.32614C8.21461 3.52011 6.72971 3.18797 5.26896 3.39101C3.80822 3.59405 2.4702 4.31857 1.5018 5.43088C0.53341 6.54319 0 7.96822 0 9.44301C0 10.9178 0.53341 12.3428 1.5018 13.4551C2.4702 14.5674 3.80822 15.292 5.26896 15.495C6.72971 15.698 8.21461 15.3659 9.44965 14.5599C10.6847 13.7538 11.5865 12.5283 11.9887 11.1094H14.3586C14.8714 11.1076 15.3729 11.2598 15.7983 11.5463C16.2236 11.8327 16.5532 12.2403 16.7443 12.7162L18.5197 17.1545C17.6333 17.3988 16.7251 17.5555 15.808 17.6221C14.8343 17.7016 13.9258 18.1437 13.2625 18.8609C12.5991 19.5781 12.2291 20.5182 12.2257 21.4952V29.9954H1.6717C1.22974 29.9954 0.805885 30.171 0.493372 30.4835C0.180859 30.796 0.00529099 31.2199 0.00529099 31.6618C0.00529099 32.1038 0.180859 32.5277 0.493372 32.8402C0.805885 33.1527 1.22974 33.3283 1.6717 33.3283H12.2257V36.6611H1.6717C1.22974 36.6611 0.805885 36.8367 0.493372 37.1492C0.180859 37.4617 0.00529099 37.8855 0.00529099 38.3275C0.00529099 38.7695 0.180859 39.1933 0.493372 39.5058C0.805885 39.8183 1.22974 39.9939 1.6717 39.9939H12.4528C12.9735 44.8753 15.0774 49.4521 18.4432 53.0257L16.7459 57.2688C16.5552 57.7457 16.2257 58.1542 15.8 58.4415C15.3743 58.7288 14.8721 58.8815 14.3586 58.8799H11.9887C11.5865 57.461 10.6847 56.2355 9.44965 55.4295C8.21461 54.6234 6.72971 54.2913 5.26896 54.4943C3.80822 54.6974 2.4702 55.4219 1.5018 56.5342C0.53341 57.6465 0 59.0716 0 60.5463C0 62.0211 0.53341 63.4462 1.5018 64.5585C2.4702 65.6708 3.80822 66.3953 5.26896 66.5983C6.72971 66.8014 8.21461 66.4692 9.44965 65.6632C10.6847 64.8572 11.5865 63.6316 11.9887 62.2128H14.3586C15.5379 62.2162 16.6911 61.8649 17.6683 61.2046C18.6455 60.5443 19.4016 59.6055 19.8384 58.51L21.0881 55.3857C23.7151 57.4009 26.7608 58.8007 30.0007 59.4822V68.3229C30.0007 68.7649 30.1763 69.1888 30.4888 69.5013C30.8013 69.8138 31.2252 69.9894 31.6671 69.9894C32.1091 69.9894 32.533 69.8138 32.8455 69.5013C33.158 69.1888 33.3336 68.7649 33.3336 68.3229V59.9442C33.846 59.9768 34.3225 59.9909 34.7494 59.9909H35.2506C35.6776 59.9909 36.1541 59.9766 36.6664 59.9441V68.3229C36.6664 68.7649 36.8419 69.1888 37.1545 69.5013C37.467 69.8138 37.8908 69.9894 38.3328 69.9894C38.7748 69.9894 39.1986 69.8138 39.5111 69.5013C39.8236 69.1888 39.9992 68.7649 39.9992 68.3229V59.4826C43.2383 58.8024 46.2833 57.4036 48.9097 55.3895L50.1626 58.5143C50.6 59.6088 51.3563 60.5466 52.3332 61.2061C53.3101 61.8656 54.4627 62.2163 55.6414 62.2128H58.0113C58.4135 63.6316 59.3153 64.8572 60.5504 65.6632C61.7854 66.4692 63.2703 66.8014 64.731 66.5983C66.1918 66.3953 67.5298 65.6708 68.4982 64.5585C69.4666 63.4462 70 62.0211 70 60.5463C70 59.0716 69.4666 57.6465 68.4982 56.5342C67.5298 55.4219 66.1918 54.6974 64.731 54.4943C63.2703 54.2913 61.7854 54.6234 60.5504 55.4295C59.3153 56.2355 58.4135 57.461 58.0113 58.8799H55.6414C55.1283 58.8817 54.6265 58.7293 54.2011 58.4424C53.7757 58.1555 53.4463 57.7474 53.2557 57.271L51.5541 53.0267C54.8888 49.4316 56.9883 44.8656 57.5466 39.9939H68.3282C68.7702 39.9939 69.1941 39.8183 69.5066 39.5058C69.8191 39.1933 69.9946 38.7695 69.9946 38.3275C69.9946 37.8855 69.8191 37.4617 69.5066 37.1492C69.1941 36.8367 68.7702 36.6611 68.3282 36.6611H57.7743V33.3283H68.3282ZM63.8845 6.66565C64.4338 6.66565 64.9707 6.82854 65.4275 7.13372C65.8842 7.4389 66.2402 7.87266 66.4504 8.38016C66.6606 8.88766 66.7156 9.44609 66.6085 9.98484C66.5013 10.5236 66.2368 11.0185 65.8484 11.4069C65.4599 11.7953 64.965 12.0598 64.4263 12.167C63.8875 12.2742 63.3291 12.2192 62.8216 12.009C62.3141 11.7987 61.8804 11.4428 61.5752 10.986C61.27 10.5293 61.1071 9.99232 61.1071 9.44301C61.1078 8.70662 61.4006 8.00058 61.9213 7.47987C62.442 6.95916 63.1481 6.66633 63.8845 6.66565ZM6.11547 12.2204C5.56616 12.2204 5.02919 12.0575 4.57246 11.7523C4.11572 11.4471 3.75974 11.0134 3.54953 10.5059C3.33932 9.99836 3.28432 9.43993 3.39148 8.90117C3.49865 8.36242 3.76317 7.86754 4.15159 7.47912C4.54001 7.0907 5.03488 6.82618 5.57364 6.71902C6.11239 6.61185 6.67083 6.66685 7.17832 6.87707C7.68582 7.08728 8.11958 7.44326 8.42476 7.89999C8.72994 8.35673 8.89283 8.8937 8.89283 9.44301C8.89205 10.1794 8.59919 10.8854 8.0785 11.406C7.55782 11.9267 6.85184 12.2196 6.11547 12.2204ZM6.11547 63.3237C5.56616 63.3237 5.02919 63.1608 4.57246 62.8556C4.11572 62.5505 3.75974 62.1167 3.54953 61.6092C3.33932 61.1017 3.28432 60.5433 3.39148 60.0045C3.49865 59.4658 3.76317 58.9709 4.15159 58.5825C4.54001 58.194 5.03488 57.9295 5.57364 57.8224C6.11239 57.7152 6.67083 57.7702 7.17832 57.9804C7.68582 58.1906 8.11958 58.5466 8.42476 59.0033C8.72994 59.4601 8.89283 59.997 8.89283 60.5463C8.89205 61.2827 8.59919 61.9887 8.0785 62.5094C7.55782 63.0301 6.85184 63.3229 6.11547 63.3237ZM63.8845 57.769C64.4338 57.769 64.9707 57.9319 65.4275 58.2371C65.8842 58.5422 66.2402 58.976 66.4504 59.4835C66.6606 59.991 66.7156 60.5494 66.6085 61.0882C66.5013 61.6269 66.2368 62.1218 65.8484 62.5102C65.4599 62.8987 64.965 63.1632 64.4263 63.2703C63.8875 63.3775 63.3291 63.3225 62.8216 63.1123C62.3141 62.9021 61.8804 62.5461 61.5752 62.0894C61.27 61.6326 61.1071 61.0957 61.1071 60.5463C61.1078 59.81 61.4006 59.1039 61.9213 58.5832C62.442 58.0625 63.1481 57.7697 63.8845 57.769ZM35.2506 56.658H34.7494C24.2111 56.658 15.5585 48.4028 15.5585 36.7934V21.4952C15.558 21.3575 15.6094 21.2246 15.7023 21.1229C15.7953 21.0212 15.923 20.9582 16.0602 20.9462C21.32 20.5485 25.494 18.2571 27.4913 13.3313H42.5346C44.6458 18.2431 48.591 20.6181 53.9478 20.9647C54.0847 20.9771 54.2118 21.041 54.3035 21.1435C54.3951 21.246 54.4444 21.3795 54.4414 21.5169V36.7935C54.4415 48.3364 45.8339 56.658 35.2506 56.658Z" fill="#010E37"/>
</svg>
