<svg width="71" height="70" viewBox="0 0 71 70" fill="none" xmlns="http://www.w3.org/2000/svg">
<path d="M45.2043 51.9359C50.8162 51.9359 55.3656 47.3865 55.3656 41.7746C55.3656 36.1627 50.8162 31.6133 45.2043 31.6133C39.5923 31.6133 35.043 36.1627 35.043 41.7746C35.043 47.3865 39.5923 51.9359 45.2043 51.9359Z" fill="#1268FB" fill-opacity="0.5"/>
<path d="M68.1601 17.2247C65.1731 19.9048 61.3166 21.4125 57.3039 21.4688C53.2912 21.525 49.3939 20.1261 46.333 17.5307V29.4129C49.4181 29.6931 52.2869 31.1167 54.376 33.4041C56.4651 35.6914 57.6234 38.6773 57.6234 41.7751C57.6234 44.8729 56.4651 47.8587 54.376 50.1461C52.2869 52.4335 49.4181 53.8571 46.333 54.1372V66.6138C46.333 66.9132 46.2141 67.2004 46.0023 67.4122C45.7906 67.6239 45.5034 67.7428 45.204 67.7428C44.9045 67.7428 44.6174 67.6239 44.4056 67.4122C44.1939 67.2004 44.0749 66.9132 44.0749 66.6138V54.1372C40.9898 53.8571 38.121 52.4335 36.0319 50.1461C33.9429 47.8587 32.7846 44.8729 32.7846 41.7751C32.7846 38.6773 33.9429 35.6914 36.0319 33.4041C38.121 31.1167 40.9898 29.6931 44.0749 29.4129V17.5307C41.0141 20.1261 37.1168 21.525 33.104 21.4688C29.0913 21.4125 25.2348 19.9048 22.2479 17.2247C22.0854 17.0795 21.8844 16.9845 21.6691 16.951C21.4538 16.9175 21.2334 16.9469 21.0345 17.0357C20.8355 17.1246 20.6665 17.269 20.5478 17.4517C20.429 17.6344 20.3657 17.8475 20.3652 18.0654V34.4678C20.3941 42.1516 22.7424 49.6477 27.1026 55.9747C31.4628 62.3016 37.6319 67.1646 44.802 69.927C45.0609 70.0255 45.3469 70.0255 45.6058 69.927C52.776 67.1647 58.9451 62.3017 63.3053 55.9747C67.6656 49.6477 70.0138 42.1516 70.0427 34.4678V18.0654C70.0423 17.8475 69.9789 17.6344 69.8602 17.4517C69.7414 17.269 69.5724 17.1245 69.3735 17.0357C69.1745 16.9469 68.9542 16.9174 68.7389 16.951C68.5236 16.9845 68.3226 17.0795 68.1601 17.2247Z" fill="#1268FB" fill-opacity="0.5"/>
<path d="M45.2032 35C43.7974 35 42.427 35.4401 41.2842 36.2587L38.4593 33.4338V31.6129H41.8161C44.511 31.6129 47.0956 30.5423 49.0012 28.6367C50.9068 26.7311 51.9774 24.1465 51.9774 21.4516C51.9774 18.7566 50.9068 16.1721 49.0012 14.2664C47.0956 12.3608 44.511 11.2903 41.8161 11.2903H41.4219C40.4578 9.60552 39.0729 8.19985 37.4027 7.21073C35.7326 6.22162 33.8342 5.68293 31.8935 5.64736C30.4844 3.47986 28.4338 1.80639 26.0278 0.860561C23.6218 -0.0852696 20.9805 -0.256257 18.4727 0.371468C15.9648 0.999192 13.7155 2.3943 12.0388 4.36204C10.3621 6.32979 9.34162 8.77196 9.11984 11.3477C6.53371 11.6252 4.15244 12.8838 2.46643 14.8643C0.78041 16.8448 -0.0819783 19.3964 0.0568583 21.9937C0.195695 24.591 1.32519 27.0361 3.21273 28.8256C5.10027 30.6151 7.60214 31.6127 10.2031 31.6129H13.5599V33.4338L10.735 36.2587C9.34652 35.2706 7.63751 34.8403 5.94672 35.0531C4.25593 35.2659 2.70681 36.1062 1.60645 37.4074C0.50609 38.7087 -0.0651682 40.3759 0.00591977 42.0785C0.0770077 43.7812 0.785252 45.3949 1.99025 46.5999C3.19525 47.8049 4.80903 48.5132 6.51167 48.5843C8.21431 48.6554 9.88151 48.0841 11.1828 46.9837C12.484 45.8834 13.3243 44.3343 13.5371 42.6435C13.7498 40.9527 13.3195 39.2437 12.3315 37.8552L15.4871 34.6996C15.6989 34.4879 15.8179 34.2008 15.8179 33.9013V31.6129H24.8806V35.102C23.2057 35.3851 21.6984 36.287 20.6572 37.629C19.6161 38.9711 19.1171 40.6553 19.2591 42.3479C19.4012 44.0405 20.1739 45.618 21.4242 46.7678C22.6744 47.9175 24.311 48.5556 26.0096 48.5556C27.7081 48.5556 29.3447 47.9175 30.595 46.7678C31.8453 45.618 32.618 44.0405 32.7601 42.3479C32.9021 40.6553 32.4031 38.9711 31.3619 37.629C30.3208 36.287 28.8134 35.3851 27.1386 35.102V31.6129H36.2012V33.9013C36.2013 34.2007 36.3203 34.4878 36.532 34.6995L39.6877 37.8551C38.8108 39.0929 38.3751 40.5894 38.4506 42.1045C38.5261 43.6196 39.1085 45.0653 40.1042 46.2098C41.1 47.3542 42.4513 48.1309 43.9414 48.4152C45.4314 48.6995 46.9738 48.4749 48.321 47.7776C49.6681 47.0802 50.7419 45.9504 51.37 44.5696C51.9981 43.1888 52.144 41.637 51.7844 40.1633C51.4248 38.6896 50.5805 37.3794 49.3871 36.443C48.1936 35.5067 46.7201 34.9985 45.2032 35ZM6.81601 46.2903C5.92281 46.2903 5.04966 46.0254 4.30699 45.5292C3.56431 45.033 2.98547 44.3276 2.64365 43.5024C2.30184 42.6772 2.2124 41.7692 2.38666 40.8931C2.56091 40.0171 2.99103 39.2124 3.62263 38.5808C4.25422 37.9492 5.05892 37.5191 5.93496 37.3448C6.81101 37.1706 7.71905 37.26 8.54426 37.6018C9.36948 37.9436 10.0748 38.5225 10.571 39.2651C11.0673 40.0078 11.3321 40.881 11.3321 41.7742C11.3308 42.9715 10.8545 44.1194 10.0079 44.9661C9.16125 45.8127 8.01335 46.2889 6.81601 46.2903ZM30.5257 41.7742C30.5257 42.6674 30.2608 43.5405 29.7646 44.2832C29.2684 45.0259 28.563 45.6047 27.7378 45.9465C26.9126 46.2884 26.0046 46.3778 25.1285 46.2035C24.2525 46.0293 23.4478 45.5992 22.8162 44.9676C22.1846 44.336 21.7545 43.5313 21.5802 42.6552C21.406 41.7792 21.4954 40.8711 21.8372 40.0459C22.179 39.2207 22.7579 38.5154 23.5006 38.0191C24.2432 37.5229 25.1164 37.258 26.0096 37.258C27.2069 37.2594 28.3548 37.7357 29.2015 38.5823C30.0481 39.4289 30.5243 40.5768 30.5257 41.7742ZM10.2031 29.3548C8.10705 29.3548 6.09683 28.5221 4.61468 27.04C3.13254 25.5579 2.29988 23.5476 2.29988 21.4516C2.29988 19.3555 3.13254 17.3453 4.61468 15.8631C6.09683 14.381 8.10705 13.5483 10.2031 13.5483C10.5026 13.5483 10.7897 13.4294 11.0015 13.2177C11.2132 13.0059 11.3321 12.7187 11.3321 12.4193C11.3308 10.1811 12.0689 8.00518 13.4318 6.22974C14.7946 4.4543 16.7058 3.17882 18.8683 2.60156C21.0308 2.02431 23.3234 2.17762 25.3897 3.03766C27.4561 3.89771 29.1804 5.41631 30.2947 7.3574C30.3963 7.53662 30.5455 7.6842 30.7258 7.78375C30.9061 7.8833 31.1105 7.93094 31.3163 7.92136C33.053 7.85221 34.7725 8.28777 36.2669 9.17535C37.7612 10.0629 38.9664 11.3645 39.7366 12.9226C40.1834 13.82 41.2364 13.4739 41.8161 13.5483C43.9121 13.5483 45.9223 14.381 47.4045 15.8631C48.8866 17.3453 49.7193 19.3555 49.7193 21.4516C49.7193 23.5476 48.8866 25.5579 47.4045 27.04C45.9223 28.5221 43.9121 29.3548 41.8161 29.3548H10.2031ZM45.2032 46.2903C44.3099 46.2903 43.4368 46.0254 42.6941 45.5292C41.9514 45.033 41.3726 44.3276 41.0308 43.5024C40.689 42.6772 40.5995 41.7692 40.7738 40.8931C40.9481 40.0171 41.3782 39.2124 42.0098 38.5808C42.6414 37.9492 43.4461 37.5191 44.3221 37.3448C45.1981 37.1706 46.1062 37.26 46.9314 37.6018C47.7566 37.9436 48.4619 38.5225 48.9582 39.2651C49.4544 40.0078 49.7193 40.881 49.7193 41.7742C49.7179 42.9715 49.2417 44.1194 48.395 44.9661C47.5484 45.8127 46.4005 46.2889 45.2032 46.2903Z" fill="#002699"/>
</svg>
