<svg width="70" height="70" viewBox="0 0 70 70" fill="none" xmlns="http://www.w3.org/2000/svg">
<path d="M20.5556 33.334H5C3.67436 33.3354 2.40343 33.8627 1.46606 34.8C0.528692 35.7374 0.00144406 37.0083 0 38.334V65.0007C0.00144406 66.3263 0.528692 67.5972 1.46606 68.5346C2.40343 69.472 3.67436 69.9992 5 70.0007H20.5556C21.8812 69.9992 23.1521 69.472 24.0895 68.5346C25.0269 67.5972 25.5541 66.3263 25.5556 65.0007V38.334C25.5541 37.0083 25.0269 35.7374 24.0895 34.8C23.1521 33.8627 21.8812 33.3354 20.5556 33.334ZM22.2222 65.0007C22.2217 65.4425 22.046 65.8662 21.7335 66.1786C21.4211 66.4911 20.9974 66.6668 20.5556 66.6673H5C4.55812 66.6668 4.13448 66.4911 3.82202 66.1786C3.50957 65.8662 3.33382 65.4425 3.33333 65.0007V64.4451H22.2222V65.0007ZM7.22222 50.0007H18.3333C18.7754 50.0007 19.1993 50.1762 19.5118 50.4888C19.8244 50.8014 20 51.2253 20 51.6673C20 52.1093 19.8244 52.5333 19.5118 52.8458C19.1993 53.1584 18.7754 53.334 18.3333 53.334H7.22222C6.78019 53.334 6.35627 53.1584 6.04371 52.8458C5.73115 52.5333 5.55556 52.1093 5.55556 51.6673C5.55556 51.2253 5.73115 50.8014 6.04371 50.4888C6.35627 50.1762 6.78019 50.0007 7.22222 50.0007ZM5.55556 46.1118C5.55552 45.8929 5.59861 45.6761 5.68235 45.4739C5.7661 45.2717 5.88886 45.0879 6.04364 44.9332C6.19841 44.7784 6.38215 44.6556 6.58438 44.5719C6.7866 44.4882 7.00334 44.4451 7.22222 44.4451H18.3333C18.7754 44.4451 19.1993 44.6207 19.5118 44.9333C19.8244 45.2458 20 45.6697 20 46.1118C20 46.5538 19.8244 46.9777 19.5118 47.2903C19.1993 47.6028 18.7754 47.7784 18.3333 47.7784H7.22222C7.00334 47.7785 6.7866 47.7354 6.58438 47.6516C6.38215 47.5679 6.19841 47.4451 6.04364 47.2903C5.88886 47.1356 5.7661 46.9518 5.68235 46.7496C5.59861 46.5474 5.55552 46.3306 5.55556 46.1118ZM18.8889 57.2229C18.8889 57.4418 18.8458 57.6585 18.7621 57.8607C18.6783 58.0629 18.5556 58.2467 18.4008 58.4015C18.246 58.5562 18.0623 58.679 17.8601 58.7627C17.6578 58.8465 17.4411 58.8896 17.2222 58.8895H16.1111C15.6691 58.8895 15.2452 58.7139 14.9326 58.4014C14.62 58.0888 14.4444 57.6649 14.4444 57.2229C14.4444 56.7808 14.62 56.3569 14.9326 56.0444C15.2452 55.7318 15.6691 55.5562 16.1111 55.5562H17.2222C17.4411 55.5562 17.6578 55.5993 17.8601 55.683C18.0623 55.7668 18.246 55.8895 18.4008 56.0443C18.5556 56.1991 18.6783 56.3828 18.7621 56.585C18.8458 56.7873 18.8889 57.004 18.8889 57.2229ZM11.1111 57.2229C11.1111 57.4418 11.0681 57.6585 10.9843 57.8607C10.9006 58.0629 10.7778 58.2467 10.623 58.4015C10.4683 58.5562 10.2845 58.679 10.0823 58.7627C9.88006 58.8465 9.66332 58.8896 9.44444 58.8895H8.33333C7.89131 58.8895 7.46738 58.7139 7.15482 58.4014C6.84226 58.0888 6.66667 57.6649 6.66667 57.2229C6.66667 56.7808 6.84226 56.3569 7.15482 56.0444C7.46738 55.7318 7.89131 55.5562 8.33333 55.5562H9.44444C9.66332 55.5562 9.88006 55.5993 10.0823 55.683C10.2845 55.7668 10.4683 55.8895 10.623 56.0443C10.7778 56.1991 10.9006 56.3828 10.9843 56.585C11.0681 56.7873 11.1111 57.004 11.1111 57.2229ZM22.2222 38.8895H3.33333V38.334C3.33382 37.8921 3.50957 37.4685 3.82202 37.156C4.13448 36.8435 4.55812 36.6678 5 36.6673H20.5556C20.9974 36.6678 21.4211 36.8435 21.7335 37.156C22.046 37.4685 22.2217 37.8921 22.2222 38.334V38.8895Z" fill="#5F2DEE"/>
<path d="M64.9999 0H9.44434C8.1187 0.00144406 6.84777 0.528692 5.9104 1.46606C4.97303 2.40343 4.44578 3.67436 4.44434 5V29.4444C4.44434 29.8865 4.61993 30.3104 4.93249 30.623C5.24505 30.9355 5.66898 31.1111 6.111 31.1111C6.55303 31.1111 6.97695 30.9355 7.28951 30.623C7.60207 30.3104 7.77767 29.8865 7.77767 29.4444V5C7.77815 4.55812 7.9539 4.13448 8.26636 3.82202C8.57881 3.50957 9.00246 3.33382 9.44434 3.33333H64.9999C65.4418 3.33382 65.8654 3.50957 66.1779 3.82202C66.4903 4.13448 66.6661 4.55812 66.6666 5V41.1111H30.5554C30.1134 41.1111 29.6895 41.2867 29.3769 41.5993C29.0644 41.9118 28.8888 42.3357 28.8888 42.7778C28.8888 43.2198 29.0644 43.6437 29.3769 43.9563C29.6895 44.2688 30.1134 44.4444 30.5554 44.4444H66.6666V47.2222C66.6661 47.6641 66.4903 48.0877 66.1779 48.4002C65.8654 48.7127 65.4418 48.8884 64.9999 48.8889H30.5554C30.1134 48.8889 29.6895 49.0645 29.3769 49.377C29.0644 49.6896 28.8888 50.1135 28.8888 50.5556C28.8888 50.9976 29.0644 51.4215 29.3769 51.7341C29.6895 52.0466 30.1134 52.2222 30.5554 52.2222H42.2221V60H30.5554C30.1134 60 29.6895 60.1756 29.3769 60.4882C29.0644 60.8007 28.8888 61.2246 28.8888 61.6667C28.8888 62.1087 29.0644 62.5326 29.3769 62.8452C29.6895 63.1577 30.1134 63.3333 30.5554 63.3333H48.3332C48.7753 63.3333 49.1992 63.1577 49.5117 62.8452C49.8243 62.5326 49.9999 62.1087 49.9999 61.6667C49.9999 61.2246 49.8243 60.8007 49.5117 60.4882C49.1992 60.1756 48.7753 60 48.3332 60H45.5555V52.2222H64.9999C66.3255 52.2208 67.5965 51.6935 68.5338 50.7562C69.4712 49.8188 69.9985 48.5479 69.9999 47.2222V5C69.9985 3.67436 69.4712 2.40343 68.5338 1.46606C67.5965 0.528692 66.3255 0.00144406 64.9999 0Z" fill="white"/>
<path d="M19.444 15.556H54.9996C55.4416 15.556 55.8655 15.3804 56.1781 15.0678C56.4906 14.7553 56.6662 14.3314 56.6662 13.8893C56.6662 13.4473 56.4906 13.0234 56.1781 12.7108C55.8655 12.3983 55.4416 12.2227 54.9996 12.2227H19.444C19.002 12.2227 18.5781 12.3983 18.2655 12.7108C17.9529 13.0234 17.7773 13.4473 17.7773 13.8893C17.7773 14.3314 17.9529 14.7553 18.2655 15.0678C18.5781 15.3804 19.002 15.556 19.444 15.556Z" fill="white"/>
<path d="M19.444 23.3333H54.9996C55.4416 23.3333 55.8655 23.1577 56.1781 22.8452C56.4906 22.5326 56.6662 22.1087 56.6662 21.6667C56.6662 21.2246 56.4906 20.8007 56.1781 20.4882C55.8655 20.1756 55.4416 20 54.9996 20H19.444C19.002 20 18.5781 20.1756 18.2655 20.4882C17.9529 20.8007 17.7773 21.2246 17.7773 21.6667C17.7773 22.1087 17.9529 22.5326 18.2655 22.8452C18.5781 23.1577 19.002 23.3333 19.444 23.3333Z" fill="white"/>
<path d="M23.8893 27.7773C23.4473 27.7773 23.0234 27.9529 22.7108 28.2655C22.3983 28.5781 22.2227 29.002 22.2227 29.444C22.2227 29.886 22.3983 30.31 22.7108 30.6225C23.0234 30.9351 23.4473 31.1107 23.8893 31.1107H28.3338C28.7758 31.1107 29.1997 30.9351 29.5123 30.6225C29.8248 30.31 30.0004 29.886 30.0004 29.444C30.0004 29.002 29.8248 28.5781 29.5123 28.2655C29.1997 27.9529 28.7758 27.7773 28.3338 27.7773H23.8893Z" fill="white"/>
<path d="M46.111 27.7773C45.669 27.7773 45.2451 27.9529 44.9325 28.2655C44.6199 28.5781 44.4443 29.002 44.4443 29.444C44.4443 29.886 44.6199 30.31 44.9325 30.6225C45.2451 30.9351 45.669 31.1107 46.111 31.1107H50.5554C50.9975 31.1107 51.4214 30.9351 51.734 30.6225C52.0465 30.31 52.2221 29.886 52.2221 29.444C52.2221 29.002 52.0465 28.5781 51.734 28.2655C51.4214 27.9529 50.9975 27.7773 50.5554 27.7773H46.111Z" fill="white"/>
</svg>
