<svg width="70" height="72" viewBox="0 0 70 72" fill="none" xmlns="http://www.w3.org/2000/svg">
<path d="M34.9993 22.582C33.9944 22.5819 33.012 22.8798 32.1764 23.438C31.3408 23.9962 30.6895 24.7897 30.3049 25.7181C29.9202 26.6464 29.8195 27.668 30.0155 28.6536C30.2115 29.6392 30.6954 30.5446 31.4059 31.2552C32.1164 31.9658 33.0217 32.4498 34.0073 32.6459C34.9929 32.8419 36.0145 32.7414 36.9429 32.3568C37.8713 31.9723 38.6649 31.3211 39.2232 30.4855C39.7815 29.65 40.0795 28.6677 40.0795 27.6628C40.078 26.3158 39.5423 25.0245 38.5899 24.072C37.6375 23.1195 36.3462 22.5837 34.9993 22.582V22.582Z" fill="#1268FB"/>
<path d="M52.2778 27.0138L50.0087 26.4962C49.8952 25.0249 49.5626 23.5789 49.0219 22.206L50.8489 20.7495C51.2 20.4694 51.4255 20.0613 51.4757 19.615C51.5259 19.1687 51.3968 18.7207 51.1168 18.3695L47.6458 14.017C47.3657 13.6658 46.9576 13.4402 46.5112 13.3899C46.0648 13.3396 45.6166 13.4686 45.2653 13.7485L43.445 15.2007C42.2225 14.3736 40.8856 13.73 39.4767 13.2904V10.9612C39.4766 10.512 39.2982 10.0812 38.9806 9.76364C38.663 9.44604 38.2322 9.2676 37.7831 9.26758H32.2161C31.9937 9.26754 31.7734 9.31132 31.5679 9.39642C31.3625 9.48152 31.1757 9.60627 31.0185 9.76354C30.8612 9.92081 30.7365 10.1075 30.6514 10.313C30.5663 10.5185 30.5225 10.7387 30.5225 10.9612V13.2898C29.1135 13.7295 27.7766 14.3733 26.5543 15.2006L24.7334 13.7485C24.3821 13.4687 23.9341 13.3398 23.4878 13.3902C23.0415 13.4405 22.6335 13.666 22.3534 14.017L18.8824 18.3695C18.6024 18.7206 18.4733 19.1686 18.5235 19.615C18.5738 20.0613 18.7993 20.4694 19.1504 20.7494L20.9774 22.2059C20.4361 23.5788 20.1031 25.0248 19.9894 26.4961L17.7209 27.0138C17.283 27.1138 16.9027 27.3837 16.6638 27.764C16.4249 28.1444 16.3468 28.6041 16.4468 29.042L17.6856 34.4695C17.7857 34.9073 18.0556 35.2875 18.436 35.5264C18.8163 35.7653 19.2759 35.8434 19.7138 35.7436L21.9956 35.2226C22.7379 36.4937 23.6608 37.6502 24.7356 38.656L23.7195 40.7664C23.5247 41.1711 23.4986 41.6367 23.647 42.0606C23.7953 42.4846 24.106 42.8323 24.5106 43.0273L29.5263 45.4431C29.9311 45.6378 30.3966 45.6638 30.8205 45.5155C31.2445 45.3671 31.5922 45.0565 31.7872 44.6519L32.8011 42.5465C34.2579 42.7726 35.7408 42.7726 37.1976 42.5465L38.212 44.6519C38.407 45.0567 38.7548 45.3674 39.1789 45.5157C39.603 45.6641 40.0686 45.638 40.4734 45.4431L45.4891 43.0273C45.8936 42.8323 46.2042 42.4845 46.3524 42.0606C46.5007 41.6366 46.4745 41.1711 46.2796 40.7665L45.263 38.6566C46.3379 37.6508 47.2609 36.494 48.003 35.2226L50.2853 35.7436C50.7234 35.8434 51.1831 35.7652 51.5635 35.5262C51.9439 35.2872 52.2139 34.9069 52.3141 34.469L53.5523 29.0415C53.652 28.6036 53.5737 28.1441 53.3347 27.7639C53.0957 27.3837 52.7156 27.1139 52.2778 27.0138V27.0138ZM34.9996 36.13C33.3248 36.1302 31.6875 35.6336 30.2949 34.7032C28.9023 33.7728 27.8168 32.4504 27.1758 30.9031C26.5348 29.3558 26.3671 27.6531 26.6937 26.0105C27.0204 24.3678 27.8269 22.8589 29.0111 21.6746C30.1953 20.4903 31.7042 19.6838 33.3468 19.357C34.9894 19.0302 36.6921 19.1979 38.2394 19.8388C39.7867 20.4797 41.1093 21.565 42.0398 22.9576C42.9703 24.3501 43.4669 25.9873 43.4669 27.6621C43.4645 29.9071 42.5716 32.0595 40.9842 33.6469C39.3968 35.2344 37.2446 36.1274 34.9996 36.13V36.13Z" fill="#1268FB"/>
<path d="M34.9998 5.2289e-06C28.8475 -0.00377738 22.8697 2.04481 18.013 5.8214C13.1562 9.59799 9.698 14.8868 8.18589 20.8503C6.67378 26.8139 7.19419 33.1115 9.6647 38.746C12.1352 44.3805 16.4147 49.0298 21.8255 51.958V63.7916C21.8277 65.7373 22.6016 67.6027 23.9775 68.9785C25.3533 70.3543 27.2186 71.1282 29.1643 71.1305H40.8353C42.781 71.1282 44.6464 70.3543 46.0222 68.9785C47.398 67.6027 48.1719 65.7373 48.1742 63.7916V51.958C53.5848 49.0297 57.864 44.3803 60.3344 38.7459C62.8048 33.1115 63.3251 26.814 61.813 20.8505C60.301 14.887 56.8429 9.59832 51.9862 5.82172C47.1296 2.04511 41.152 -0.00357624 34.9998 5.2289e-06V5.2289e-06ZM44.787 63.7916C44.7857 64.8393 44.369 65.8437 43.6282 66.5845C42.8874 67.3253 41.883 67.742 40.8353 67.7433H29.1643C28.1167 67.742 27.1123 67.3253 26.3715 66.5845C25.6307 65.8437 25.2139 64.8393 25.2126 63.7916V63.2271H44.787V63.7916ZM44.787 59.8399H25.2126V56.4527H44.787V59.8399ZM45.7298 49.4099C45.4467 49.5499 45.2084 49.7663 45.0418 50.0346C44.8752 50.3029 44.7869 50.6124 44.787 50.9282V53.0656H25.2126V50.9282C25.2126 50.6124 25.1243 50.3029 24.9577 50.0347C24.7911 49.7664 24.5529 49.55 24.2699 49.4099C19.3541 46.9875 15.4026 42.9729 13.0585 38.0193C10.7143 33.0657 10.1153 27.4646 11.3589 22.1274C12.6026 16.7901 15.6157 12.0307 19.9081 8.62351C24.2005 5.21633 29.5195 3.36189 34.9998 3.36189C40.48 3.36189 45.799 5.21633 50.0914 8.62351C54.3838 12.0307 57.3969 16.7901 58.6406 22.1274C59.8843 27.4646 59.2853 33.0657 56.9411 38.0193C54.5969 42.9729 50.6454 46.9875 45.7296 49.4099H45.7298Z" fill="white"/>
<path d="M62.6784 14.5402C62.7723 14.7419 62.905 14.9231 63.0689 15.0734C63.2328 15.2237 63.4248 15.3402 63.6338 15.4163C63.8428 15.4924 64.0647 15.5265 64.287 15.5168C64.5092 15.507 64.7273 15.4536 64.9288 15.3595L69.0228 13.4509C69.2243 13.3569 69.4054 13.2242 69.5556 13.0602C69.7059 12.8963 69.8224 12.7043 69.8984 12.4954C69.9745 12.2864 70.0087 12.0645 69.999 11.8423C69.9893 11.6201 69.936 11.4021 69.842 11.2005C69.748 10.9989 69.6153 10.8179 69.4513 10.6676C69.2874 10.5174 69.0954 10.4009 68.8865 10.3248C68.6775 10.2487 68.4556 10.2146 68.2334 10.2243C68.0112 10.234 67.7932 10.2873 67.5916 10.3813L63.4976 12.2899C63.296 12.3838 63.1149 12.5165 62.9646 12.6804C62.8143 12.8443 62.6977 13.0363 62.6216 13.2453C62.5456 13.4543 62.5114 13.6762 62.5212 13.8984C62.5309 14.1206 62.5843 14.3387 62.6784 14.5402V14.5402Z" fill="white"/>
<path d="M59.6399 6.57157L62.9433 3.49094C63.2699 3.18399 63.4615 2.76015 63.4762 2.31221C63.491 1.86427 63.3276 1.42874 63.0219 1.10101C62.7162 0.773281 62.293 0.580051 61.8451 0.563638C61.3973 0.547224 60.9611 0.708964 60.6323 1.01344L57.3289 4.09405C57.0014 4.40078 56.8091 4.82489 56.7939 5.2733C56.7788 5.72172 56.9422 6.15781 57.2482 6.4859C57.5543 6.81399 57.978 7.00727 58.4264 7.02334C58.8747 7.0394 59.3112 6.87693 59.6399 6.57157V6.57157Z" fill="white"/>
<path d="M62.6784 40.7829C62.7723 40.5812 62.905 40.4001 63.0689 40.2497C63.2328 40.0994 63.4248 39.9829 63.6338 39.9068C63.8428 39.8307 64.0647 39.7966 64.287 39.8063C64.5092 39.8161 64.7273 39.8695 64.9288 39.9636L69.0228 41.8722C69.2243 41.9662 69.4054 42.0989 69.5556 42.2629C69.7059 42.4268 69.8224 42.6188 69.8984 42.8277C69.9745 43.0367 70.0087 43.2586 69.999 43.4808C69.9893 43.703 69.936 43.921 69.842 44.1226C69.748 44.3242 69.6153 44.5052 69.4513 44.6555C69.2874 44.8057 69.0954 44.9222 68.8865 44.9983C68.6775 45.0744 68.4556 45.1085 68.2334 45.0988C68.0112 45.0892 67.7932 45.0358 67.5916 44.9418L63.4976 43.0332C63.296 42.9394 63.1149 42.8067 62.9646 42.6427C62.8143 42.4788 62.6977 42.2868 62.6216 42.0778C62.5456 41.8688 62.5114 41.6469 62.5212 41.4247C62.5309 41.2025 62.5843 40.9844 62.6784 40.7829V40.7829Z" fill="white"/>
<path d="M59.6399 48.7537L62.9433 51.8343C63.2699 52.1412 63.4615 52.5651 63.4762 53.013C63.491 53.461 63.3276 53.8965 63.0219 54.2242C62.7162 54.552 62.293 54.7452 61.8451 54.7616C61.3973 54.778 60.9611 54.6163 60.6323 54.3118L57.3289 51.2312C57.0014 50.9244 56.8091 50.5003 56.7939 50.0519C56.7788 49.6035 56.9422 49.1674 57.2482 48.8393C57.5543 48.5112 57.978 48.3179 58.4264 48.3019C58.8747 48.2858 59.3112 48.4483 59.6399 48.7536V48.7537Z" fill="white"/>
<path d="M7.32219 14.5403C7.22832 14.7419 7.09562 14.9231 6.93169 15.0734C6.76776 15.2237 6.5758 15.3402 6.3668 15.4163C6.15779 15.4924 5.93584 15.5266 5.71364 15.5168C5.49143 15.507 5.27332 15.4536 5.07179 15.3595L0.977838 13.4509C0.570782 13.2611 0.25579 12.9174 0.102158 12.4954C-0.0514749 12.0733 -0.0311631 11.6076 0.158624 11.2005C0.348412 10.7934 0.692129 10.4784 1.11416 10.3248C1.53619 10.1712 2.00197 10.1915 2.40903 10.3813L6.50298 12.2899C6.7046 12.3838 6.88575 12.5165 7.03605 12.6804C7.18636 12.8443 7.30288 13.0363 7.37896 13.2453C7.45504 13.4543 7.48919 13.6762 7.47945 13.8984C7.4697 14.1206 7.41627 14.3387 7.32219 14.5403V14.5403Z" fill="white"/>
<path d="M10.3607 6.57157L7.0573 3.49094C6.73072 3.18399 6.53908 2.76015 6.52435 2.31221C6.50963 1.86427 6.673 1.42874 6.97872 1.10101C7.28443 0.773281 7.70755 0.580051 8.15543 0.563638C8.60331 0.547224 9.03945 0.708964 9.36833 1.01344L12.6717 4.09409C12.9991 4.40082 13.1915 4.82492 13.2066 5.27334C13.2218 5.72175 13.0584 6.15785 12.7523 6.48594C12.4463 6.81403 12.0226 7.00731 11.5742 7.02337C11.1258 7.03943 10.6894 6.87696 10.3607 6.57161V6.57157Z" fill="white"/>
<path d="M7.3222 40.7829C7.22833 40.5812 7.09563 40.4001 6.9317 40.2497C6.76777 40.0994 6.57581 39.9829 6.36681 39.9068C6.1578 39.8307 5.93585 39.7966 5.71365 39.8063C5.49144 39.8161 5.27333 39.8695 5.0718 39.9636L0.977848 41.8722C0.570792 42.062 0.255798 42.4057 0.102162 42.8277C-0.0514733 43.2498 -0.0311658 43.7155 0.158617 44.1226C0.3484 44.5297 0.692113 44.8447 1.11414 44.9983C1.53617 45.1519 2.00195 45.1316 2.409 44.9418L6.50296 43.0332C6.70458 42.9394 6.88573 42.8067 7.03604 42.6427C7.18635 42.4788 7.30287 42.2868 7.37896 42.0778C7.45504 41.8688 7.48919 41.6469 7.47945 41.4247C7.46971 41.2025 7.41628 40.9844 7.3222 40.7829Z" fill="white"/>
<path d="M10.3607 48.7537L7.0573 51.8343C6.73072 52.1412 6.53908 52.5651 6.52435 53.013C6.50963 53.461 6.673 53.8965 6.97872 54.2242C7.28443 54.552 7.70755 54.7452 8.15543 54.7616C8.60331 54.778 9.03945 54.6163 9.36833 54.3118L12.6717 51.2312C12.9991 50.9244 13.1915 50.5003 13.2066 50.0519C13.2218 49.6035 13.0584 49.1674 12.7523 48.8393C12.4463 48.5112 12.0226 48.3179 11.5742 48.3019C11.1258 48.2858 10.6894 48.4483 10.3607 48.7536V48.7537Z" fill="white"/>
</svg>
