<svg width="70" height="70" viewBox="0 0 70 70" fill="none" xmlns="http://www.w3.org/2000/svg">
<path d="M54.4444 48.3333V45C54.4444 43.6739 53.9176 42.4021 52.9799 41.4645C52.0423 40.5268 50.7705 40 49.4444 40H20.5555C19.2295 40 17.9577 40.5268 17.02 41.4645C16.0823 42.4021 15.5555 43.6739 15.5555 45V48.3333C15.5555 49.6594 16.0823 50.9312 17.02 51.8689C17.9577 52.8065 19.2295 53.3333 20.5555 53.3333H49.4444C50.7705 53.3333 52.0423 52.8065 52.9799 51.8689C53.9176 50.9312 54.4444 49.6594 54.4444 48.3333ZM42.7777 45H45C45.442 45 45.8659 45.1756 46.1785 45.4882C46.491 45.8007 46.6666 46.2246 46.6666 46.6667C46.6666 47.1087 46.491 47.5326 46.1785 47.8452C45.8659 48.1577 45.442 48.3333 45 48.3333H42.7777C42.3357 48.3333 41.9118 48.1577 41.5992 47.8452C41.2867 47.5326 41.1111 47.1087 41.1111 46.6667C41.1111 46.2246 41.2867 45.8007 41.5992 45.4882C41.9118 45.1756 42.3357 45 42.7777 45ZM25 45H36.1111C36.5531 45 36.977 45.1756 37.2896 45.4882C37.6022 45.8007 37.7778 46.2246 37.7778 46.6667C37.7778 47.1087 37.6022 47.5326 37.2896 47.8452C36.977 48.1577 36.5531 48.3333 36.1111 48.3333H25C24.558 48.3333 24.134 48.1577 23.8215 47.8452C23.5089 47.5326 23.3333 47.1087 23.3333 46.6667C23.3333 46.2246 23.5089 45.8007 23.8215 45.4882C24.134 45.1756 24.558 45 25 45Z" fill="#5F2DEE"/>
<path d="M15.5557 61.666V64.9993C15.5557 66.3254 16.0824 67.5972 17.0201 68.5349C17.9578 69.4726 19.2296 69.9993 20.5557 69.9993H49.4445C50.7706 69.9993 52.0424 69.4726 52.9801 68.5349C53.9177 67.5972 54.4445 66.3254 54.4445 64.9993V61.666C54.4445 60.3399 53.9177 59.0682 52.9801 58.1305C52.0424 57.1928 50.7706 56.666 49.4445 56.666H20.5557C19.2296 56.666 17.9578 57.1928 17.0201 58.1305C16.0824 59.0682 15.5557 60.3399 15.5557 61.666ZM36.1112 64.9993H25.0001C24.5581 64.9993 24.1342 64.8238 23.8216 64.5112C23.509 64.1986 23.3334 63.7747 23.3334 63.3327C23.3334 62.8907 23.509 62.4667 23.8216 62.1542C24.1342 61.8416 24.5581 61.666 25.0001 61.666H36.1112C36.5532 61.666 36.9772 61.8416 37.2897 62.1542C37.6023 62.4667 37.7779 62.8907 37.7779 63.3327C37.7779 63.7747 37.6023 64.1986 37.2897 64.5112C36.9772 64.8238 36.5532 64.9993 36.1112 64.9993ZM45.0001 64.9993H42.7779C42.3358 64.9993 41.9119 64.8238 41.5994 64.5112C41.2868 64.1986 41.1112 63.7747 41.1112 63.3327C41.1112 62.8907 41.2868 62.4667 41.5994 62.1542C41.9119 61.8416 42.3358 61.666 42.7779 61.666H45.0001C45.4421 61.666 45.866 61.8416 46.1786 62.1542C46.4912 62.4667 46.6668 62.8907 46.6668 63.3327C46.6668 63.7747 46.4912 64.1986 46.1786 64.5112C45.866 64.8238 45.4421 64.9993 45.0001 64.9993Z" fill="#5F2DEE"/>
<path d="M54.4162 20.3927C54.5453 17.7628 54.1388 15.134 53.2213 12.6659C52.3038 10.1979 50.8945 7.9419 49.0788 6.03493C47.2631 4.12795 45.079 2.60971 42.6589 1.57232C40.2388 0.534924 37.6331 0 35 0C32.3669 0 29.7613 0.534924 27.3411 1.57232C24.921 2.60971 22.7369 4.12795 20.9212 6.03493C19.1055 7.9419 17.6962 10.1979 16.7787 12.6659C15.8612 15.134 15.4547 17.7628 15.5838 20.3927C11.7071 21.1778 8.16217 23.1266 5.42195 25.9789C2.68173 28.8313 0.876616 32.4515 0.247518 36.3565C-0.38158 40.2615 0.195261 44.2655 1.90106 47.8341C3.60685 51.4027 6.36046 54.3662 9.7944 56.3291C10.178 56.5481 10.6328 56.6059 11.0589 56.4898C11.4851 56.3737 11.8478 56.0933 12.0673 55.71C12.2868 55.3267 12.3452 54.872 12.2297 54.4457C12.1142 54.0194 11.8343 53.6563 11.4513 53.4363C8.50497 51.7532 6.1654 49.1827 4.76632 46.0913C3.36724 43 2.98012 39.5458 3.66018 36.2215C4.34024 32.8972 6.05274 29.8725 8.5534 27.579C11.0541 25.2854 14.2151 23.8401 17.5857 23.4493C17.8056 23.424 18.0182 23.3551 18.2111 23.2468C18.4041 23.1384 18.5735 22.9927 18.7096 22.8182C18.8456 22.6437 18.9456 22.4438 19.0036 22.2302C19.0615 22.0167 19.0764 21.7937 19.0473 21.5743C18.7415 19.2998 18.9256 16.9862 19.5873 14.7887C20.2489 12.5912 21.3728 10.5606 22.8836 8.83312C24.3944 7.10561 26.2572 5.72113 28.3469 4.77255C30.4366 3.82397 32.7051 3.33323 35 3.33323C37.295 3.33323 39.5634 3.82397 41.6531 4.77255C43.7428 5.72113 45.6056 7.10561 47.1164 8.83312C48.6272 10.5606 49.7511 12.5912 50.4127 14.7887C51.0744 16.9862 51.2585 19.2998 50.9527 21.5743C50.9237 21.7938 50.9386 22.0168 50.9967 22.2304C51.0548 22.444 51.1548 22.6439 51.291 22.8184C51.4271 22.9929 51.5967 23.1386 51.7897 23.2469C51.9828 23.3553 52.1954 23.4241 52.4154 23.4493C55.8617 23.8493 59.0868 25.3513 61.6107 27.7318C64.1347 30.1123 65.8226 33.244 66.4233 36.6611C67.0241 40.0781 66.5055 43.5978 64.9448 46.6964C63.3841 49.795 60.8647 52.3069 57.7615 53.8584C57.3671 54.0568 57.0676 54.4036 56.9287 54.8227C56.7898 55.2417 56.8228 55.6988 57.0206 56.0935C57.2184 56.4882 57.5647 56.7883 57.9836 56.9279C58.4024 57.0675 58.8595 57.0351 59.2545 56.838C62.8744 55.0274 65.839 52.1324 67.7349 48.5565C69.6308 44.9807 70.3635 40.9023 69.8309 36.8901C69.2982 32.8779 67.5268 29.132 64.7636 26.1747C62.0003 23.2173 58.3831 21.196 54.4162 20.3927Z" fill="white"/>
<path d="M27.7778 34.9998V30.5553C27.7778 30.1133 27.6022 29.6894 27.2896 29.3768C26.9771 29.0643 26.5532 28.8887 26.1111 28.8887C25.6691 28.8887 25.2452 29.0643 24.9326 29.3768C24.6201 29.6894 24.4445 30.1133 24.4445 30.5553V34.9998C24.4445 35.4418 24.6201 35.8657 24.9326 36.1783C25.2452 36.4909 25.6691 36.6664 26.1111 36.6664C26.5532 36.6664 26.9771 36.4909 27.2896 36.1783C27.6022 35.8657 27.7778 35.4418 27.7778 34.9998Z" fill="white"/>
<path d="M36.6663 34.9998V30.5553C36.6663 30.1133 36.4907 29.6894 36.1782 29.3768C35.8656 29.0643 35.4417 28.8887 34.9997 28.8887C34.5576 28.8887 34.1337 29.0643 33.8212 29.3768C33.5086 29.6894 33.333 30.1133 33.333 30.5553V34.9998C33.333 35.4418 33.5086 35.8657 33.8212 36.1783C34.1337 36.4909 34.5576 36.6664 34.9997 36.6664C35.4417 36.6664 35.8656 36.4909 36.1782 36.1783C36.4907 35.8657 36.6663 35.4418 36.6663 34.9998Z" fill="white"/>
<path d="M45.556 34.9998V30.5553C45.556 30.1133 45.3804 29.6894 45.0678 29.3768C44.7553 29.0643 44.3313 28.8887 43.8893 28.8887C43.4473 28.8887 43.0234 29.0643 42.7108 29.3768C42.3982 29.6894 42.2227 30.1133 42.2227 30.5553V34.9998C42.2227 35.4418 42.3982 35.8657 42.7108 36.1783C43.0234 36.4909 43.4473 36.6664 43.8893 36.6664C44.3313 36.6664 44.7553 36.4909 45.0678 36.1783C45.3804 35.8657 45.556 35.4418 45.556 34.9998Z" fill="white"/>
</svg>
