<svg width="74" height="76" viewBox="0 0 74 76" fill="none" xmlns="http://www.w3.org/2000/svg">
<path d="M51.6146 48.9079C49.6382 48.9079 48.0361 47.3112 48.0361 45.3416C48.0361 43.372 49.6382 41.7753 51.6146 41.7753C53.5909 41.7753 55.1931 43.372 55.1931 45.3416C55.1931 47.3112 53.5909 48.9079 51.6146 48.9079ZM22.3839 48.9079C20.4075 48.9079 18.8054 47.3112 18.8054 45.3416C18.8054 43.372 20.4075 41.7753 22.3839 41.7753C24.3602 41.7753 25.9624 43.372 25.9624 45.3416C25.9624 47.3112 24.3602 48.9079 22.3839 48.9079ZM59.2992 39.9015C59.606 38.7015 59.7692 37.4443 59.7692 36.1492C59.7692 27.7822 52.9634 20.9996 44.5679 20.9996C39.187 20.9996 34.4591 23.7859 31.7576 27.9897C30.0027 27.0538 27.9975 26.5229 25.8679 26.5229C18.9642 26.5229 13.3676 32.1005 13.3676 38.9809C13.3676 39.4333 13.3919 39.8802 13.439 40.3201C10.8328 41.4566 9.01172 44.0494 9.01172 47.0659C9.01172 51.1306 12.3181 54.4258 16.3967 54.4258H57.6017C61.6802 54.4258 64.9866 51.1306 64.9866 47.0659C64.9866 43.5833 62.5596 40.6659 59.2992 39.9015Z" fill="#1268FB"/>
<path d="M25.9636 8.45323C25.9636 10.4228 24.3615 12.0195 22.3851 12.0195C20.4088 12.0195 18.8066 10.4228 18.8066 8.45323C18.8066 6.48362 20.4088 4.88693 22.3851 4.88693C24.3615 4.88693 25.9636 6.48362 25.9636 8.45323Z" stroke="#002699" stroke-width="3" stroke-miterlimit="10" stroke-linecap="round" stroke-linejoin="round"/>
<path d="M22.3848 12.1158V19.6387" stroke="#002699" stroke-width="3" stroke-miterlimit="10" stroke-linecap="round" stroke-linejoin="round"/>
<path d="M55.1941 5.27745C55.1941 7.24705 53.592 8.84375 51.6156 8.84375C49.6392 8.84375 48.0371 7.24705 48.0371 5.27745C48.0371 3.30784 49.6392 1.71115 51.6156 1.71115C53.592 1.71115 55.1941 3.30784 55.1941 5.27745Z" stroke="#002699" stroke-width="3" stroke-miterlimit="10" stroke-linecap="round" stroke-linejoin="round"/>
<path d="M51.6152 8.93896V15.0332" stroke="#002699" stroke-width="3" stroke-miterlimit="10" stroke-linecap="round" stroke-linejoin="round"/>
<path d="M37 5.27706V15.0156" stroke="#002699" stroke-width="3" stroke-miterlimit="10" stroke-linecap="round" stroke-linejoin="round"/>
<path d="M16.3974 61.4141C8.45863 61.4141 2 54.9773 2 47.0654C2 43.0543 3.67619 39.3107 6.4952 36.6476C7.65522 27.0204 15.9013 19.5337 25.8686 19.5337C27.0884 19.5337 28.3047 19.6486 29.4985 19.8737C33.5491 16.1368 38.8878 14.0102 44.5686 14.0102C56.7727 14.0102 66.7096 23.8689 66.7822 36.0146C67.5332 36.6332 68.223 37.3286 68.8366 38.091C70.8766 40.6256 72 43.8128 72 47.0654C72 54.9773 65.5412 61.4141 57.6024 61.4141H16.3974Z" stroke="#002699" stroke-width="3" stroke-miterlimit="10" stroke-linecap="round" stroke-linejoin="round"/>
<path d="M40.5789 70.4337C40.5789 72.4033 38.9767 74 37.0004 74C35.024 74 33.4219 72.4033 33.4219 70.4337C33.4219 68.4641 35.024 66.8674 37.0004 66.8674C38.9767 66.8674 40.5789 68.4641 40.5789 70.4337Z" stroke="#002699" stroke-width="3" stroke-miterlimit="10" stroke-linecap="round" stroke-linejoin="round"/>
<path d="M25.9636 45.3419C25.9636 47.3115 24.3615 48.9082 22.3851 48.9082C20.4088 48.9082 18.8066 47.3115 18.8066 45.3419C18.8066 43.3723 20.4088 41.7756 22.3851 41.7756C24.3615 41.7756 25.9636 43.3723 25.9636 45.3419Z" stroke="#002699" stroke-width="3" stroke-miterlimit="10" stroke-linecap="round" stroke-linejoin="round"/>
<path d="M22.3851 49.0034V69.4494L18.8066 71.5176" stroke="#002699" stroke-width="3" stroke-miterlimit="10" stroke-linecap="round" stroke-linejoin="round"/>
<path d="M55.1941 45.3419C55.1941 47.3115 53.592 48.9082 51.6156 48.9082C49.6392 48.9082 48.0371 47.3115 48.0371 45.3419C48.0371 43.3723 49.6392 41.7756 51.6156 41.7756C53.592 41.7756 55.1941 43.3723 55.1941 45.3419Z" stroke="#002699" stroke-width="3" stroke-miterlimit="10" stroke-linecap="round" stroke-linejoin="round"/>
<path d="M51.6152 49.0034V69.4494L55.1937 71.5176" stroke="#002699" stroke-width="3" stroke-miterlimit="10" stroke-linecap="round" stroke-linejoin="round"/>
<path d="M37 45.3412V66.8672" stroke="#002699" stroke-width="3" stroke-miterlimit="10" stroke-linecap="round" stroke-linejoin="round"/>
</svg>
