<svg width="70" height="70" viewBox="0 0 70 70" fill="none" xmlns="http://www.w3.org/2000/svg">
<path d="M69.1268 38.3932L65.0405 37.366C64.4326 34.1318 63.1645 31.0576 61.3153 28.3354L63.4827 24.8473C63.6118 24.6317 63.6653 24.3791 63.6346 24.1297C63.6039 23.8802 63.4909 23.6481 63.3134 23.4702L60.1188 20.2756C59.9436 20.08 59.7058 19.9516 59.4462 19.9125C59.1866 19.8733 58.9215 19.9259 58.6965 20.0611L55.0842 22.2285C52.362 20.3793 49.2878 19.1112 46.0536 18.5033L45.1506 14.417C45.0888 14.1665 44.943 13.9448 44.7376 13.7887C44.5323 13.6326 44.2796 13.5516 44.0217 13.5591H39.5064C39.2486 13.5516 38.9959 13.6326 38.7905 13.7887C38.5851 13.9448 38.4394 14.1665 38.3776 14.417L37.3504 18.5033C34.1162 19.1112 31.042 20.3793 28.3198 22.2285L24.8317 20.0611C24.6161 19.932 24.3635 19.8785 24.114 19.9092C23.8646 19.9399 23.6325 20.0529 23.4545 20.2304L20.26 23.425C20.0644 23.6002 19.936 23.838 19.8968 24.0976C19.8577 24.3572 19.9103 24.6223 20.0455 24.8473L22.2128 28.4596C20.3637 31.1818 19.0956 34.256 18.4877 37.4902L14.4014 38.3932C14.1509 38.455 13.9292 38.6008 13.7731 38.8062C13.617 39.0115 13.5359 39.2642 13.5434 39.5221V44.0374C13.5359 44.2952 13.617 44.5479 13.7731 44.7533C13.9292 44.9587 14.1509 45.1044 14.4014 45.1662L18.4877 46.1934C19.0956 49.4276 20.3637 52.5018 22.2128 55.224L20.0455 58.7121C19.9164 58.9277 19.8629 59.1803 19.8936 59.4298C19.9242 59.6792 20.0373 59.9113 20.2148 60.0893L23.4094 63.2838C23.5873 63.4614 23.8194 63.5744 24.0689 63.6051C24.3183 63.6358 24.5709 63.5823 24.7866 63.4532L28.3988 61.2858C31.121 63.135 34.1952 64.4031 37.4294 65.0109L38.3776 69.1424C38.4394 69.3929 38.5851 69.6146 38.7905 69.7707C38.9959 69.9268 39.2486 70.0079 39.5064 70.0004H44.0217C44.2796 70.0079 44.5323 69.9268 44.7376 69.7707C44.943 69.6146 45.0888 69.3929 45.1506 69.1424L46.1778 65.0561C49.412 64.4482 52.4862 63.1801 55.2084 61.331L58.6965 63.4983C58.9121 63.6274 59.1647 63.6809 59.4141 63.6502C59.6636 63.6196 59.8957 63.5065 60.0736 63.329L63.2682 60.1344C63.4638 59.9593 63.5922 59.7214 63.6313 59.4618C63.6705 59.2022 63.6179 58.9371 63.4827 58.7121L61.3153 55.0999C63.1645 52.3777 64.4326 49.3035 65.0405 46.0693L69.1268 45.1662C69.3773 45.1044 69.599 44.9587 69.7551 44.7533C69.9112 44.5479 69.9922 44.2952 69.9847 44.0374V39.5221C69.9922 39.2642 69.9112 39.0115 69.7551 38.8062C69.599 38.6008 69.3773 38.455 69.1268 38.3932ZM41.7641 50.8103C39.978 50.8103 38.232 50.2807 36.747 49.2884C35.2619 48.2961 34.1044 46.8857 33.4209 45.2356C32.7374 43.5854 32.5586 41.7697 32.907 40.0179C33.2555 38.2662 34.1155 36.6571 35.3785 35.3941C36.6414 34.1312 38.2505 33.2711 40.0023 32.9226C41.7541 32.5742 43.5698 32.753 45.22 33.4365C46.8701 34.12 48.2805 35.2775 49.2728 36.7626C50.2651 38.2477 50.7947 39.9936 50.7947 41.7797C50.7947 44.1748 49.8433 46.4717 48.1497 48.1653C46.4561 49.8589 44.1592 50.8103 41.7641 50.8103Z" fill="#1268FB" fill-opacity="0.5"/>
<path d="M14.6736 29.3617H41.7654C42.0648 29.3617 42.3519 29.2428 42.5636 29.0311C42.7753 28.8194 42.8943 28.5323 42.8943 28.2329C42.8919 25.1505 41.9191 22.1472 40.1137 19.6489C38.3084 17.1506 35.7622 15.2842 32.8364 14.3145C34.193 13.3378 35.2049 11.956 35.7266 10.3679C36.2483 8.77978 36.2529 7.06713 35.7398 5.47623C35.2267 3.88532 34.2223 2.49813 32.871 1.51412C31.5197 0.530118 29.8911 0 28.2195 0C26.5479 0 24.9194 0.530118 23.5681 1.51412C22.2168 2.49813 21.2124 3.88532 20.6992 5.47623C20.1861 7.06713 20.1907 8.77978 20.7124 10.3679C21.2341 11.956 22.246 13.3378 23.6026 14.3145C20.6768 15.2842 18.1307 17.1506 16.3253 19.6489C14.52 22.1472 13.5471 25.1505 13.5448 28.2329C13.5448 28.5323 13.6637 28.8194 13.8754 29.0311C14.0871 29.2428 14.3742 29.3617 14.6736 29.3617ZM22.5754 7.91401C22.5754 6.79771 22.9064 5.70647 23.5266 4.7783C24.1468 3.85013 25.0283 3.12671 26.0596 2.69952C27.0909 2.27233 28.2258 2.16055 29.3206 2.37833C30.4155 2.59611 31.4212 3.13366 32.2105 3.92301C32.9999 4.71236 33.5374 5.71804 33.7552 6.8129C33.973 7.90775 33.8612 9.0426 33.434 10.0739C33.0068 11.1053 32.2834 11.9867 31.3552 12.6069C30.4271 13.2271 29.3358 13.5581 28.2195 13.5581C26.7226 13.5581 25.287 12.9635 24.2285 11.905C23.1701 10.8465 22.5754 9.41093 22.5754 7.91401ZM28.2195 15.8158C31.3262 15.8029 34.3248 16.9551 36.6236 19.0449C38.9223 21.1347 40.3542 24.0102 40.6366 27.104H15.8025C16.0849 24.0102 17.5167 21.1347 19.8155 19.0449C22.1143 16.9551 25.1129 15.8029 28.2195 15.8158Z" fill="#002699"/>
<path d="M50.796 27.1055C49.4949 27.1052 48.2336 27.5545 47.2256 28.3773C46.2177 29.2001 45.525 30.3459 45.2648 31.6208H39.5077C39.2084 31.6208 38.9212 31.7397 38.7095 31.9514C38.4978 32.1631 38.3789 32.4502 38.3789 32.7496C38.3789 34.8453 37.5464 36.8551 36.0645 38.337C34.5827 39.8189 32.5728 40.6514 30.4771 40.6514H25.9618C23.8662 40.6514 21.8563 39.8189 20.3744 38.337C18.8926 36.8551 18.0601 34.8453 18.0601 32.7496C18.0601 32.4502 17.9411 32.1631 17.7294 31.9514C17.5177 31.7397 17.2306 31.6208 16.9312 31.6208H11.1742C10.8945 30.2503 10.1158 29.0326 8.98928 28.2036C7.86271 27.3746 6.46846 26.9935 5.07684 27.1341C3.68522 27.2746 2.39537 27.9269 1.45736 28.9645C0.51935 30.002 0 31.3509 0 32.7496C0 34.1483 0.51935 35.4972 1.45736 36.5347C2.39537 37.5723 3.68522 38.2246 5.07684 38.3652C6.46846 38.5057 7.86271 38.1246 8.98928 37.2956C10.1158 36.4666 10.8945 35.2489 11.1742 33.8784H15.8701C16.1477 36.3611 17.3303 38.6545 19.1919 40.3204C21.0535 41.9863 23.4637 42.9079 25.9618 42.909H27.0907V45.2796C25.7202 45.5593 24.5025 46.3379 23.6735 47.4645C22.8445 48.5911 22.4634 49.9853 22.6039 51.377C22.7445 52.7686 23.3968 54.0584 24.4344 54.9964C25.4719 55.9344 26.8208 56.4538 28.2195 56.4538C29.6182 56.4538 30.9671 55.9344 32.0046 54.9964C33.0422 54.0584 33.6945 52.7686 33.835 51.377C33.9756 49.9853 33.5945 48.5911 32.7655 47.4645C31.9365 46.3379 30.7188 45.5593 29.3483 45.2796V42.909H30.4771C32.9753 42.9079 35.3854 41.9863 37.2471 40.3204C39.1087 38.6545 40.2913 36.3611 40.5688 33.8784H45.2648C45.4783 34.9248 45.9844 35.889 46.7241 36.6592C47.4638 37.4294 48.4069 37.974 49.4437 38.2296C50.4806 38.4853 51.5687 38.4415 52.5817 38.1034C53.5946 37.7654 54.4909 37.1468 55.1664 36.3197C55.8419 35.4926 56.2689 34.4908 56.3977 33.4307C56.5266 32.3706 56.3521 31.2957 55.8944 30.3308C55.4368 29.366 54.7148 28.5507 53.8123 27.9798C52.9098 27.4089 51.8639 27.1057 50.796 27.1055ZM5.64298 36.1361C4.97319 36.1361 4.31845 35.9375 3.76155 35.5654C3.20465 35.1932 2.77059 34.6644 2.51428 34.0456C2.25796 33.4268 2.1909 32.7459 2.32157 32.0889C2.45224 31.432 2.77477 30.8286 3.24838 30.355C3.72198 29.8814 4.3254 29.5589 4.98231 29.4282C5.63922 29.2975 6.32013 29.3646 6.93893 29.6209C7.55772 29.8772 8.08662 30.3113 8.45873 30.8682C8.83084 31.4251 9.02945 32.0798 9.02945 32.7496C9.02945 33.6478 8.67267 34.5091 8.03758 35.1442C7.40249 35.7793 6.54113 36.1361 5.64298 36.1361ZM31.606 50.8108C31.606 51.4806 31.4074 52.1353 31.0352 52.6922C30.6631 53.2491 30.1342 53.6832 29.5154 53.9395C28.8966 54.1958 28.2157 54.2629 27.5588 54.1322C26.9019 54.0016 26.2985 53.679 25.8249 53.2054C25.3513 52.7318 25.0288 52.1284 24.8981 51.4715C24.7674 50.8146 24.8345 50.1337 25.0908 49.5149C25.3471 48.8961 25.7812 48.3672 26.3381 47.9951C26.895 47.623 27.5497 47.4243 28.2195 47.4243C29.1176 47.4243 29.979 47.7811 30.6141 48.4162C31.2492 49.0513 31.606 49.9127 31.606 50.8108ZM50.796 36.1361C50.1262 36.1361 49.4715 35.9375 48.9146 35.5654C48.3577 35.1932 47.9236 34.6644 47.6673 34.0456C47.411 33.4268 47.3439 32.7459 47.4746 32.0889C47.6053 31.432 47.9278 30.8286 48.4014 30.355C48.875 29.8814 49.4784 29.5589 50.1353 29.4282C50.7922 29.2975 51.4731 29.3646 52.0919 29.6209C52.7107 29.8772 53.2396 30.3113 53.6118 30.8682C53.9839 31.4251 54.1825 32.0798 54.1825 32.7496C54.1825 33.6478 53.8257 34.5091 53.1906 35.1442C52.5555 35.7793 51.6941 36.1361 50.796 36.1361Z" fill="#002699"/>
</svg>
