<svg width="70" height="70" viewBox="0 0 70 70" fill="none" xmlns="http://www.w3.org/2000/svg">
<path d="M26.9614 10.5228L21.5849 7.54643C21.3934 7.44041 21.1829 7.37316 20.9654 7.3485C20.7479 7.32384 20.5277 7.34227 20.3173 7.40272C20.1069 7.46318 19.9105 7.56448 19.7392 7.70084C19.568 7.8372 19.4253 8.00596 19.3193 8.19747C19.2133 8.38898 19.146 8.5995 19.1214 8.817C19.0967 9.0345 19.1151 9.25473 19.1756 9.46512C19.236 9.6755 19.3373 9.87191 19.4737 10.0431C19.6101 10.2144 19.7788 10.3571 19.9703 10.4631L22.6745 11.9598C18.8043 14.0501 15.5214 17.0794 13.1273 20.7694C10.7332 24.4595 9.30479 28.692 8.9732 33.0781C8.9572 33.2967 8.98447 33.5162 9.05343 33.7242C9.1224 33.9322 9.2317 34.1246 9.3751 34.2903C9.5185 34.456 9.69317 34.5918 9.88911 34.6899C10.0851 34.788 10.2984 34.8465 10.517 34.8621C10.7356 34.8776 10.9551 34.8499 11.163 34.7805C11.3708 34.7112 11.563 34.6015 11.7284 34.4577C11.8938 34.314 12.0292 34.1391 12.1269 33.9429C12.2247 33.7468 12.2827 33.5333 12.2979 33.3147C12.5874 29.4905 13.8329 25.8003 15.92 22.5828C18.0071 19.3653 20.8689 16.7235 24.2428 14.9L23.9916 17.9696C23.9738 18.1878 23.9991 18.4073 24.0662 18.6157C24.1332 18.824 24.2406 19.0172 24.3823 19.184C24.6684 19.521 25.0766 19.7305 25.5172 19.7665C25.9578 19.8025 26.3946 19.6619 26.7316 19.3758C26.8985 19.2342 27.0358 19.061 27.1357 18.8663C27.2357 18.6715 27.2963 18.459 27.3141 18.2409L27.8154 12.1167C27.8414 11.7971 27.7746 11.4767 27.6232 11.194C27.4717 10.9113 27.242 10.6783 26.9614 10.5228Z" fill="#010E37"/>
<path d="M59.5122 35.5246C59.2941 35.5045 59.0742 35.5277 58.8651 35.5928C58.656 35.6579 58.4618 35.7637 58.2936 35.904C58.1255 36.0443 57.9867 36.2165 57.8852 36.4105C57.7838 36.6046 57.7216 36.8168 57.7023 37.035C57.3644 40.87 56.0549 44.5556 53.8972 47.7439C51.7395 50.9323 48.805 53.5182 45.3705 55.2576C45.2981 55.297 45.2288 55.3418 45.163 55.3915L45.657 51.8603C45.7182 51.4225 45.6032 50.9784 45.337 50.6256C45.0708 50.2727 44.6754 50.04 44.2377 49.9788C44.0209 49.9484 43.8004 49.961 43.5885 50.0159C43.3767 50.0708 43.1777 50.1669 43.003 50.2987C42.6501 50.5649 42.4175 50.9603 42.3562 51.398L41.5044 57.4831C41.4599 57.8008 41.508 58.1245 41.6429 58.4155C41.7778 58.7065 41.9938 58.9524 42.265 59.1237L47.4614 62.4039C47.6465 62.5207 47.8528 62.6 48.0685 62.6371C48.2843 62.6742 48.5052 62.6685 48.7187 62.6202C48.9322 62.572 49.1341 62.4821 49.3129 62.3558C49.4917 62.2295 49.6438 62.0693 49.7607 61.8842C49.8775 61.6991 49.9568 61.4928 49.9939 61.277C50.031 61.0613 50.0253 60.8404 49.977 60.6269C49.9287 60.4134 49.8389 60.2115 49.7126 60.0327C49.5863 59.8539 49.426 59.7017 49.2409 59.5849L46.9947 58.1672C50.9039 56.1644 54.2413 53.2028 56.6946 49.5594C59.1479 45.916 60.637 41.7099 61.0226 37.3344C61.0623 36.8941 60.9255 36.4561 60.6422 36.1167C60.359 35.7773 59.9525 35.5643 59.5122 35.5246Z" fill="#010E37"/>
<path d="M64.9987 5.55556H49.276L47.3989 2.4273C46.9528 1.68865 46.3241 1.07732 45.5732 0.652184C44.8223 0.22705 43.9746 0.00244289 43.1118 0H38.332C37.0064 0.00144406 35.7355 0.528692 34.7981 1.46606C33.8607 2.40343 33.3335 3.67436 33.332 5V28.3333C33.3335 29.659 33.8607 30.9299 34.7981 31.8673C35.7355 32.8046 37.0064 33.3319 38.332 33.3333H64.9987C66.3243 33.3319 67.5953 32.8046 68.5326 31.8673C69.47 30.9299 69.9973 29.659 69.9987 28.3333V10.5556C69.9973 9.22992 69.47 7.95899 68.5326 7.02162C67.5953 6.08425 66.3243 5.557 64.9987 5.55556ZM66.6654 28.3333C66.6649 28.7752 66.4891 29.1989 66.1767 29.5113C65.8642 29.8238 65.4406 29.9995 64.9987 30H38.332C37.8902 29.9995 37.4665 29.8238 37.1541 29.5113C36.8416 29.1989 36.6658 28.7752 36.6654 28.3333V5C36.6658 4.55812 36.8416 4.13448 37.1541 3.82202C37.4665 3.50957 37.8902 3.33382 38.332 3.33333H43.1118C43.3993 3.33428 43.6817 3.40913 43.932 3.55069C44.1822 3.69225 44.3919 3.89577 44.5408 4.14171L47.388 8.88889H64.9987C65.4406 8.88937 65.8642 9.06512 66.1767 9.37758C66.4891 9.69003 66.6649 10.1137 66.6654 10.5556V28.3333Z" fill="#010E37"/>
<path d="M50.5553 23.334H40.5553C40.1133 23.334 39.6894 23.5096 39.3768 23.8221C39.0643 24.1347 38.8887 24.5586 38.8887 25.0007C38.8887 25.4427 39.0643 25.8666 39.3768 26.1792C39.6894 26.4917 40.1133 26.6673 40.5553 26.6673H50.5553C50.9974 26.6673 51.4213 26.4917 51.7339 26.1792C52.0464 25.8666 52.222 25.4427 52.222 25.0007C52.222 24.5586 52.0464 24.1347 51.7339 23.8221C51.4213 23.5096 50.9974 23.334 50.5553 23.334Z" fill="#010E37"/>
<path d="M31.6667 42.2216H15.9444L14.0667 39.0882C13.6183 38.3516 12.9887 37.7423 12.2379 37.3182C11.4871 36.8942 10.6401 36.6696 9.77778 36.666H5C3.67453 36.668 2.40391 37.1954 1.46666 38.1327C0.529413 39.0699 0.00198961 40.3405 0 41.666V64.9993C0.00200134 66.3248 0.529428 67.5954 1.46668 68.5327C2.40393 69.4699 3.67453 69.9973 5 69.9993H31.6667C32.9921 69.9973 34.2627 69.4699 35.2 68.5327C36.1372 67.5954 36.6647 66.3248 36.6667 64.9993V47.2216C36.6647 45.8961 36.1373 44.6255 35.2 43.6882C34.2628 42.751 32.9921 42.2236 31.6667 42.2216ZM17.2222 63.3327H7.22222C6.7802 63.3327 6.35627 63.1571 6.04371 62.8445C5.73115 62.532 5.55556 62.108 5.55556 61.666C5.55556 61.224 5.73115 60.8001 6.04371 60.4875C6.35627 60.1749 6.7802 59.9993 7.22222 59.9993H17.2222C17.6643 59.9993 18.0882 60.1749 18.4007 60.4875C18.7133 60.8001 18.8889 61.224 18.8889 61.666C18.8889 62.108 18.7133 62.532 18.4007 62.8445C18.0882 63.1571 17.6643 63.3327 17.2222 63.3327Z" fill="#1268FB"/>
</svg>
