<svg width="70" height="70" viewBox="0 0 70 70" fill="none" xmlns="http://www.w3.org/2000/svg">
<path d="M46.1098 56.1102C47.6439 56.1102 48.8876 54.8666 48.8876 53.3325C48.8876 51.7983 47.6439 50.5547 46.1098 50.5547C44.5757 50.5547 43.332 51.7983 43.332 53.3325C43.332 54.8666 44.5757 56.1102 46.1098 56.1102Z" fill="#1268FB"/>
<path d="M68.332 55.5551C68.7741 55.5551 69.198 55.3795 69.5105 55.067C69.8231 54.7544 69.9987 54.3305 69.9987 53.8885C69.9987 53.4464 69.8231 53.0225 69.5105 52.7099C69.198 52.3974 68.7741 52.2218 68.332 52.2218H66.6654V48.8885H68.332C68.7741 48.8885 69.198 48.7129 69.5105 48.4003C69.8231 48.0877 69.9987 47.6638 69.9987 47.2218C69.9987 46.7798 69.8231 46.3558 69.5105 46.0433C69.198 45.7307 68.7741 45.5551 68.332 45.5551H66.6092C66.4753 44.3362 65.8973 43.2093 64.9854 42.3895C64.0735 41.5697 62.8916 41.1145 61.6654 41.1107H61.1098V39.444C61.1098 39.002 60.9342 38.5781 60.6217 38.2655C60.3091 37.9529 59.8852 37.7773 59.4431 37.7773C59.0011 37.7773 58.5772 37.9529 58.2646 38.2655C57.9521 38.5781 57.7765 39.002 57.7765 39.444V41.1107H53.332V39.444C53.332 39.002 53.1564 38.5781 52.8439 38.2655C52.5313 37.9529 52.1074 37.7773 51.6654 37.7773C51.2233 37.7773 50.7994 37.9529 50.4869 38.2655C50.1743 38.5781 49.9987 39.002 49.9987 39.444V41.1107H45.5543V39.444C45.5543 39.002 45.3787 38.5781 45.0661 38.2655C44.7535 37.9529 44.3296 37.7773 43.8876 37.7773C43.4456 37.7773 43.0216 37.9529 42.7091 38.2655C42.3965 38.5781 42.2209 39.002 42.2209 39.444V41.1107H41.6654C40.4391 41.1145 39.2573 41.5697 38.3454 42.3895C37.4335 43.2093 36.8554 44.3362 36.7215 45.5551H34.9987C34.5567 45.5551 34.1327 45.7307 33.8202 46.0433C33.5076 46.3558 33.332 46.7798 33.332 47.2218C33.332 47.6638 33.5076 48.0877 33.8202 48.4003C34.1327 48.7129 34.5567 48.8885 34.9987 48.8885H36.6654V52.2218H34.9987C34.5567 52.2218 34.1327 52.3974 33.8202 52.7099C33.5076 53.0225 33.332 53.4464 33.332 53.8885C33.332 54.3305 33.5076 54.7544 33.8202 55.067C34.1327 55.3795 34.5567 55.5551 34.9987 55.5551H36.6654V58.8885H34.9987C34.5567 58.8885 34.1327 59.064 33.8202 59.3766C33.5076 59.6892 33.332 60.1131 33.332 60.5551C33.332 60.9971 33.5076 61.4211 33.8202 61.7336C34.1327 62.0462 34.5567 62.2218 34.9987 62.2218H36.7215C36.8554 63.4407 37.4335 64.5676 38.3454 65.3874C39.2573 66.2072 40.4391 66.6624 41.6654 66.6662H42.2209V68.3329C42.2209 68.7749 42.3965 69.1988 42.7091 69.5114C43.0216 69.824 43.4456 69.9996 43.8876 69.9996C44.3296 69.9996 44.7535 69.824 45.0661 69.5114C45.3787 69.1988 45.5543 68.7749 45.5543 68.3329V66.6662H49.9987V68.3329C49.9987 68.7749 50.1743 69.1988 50.4869 69.5114C50.7994 69.824 51.2233 69.9996 51.6654 69.9996C52.1074 69.9996 52.5313 69.824 52.8439 69.5114C53.1564 69.1988 53.332 68.7749 53.332 68.3329V66.6662H57.7765V68.3329C57.7765 68.7749 57.9521 69.1988 58.2646 69.5114C58.5772 69.824 59.0011 69.9996 59.4431 69.9996C59.8852 69.9996 60.3091 69.824 60.6217 69.5114C60.9342 69.1988 61.1098 68.7749 61.1098 68.3329V66.6662H61.6654C62.8916 66.6624 64.0735 66.2072 64.9854 65.3874C65.8973 64.5676 66.4753 63.4407 66.6092 62.2218H68.332C68.7741 62.2218 69.198 62.0462 69.5105 61.7336C69.8231 61.4211 69.9987 60.9971 69.9987 60.5551C69.9987 60.1131 69.8231 59.6892 69.5105 59.3766C69.198 59.064 68.7741 58.8885 68.332 58.8885H66.6654V55.5551H68.332ZM63.332 58.8885C63.332 59.3305 63.1564 59.7544 62.8439 60.067C62.5313 60.3795 62.1074 60.5551 61.6654 60.5551C61.2233 60.5551 60.7994 60.3795 60.4869 60.067C60.1743 59.7544 59.9987 59.3305 59.9987 58.8885V54.9996H57.7765V58.8885C57.7765 59.3305 57.6009 59.7544 57.2883 60.067C56.9758 60.3795 56.5518 60.5551 56.1098 60.5551C55.6678 60.5551 55.2439 60.3795 54.9313 60.067C54.6187 59.7544 54.4431 59.3305 54.4431 58.8885V54.9996H51.984C51.5817 56.4187 50.6797 57.6444 49.4445 58.4505C48.2093 59.2567 46.7241 59.5889 45.2632 59.3858C43.8022 59.1827 42.464 58.4581 41.4954 57.3456C40.5269 56.2332 39.9934 54.8079 39.9934 53.3329C39.9934 51.8579 40.5269 50.4326 41.4954 49.3202C42.464 48.2077 43.8022 47.4831 45.2632 47.28C46.7241 47.0769 48.2093 47.4091 49.4445 48.2153C50.6797 49.0214 51.5817 50.2471 51.984 51.6662H61.6654C62.1074 51.6663 62.5313 51.8419 62.8439 52.1544C63.1564 52.467 63.332 52.8909 63.332 53.3329V58.8885Z" fill="#1268FB"/>
<path d="M35 0C25.7174 0 16.815 3.68749 10.2513 10.2513C3.68749 16.815 0 25.7174 0 35C0 44.2826 3.68749 53.185 10.2513 59.7487C16.815 66.3125 25.7174 70 35 70C35.442 70 35.866 69.8244 36.1785 69.5118C36.4911 69.1993 36.6667 68.7754 36.6667 68.3333C36.6667 67.8913 36.4911 67.4674 36.1785 67.1548C35.866 66.8423 35.442 66.6667 35 66.6667C29.8328 66.6667 25.2165 59.8347 22.8287 50H29.4439C29.8859 50 30.3099 49.8244 30.6224 49.5118C30.935 49.1993 31.1106 48.7754 31.1106 48.3333C31.1106 47.8913 30.935 47.4674 30.6224 47.1548C30.3099 46.8423 29.8859 46.6667 29.4439 46.6667H22.1302C20.7714 38.9482 20.7714 31.0518 22.1302 23.3333H47.8712C48.4321 26.4704 48.761 29.6445 48.8553 32.8299C48.8594 33.0494 48.9074 33.266 48.9964 33.4667C49.0855 33.6675 49.2137 33.8484 49.3737 33.9988C49.5337 34.1493 49.7222 34.2662 49.928 34.3427C50.1339 34.4193 50.353 34.4538 50.5724 34.4444C50.7911 34.4378 51.0065 34.3881 51.206 34.2983C51.4056 34.2084 51.5855 34.0801 51.7355 33.9207C51.8855 33.7613 52.0026 33.5739 52.0801 33.3692C52.1577 33.1646 52.1942 32.9466 52.1875 32.7279C52.0954 29.5792 51.7891 26.4404 51.2705 23.3333H64.43C65.9091 27.0451 66.6681 31.0044 66.6667 35C66.6657 36.1145 66.607 37.2282 66.4909 38.3366C66.4448 38.7762 66.5753 39.216 66.8536 39.5594C67.1319 39.9028 67.5351 40.1216 67.9747 40.1676C68.4143 40.2137 68.8542 40.0832 69.1976 39.805C69.541 39.5267 69.7597 39.1234 69.8058 38.6838C69.9343 37.4601 69.9991 36.2305 70 35C69.9895 25.7206 66.2986 16.8244 59.7371 10.2629C53.1756 3.70136 44.2794 0.0104988 35 0ZM26.4137 4.52603C23.3386 8.0525 20.8799 13.4422 19.3849 20H7.119C9.13874 16.2629 11.8867 12.9683 15.2006 10.3106C18.5145 7.65292 22.3272 5.68603 26.4137 4.52603ZM26.4137 65.474C22.3272 64.314 18.5145 62.3471 15.2006 59.6894C11.8867 57.0317 9.13874 53.7371 7.119 50H19.3849C20.8799 56.5578 23.3386 61.9475 26.4137 65.474ZM18.7271 46.6667H5.57C2.58778 39.1748 2.58778 30.8252 5.57 23.3333H18.7271C17.4613 31.0596 17.4613 38.9404 18.7271 46.6667ZM22.8287 20C25.2165 10.1653 29.8328 3.33333 35 3.33333C40.1231 3.33333 44.7694 10.145 47.1706 20H22.8287ZM50.6139 20C49.1171 13.4297 46.6592 8.04688 43.5925 4.52778C47.6778 5.6883 51.4892 7.65525 54.802 10.3126C58.1148 12.9699 60.8618 16.2638 62.881 20H50.6139Z" fill="#010E37"/>
</svg>
