<svg width="70" height="71" viewBox="0 0 70 71" fill="none" xmlns="http://www.w3.org/2000/svg">
<path d="M54.4436 48.3333V45C54.4436 43.6739 53.9168 42.4021 52.9791 41.4645C52.0414 40.5268 50.7696 40 49.4436 40H20.5547C19.2286 40 17.9568 40.5268 17.0192 41.4645C16.0815 42.4021 15.5547 43.6739 15.5547 45V48.3333C15.5547 49.6594 16.0815 50.9312 17.0192 51.8689C17.9568 52.8065 19.2286 53.3333 20.5547 53.3333H49.4436C50.7696 53.3333 52.0414 52.8065 52.9791 51.8689C53.9168 50.9312 54.4436 49.6594 54.4436 48.3333ZM42.7769 45H44.9991C45.4411 45 45.8651 45.1756 46.1776 45.4882C46.4902 45.8007 46.6658 46.2246 46.6658 46.6667C46.6658 47.1087 46.4902 47.5326 46.1776 47.8452C45.8651 48.1577 45.4411 48.3333 44.9991 48.3333H42.7769C42.3349 48.3333 41.9109 48.1577 41.5984 47.8452C41.2858 47.5326 41.1102 47.1087 41.1102 46.6667C41.1102 46.2246 41.2858 45.8007 41.5984 45.4882C41.9109 45.1756 42.3349 45 42.7769 45ZM24.9991 45H36.1102C36.5523 45 36.9762 45.1756 37.2887 45.4882C37.6013 45.8007 37.7769 46.2246 37.7769 46.6667C37.7769 47.1087 37.6013 47.5326 37.2887 47.8452C36.9762 48.1577 36.5523 48.3333 36.1102 48.3333H24.9991C24.5571 48.3333 24.1332 48.1577 23.8206 47.8452C23.5081 47.5326 23.3325 47.1087 23.3325 46.6667C23.3325 46.2246 23.5081 45.8007 23.8206 45.4882C24.1332 45.1756 24.5571 45 24.9991 45Z" fill="#1268FB"/>
<path d="M15.5547 61.668V65.0013C15.5547 66.3274 16.0815 67.5991 17.0192 68.5368C17.9568 69.4745 19.2286 70.0013 20.5547 70.0013H49.4436C50.7696 70.0013 52.0414 69.4745 52.9791 68.5368C53.9168 67.5991 54.4436 66.3274 54.4436 65.0013V61.668C54.4436 60.3419 53.9168 59.0701 52.9791 58.1324C52.0414 57.1948 50.7696 56.668 49.4436 56.668H20.5547C19.2286 56.668 17.9568 57.1948 17.0192 58.1324C16.0815 59.0701 15.5547 60.3419 15.5547 61.668ZM36.1102 65.0013H24.9991C24.5571 65.0013 24.1332 64.8257 23.8206 64.5131C23.5081 64.2006 23.3325 63.7767 23.3325 63.3346C23.3325 62.8926 23.5081 62.4687 23.8206 62.1561C24.1332 61.8436 24.5571 61.668 24.9991 61.668H36.1102C36.5523 61.668 36.9762 61.8436 37.2887 62.1561C37.6013 62.4687 37.7769 62.8926 37.7769 63.3346C37.7769 63.7767 37.6013 64.2006 37.2887 64.5131C36.9762 64.8257 36.5523 65.0013 36.1102 65.0013ZM44.9991 65.0013H42.7769C42.3349 65.0013 41.9109 64.8257 41.5984 64.5131C41.2858 64.2006 41.1102 63.7767 41.1102 63.3346C41.1102 62.8926 41.2858 62.4687 41.5984 62.1561C41.9109 61.8436 42.3349 61.668 42.7769 61.668H44.9991C45.4411 61.668 45.8651 61.8436 46.1776 62.1561C46.4902 62.4687 46.6658 62.8926 46.6658 63.3346C46.6658 63.7767 46.4902 64.2006 46.1776 64.5131C45.8651 64.8257 45.4411 65.0013 44.9991 65.0013Z" fill="#1268FB"/>
<path d="M54.4162 20.3927C54.5453 17.7628 54.1388 15.134 53.2213 12.6659C52.3038 10.1979 50.8945 7.9419 49.0788 6.03493C47.2631 4.12795 45.079 2.60971 42.6589 1.57232C40.2388 0.534924 37.6331 0 35 0C32.3669 0 29.7613 0.534924 27.3411 1.57232C24.921 2.60971 22.7369 4.12795 20.9212 6.03493C19.1055 7.9419 17.6962 10.1979 16.7787 12.6659C15.8612 15.134 15.4547 17.7628 15.5838 20.3927C11.7071 21.1778 8.16217 23.1266 5.42195 25.9789C2.68173 28.8313 0.876616 32.4515 0.247518 36.3565C-0.38158 40.2615 0.195261 44.2655 1.90106 47.8341C3.60685 51.4027 6.36046 54.3662 9.7944 56.3291C10.178 56.5481 10.6328 56.6059 11.0589 56.4898C11.4851 56.3737 11.8478 56.0933 12.0673 55.71C12.2868 55.3267 12.3452 54.872 12.2297 54.4457C12.1142 54.0194 11.8343 53.6563 11.4513 53.4363C8.50497 51.7532 6.1654 49.1827 4.76632 46.0913C3.36724 43 2.98012 39.5458 3.66018 36.2215C4.34024 32.8972 6.05274 29.8725 8.5534 27.579C11.0541 25.2854 14.2151 23.8401 17.5857 23.4493C17.8056 23.424 18.0182 23.3551 18.2111 23.2468C18.4041 23.1384 18.5735 22.9927 18.7096 22.8182C18.8456 22.6437 18.9456 22.4438 19.0036 22.2302C19.0615 22.0167 19.0764 21.7937 19.0473 21.5743C18.7415 19.2998 18.9256 16.9862 19.5873 14.7887C20.2489 12.5912 21.3728 10.5606 22.8836 8.83312C24.3944 7.10561 26.2572 5.72113 28.3469 4.77255C30.4366 3.82397 32.7051 3.33323 35 3.33323C37.295 3.33323 39.5634 3.82397 41.6531 4.77255C43.7428 5.72113 45.6056 7.10561 47.1164 8.83312C48.6272 10.5606 49.7511 12.5912 50.4127 14.7887C51.0744 16.9862 51.2585 19.2998 50.9527 21.5743C50.9237 21.7938 50.9386 22.0168 50.9967 22.2304C51.0548 22.444 51.1548 22.6439 51.291 22.8184C51.4271 22.9929 51.5967 23.1386 51.7897 23.2469C51.9828 23.3553 52.1954 23.4241 52.4154 23.4493C55.8617 23.8493 59.0868 25.3513 61.6107 27.7318C64.1347 30.1123 65.8226 33.244 66.4233 36.6611C67.0241 40.0781 66.5055 43.5978 64.9448 46.6964C63.3841 49.795 60.8647 52.3069 57.7615 53.8584C57.3671 54.0568 57.0676 54.4036 56.9287 54.8227C56.7898 55.2417 56.8228 55.6988 57.0206 56.0935C57.2184 56.4882 57.5647 56.7883 57.9836 56.9279C58.4024 57.0675 58.8595 57.0351 59.2545 56.838C62.8744 55.0274 65.839 52.1324 67.7349 48.5565C69.6308 44.9807 70.3635 40.9023 69.8309 36.8901C69.2982 32.8779 67.5268 29.132 64.7636 26.1747C62.0003 23.2173 58.3831 21.196 54.4162 20.3927Z" fill="white"/>
<path d="M27.7786 34.9998V30.5553C27.7786 30.1133 27.603 29.6894 27.2905 29.3768C26.9779 29.0643 26.554 28.8887 26.112 28.8887C25.67 28.8887 25.246 29.0643 24.9335 29.3768C24.6209 29.6894 24.4453 30.1133 24.4453 30.5553V34.9998C24.4453 35.4418 24.6209 35.8657 24.9335 36.1783C25.246 36.4909 25.67 36.6664 26.112 36.6664C26.554 36.6664 26.9779 36.4909 27.2905 36.1783C27.603 35.8657 27.7786 35.4418 27.7786 34.9998Z" fill="white"/>
<path d="M36.6654 34.9998V30.5553C36.6654 30.1133 36.4898 29.6894 36.1772 29.3768C35.8646 29.0643 35.4407 28.8887 34.9987 28.8887C34.5567 28.8887 34.1327 29.0643 33.8202 29.3768C33.5076 29.6894 33.332 30.1133 33.332 30.5553V34.9998C33.332 35.4418 33.5076 35.8657 33.8202 36.1783C34.1327 36.4909 34.5567 36.6664 34.9987 36.6664C35.4407 36.6664 35.8646 36.4909 36.1772 36.1783C36.4898 35.8657 36.6654 35.4418 36.6654 34.9998Z" fill="white"/>
<path d="M45.556 34.9998V30.5553C45.556 30.1133 45.3804 29.6894 45.0678 29.3768C44.7553 29.0643 44.3313 28.8887 43.8893 28.8887C43.4473 28.8887 43.0234 29.0643 42.7108 29.3768C42.3982 29.6894 42.2227 30.1133 42.2227 30.5553V34.9998C42.2227 35.4418 42.3982 35.8657 42.7108 36.1783C43.0234 36.4909 43.4473 36.6664 43.8893 36.6664C44.3313 36.6664 44.7553 36.4909 45.0678 36.1783C45.3804 35.8657 45.556 35.4418 45.556 34.9998Z" fill="white"/>
</svg>
