<svg width="74" height="74" viewBox="0 0 74 74" fill="none" xmlns="http://www.w3.org/2000/svg">
<path d="M37.0005 62.6094C51.106 62.6094 62.6104 51.105 62.6104 36.9995C62.6104 22.894 51.106 11.3894 37.0005 11.3894C22.895 11.3894 11.3906 22.894 11.3906 36.9995C11.3906 51.105 22.895 62.6094 37.0005 62.6094Z" stroke="#002699" stroke-width="3" stroke-miterlimit="22.926" stroke-linecap="round" stroke-linejoin="round"/>
<path d="M12.2871 37H61.7153" stroke="#002699" stroke-width="3" stroke-miterlimit="22.926" stroke-linecap="round" stroke-linejoin="round"/>
<path d="M37.0006 62.4805C41.9374 62.4805 45.9642 51.0336 45.9642 36.9985C45.9642 22.9636 41.9374 11.5165 37.0006 11.5165C32.0637 11.5165 28.0371 22.9636 28.0371 36.9985C28.0371 51.0336 32.0637 62.4805 37.0006 62.4805Z" stroke="#002699" stroke-width="3" stroke-miterlimit="22.926" stroke-linecap="round" stroke-linejoin="round"/>
<path d="M54.9723 19.3896C50.1808 24.1099 43.7249 26.7559 36.9988 26.7559C30.2728 26.7559 23.8169 24.1099 19.0254 19.3895" stroke="#002699" stroke-width="3" stroke-miterlimit="22.926" stroke-linecap="round" stroke-linejoin="round"/>
<path d="M19.0254 54.6094C23.8169 49.8889 30.2728 47.243 36.9988 47.243C43.7249 47.243 50.1808 49.8889 54.9723 54.6094" stroke="#002699" stroke-width="3" stroke-miterlimit="22.926" stroke-linecap="round" stroke-linejoin="round"/>
<path d="M68.4436 1.99942C70.4082 1.99942 72.0006 3.59179 72.0006 5.55635C72.0006 7.52077 70.4082 9.11328 68.4436 9.11328C66.4792 9.11328 64.8867 7.52077 64.8867 5.55635C64.8867 3.59179 66.4792 1.99942 68.4436 1.99942Z" stroke="#002699" stroke-width="3" stroke-miterlimit="22.926" stroke-linecap="round" stroke-linejoin="round"/>
<path d="M68.4436 17.2709C70.4082 17.2709 72.0006 18.8634 72.0006 20.8278C72.0006 22.7924 70.4082 24.3848 68.4436 24.3848C66.4792 24.3848 64.8867 22.7924 64.8867 20.8278C64.8867 18.8634 66.4792 17.2709 68.4436 17.2709Z" stroke="#002699" stroke-width="3" stroke-miterlimit="22.926" stroke-linecap="round" stroke-linejoin="round"/>
<path d="M68.4436 49.6148C70.4082 49.6148 72.0006 51.2072 72.0006 53.1717C72.0006 55.1361 70.4082 56.7285 68.4436 56.7285C66.4792 56.7285 64.8867 55.1361 64.8867 53.1717C64.8867 51.2072 66.4792 49.6148 68.4436 49.6148V49.6148Z" stroke="#002699" stroke-width="3" stroke-miterlimit="22.926" stroke-linecap="round" stroke-linejoin="round"/>
<path d="M68.4436 64.8861C70.4082 64.8861 72.0006 66.4785 72.0006 68.4431C72.0006 70.4076 70.4082 72 68.4436 72C66.4792 72 64.8867 70.4076 64.8867 68.4431C64.8867 66.4785 66.4792 64.8861 68.4436 64.8861Z" stroke="#002699" stroke-width="3" stroke-miterlimit="22.926" stroke-linecap="round" stroke-linejoin="round"/>
<path d="M47.3887 13.5078L51.98 5.5558H64.1754" stroke="#002699" stroke-width="3" stroke-miterlimit="22.926" stroke-linecap="round" stroke-linejoin="round"/>
<path d="M49.5957 59.3839L54.8262 68.4434H64.1761" stroke="#002699" stroke-width="3" stroke-miterlimit="22.926" stroke-linecap="round" stroke-linejoin="round"/>
<path d="M56.9473 53.1719H64.1741" stroke="#002699" stroke-width="3" stroke-miterlimit="22.926" stroke-linecap="round" stroke-linejoin="round"/>
<path d="M56.9473 20.8281H64.1741" stroke="#002699" stroke-width="3" stroke-miterlimit="22.926" stroke-linecap="round" stroke-linejoin="round"/>
<path d="M5.55693 1.99942C3.59237 1.99942 2 3.59179 2 5.55635C2 7.52077 3.59237 9.11328 5.55693 9.11328C7.52135 9.11328 9.11386 7.52077 9.11386 5.55635C9.11386 3.59179 7.52135 1.99942 5.55693 1.99942Z" stroke="#002699" stroke-width="3" stroke-miterlimit="22.926" stroke-linecap="round" stroke-linejoin="round"/>
<path d="M5.55693 17.2709C3.59237 17.2709 2 18.8634 2 20.8278C2 22.7924 3.59237 24.3848 5.55693 24.3848C7.52135 24.3848 9.11386 22.7924 9.11386 20.8278C9.11386 18.8634 7.52135 17.2709 5.55693 17.2709Z" stroke="#002699" stroke-width="3" stroke-miterlimit="22.926" stroke-linecap="round" stroke-linejoin="round"/>
<path d="M5.55693 49.6148C3.59237 49.6148 2 51.2072 2 53.1717C2 55.1361 3.59237 56.7285 5.55693 56.7285C7.52135 56.7285 9.11386 55.1361 9.11386 53.1717C9.11386 51.2072 7.52135 49.6148 5.55693 49.6148Z" stroke="#002699" stroke-width="3" stroke-miterlimit="22.926" stroke-linecap="round" stroke-linejoin="round"/>
<path d="M5.55693 64.8861C3.59237 64.8861 2 66.4785 2 68.4431C2 70.4076 3.59237 72 5.55693 72C7.52135 72 9.11386 70.4076 9.11386 68.4431C9.11386 66.4785 7.52135 64.8861 5.55693 64.8861Z" stroke="#002699" stroke-width="3" stroke-miterlimit="22.926" stroke-linecap="round" stroke-linejoin="round"/>
<path d="M26.6129 13.5078L22.0217 5.5558H9.82617" stroke="#002699" stroke-width="3" stroke-miterlimit="22.926" stroke-linecap="round" stroke-linejoin="round"/>
<path d="M24.4066 59.3839L19.1761 68.4434H9.82617" stroke="#002699" stroke-width="3" stroke-miterlimit="22.926" stroke-linecap="round" stroke-linejoin="round"/>
<path d="M17.053 53.1719H9.82617" stroke="#002699" stroke-width="3" stroke-miterlimit="22.926" stroke-linecap="round" stroke-linejoin="round"/>
<path d="M17.053 20.8281H9.82617" stroke="#002699" stroke-width="3" stroke-miterlimit="22.926" stroke-linecap="round" stroke-linejoin="round"/>
<path fill-rule="evenodd" clip-rule="evenodd" d="M30.0021 21.3476L23.0039 28.3458C23.0039 39.055 24.7947 49.3782 37.0001 52.6484C49.2055 49.3782 50.9965 39.055 50.9965 28.3458L43.9983 21.3476H30.0021Z" fill="#1268FB"/>
<path d="M32.3592 27.0398L28.7266 30.6723C28.8454 34.627 29.3648 39.1544 31.3524 42.3268C32.7271 44.521 34.6826 45.8493 37 46.6914C39.3175 45.8493 41.2727 44.521 42.6475 42.3268C44.6351 39.1544 45.1546 34.627 45.2734 30.6723L41.6408 27.0398H32.3592Z" stroke="white" stroke-width="3" stroke-miterlimit="22.926" stroke-linecap="round" stroke-linejoin="round"/>
</svg>
