<svg width="70" height="70" viewBox="0 0 70 70" fill="none" xmlns="http://www.w3.org/2000/svg">
<path d="M39.0921 18.873H22.1543C21.2841 18.873 20.4495 19.2188 19.8341 19.8341C19.2188 20.4495 18.873 21.2841 18.873 22.1543V39.0921C18.873 39.9624 19.2188 40.7969 19.8341 41.4123C20.4495 42.0277 21.2841 42.3734 22.1543 42.3734H39.0921C39.9624 42.3734 40.7969 42.0277 41.4123 41.4123C42.0277 40.7969 42.3734 39.9624 42.3734 39.0921V22.1543C42.3734 21.2841 42.0277 20.4495 41.4123 19.8341C40.7969 19.2188 39.9624 18.873 39.0921 18.873Z" fill="#1268FB" fill-opacity="0.5"/>
<path d="M49.7812 42.525H66.7191C67.5893 42.525 68.4239 42.1793 69.0393 41.5639C69.6546 40.9486 70.0003 40.114 70.0003 39.2438V22.3125C70.0003 21.4423 69.6546 20.6077 69.0393 19.9923C68.4239 19.377 67.5893 19.0312 66.7191 19.0312H49.7812C48.911 19.0313 48.0764 19.377 47.4611 19.9923C46.8457 20.6077 46.5 21.4423 46.5 22.3125V39.2438C46.5 40.114 46.8457 40.9486 47.4611 41.5639C48.0764 42.1793 48.911 42.525 49.7812 42.525Z" fill="#1268FB" fill-opacity="0.5"/>
<path d="M39.0921 46.3477H22.1543C21.2841 46.3477 20.4495 46.6934 19.8341 47.3087C19.2188 47.9241 18.873 48.7587 18.873 49.6289V66.5667C18.873 67.437 19.2188 68.2716 19.8341 68.8869C20.4495 69.5023 21.2841 69.848 22.1543 69.848H39.0921C39.9624 69.848 40.7969 69.5023 41.4123 68.8869C42.0277 68.2716 42.3734 67.437 42.3734 66.5667V49.6289C42.3734 48.7587 42.0277 47.9241 41.4123 47.3087C40.7969 46.6934 39.9624 46.3477 39.0921 46.3477Z" fill="#1268FB" fill-opacity="0.5"/>
<path d="M66.7191 46.5H49.7812C48.911 46.5 48.0764 46.8457 47.4611 47.4611C46.8457 48.0764 46.5 48.911 46.5 49.7812V66.7191C46.5 67.5893 46.8457 68.4239 47.4611 69.0393C48.0764 69.6546 48.911 70.0003 49.7812 70.0003H66.7191C67.5893 70.0003 68.4239 69.6546 69.0393 69.0393C69.6546 68.4239 70.0003 67.5893 70.0003 66.7191V49.7812C70.0003 48.911 69.6546 48.0764 69.0393 47.4611C68.4239 46.8457 67.5893 46.5 66.7191 46.5Z" fill="#1268FB" fill-opacity="0.5"/>
<path d="M29.0598 0H3.28125C2.41101 0 1.57641 0.345702 0.961056 0.961056C0.345702 1.57641 0 2.41101 0 3.28125L0 49.7656C0 50.6359 0.345702 51.4705 0.961056 52.0858C1.57641 52.7012 2.41101 53.0469 3.28125 53.0469H29.0598C29.9301 53.0469 30.7647 52.7012 31.38 52.0858C31.9954 51.4705 32.3411 50.6359 32.3411 49.7656V3.28125C32.3411 2.41101 31.9954 1.57641 31.38 0.961056C30.7647 0.345702 29.9301 0 29.0598 0V0ZM2.1875 10.6641H30.1536V42.3828H2.1875V10.6641ZM3.28125 2.1875H29.0598C29.3499 2.1875 29.6281 2.30273 29.8332 2.50785C30.0384 2.71297 30.1536 2.99117 30.1536 3.28125V8.47656H2.1875V3.28125C2.1875 2.99117 2.30273 2.71297 2.50785 2.50785C2.71297 2.30273 2.99117 2.1875 3.28125 2.1875ZM29.0598 50.8594H3.28125C2.99117 50.8594 2.71297 50.7441 2.50785 50.539C2.30273 50.3339 2.1875 50.0557 2.1875 49.7656V44.5703H30.1536V49.7656C30.1536 50.0557 30.0384 50.3339 29.8332 50.539C29.6281 50.7441 29.3499 50.8594 29.0598 50.8594Z" fill="#002699"/>
<path d="M10.8633 6.42578H21.4727C21.7627 6.42578 22.0409 6.31055 22.2461 6.10543C22.4512 5.90031 22.5664 5.62211 22.5664 5.33203C22.5664 5.04195 22.4512 4.76375 22.2461 4.55863C22.0409 4.35352 21.7627 4.23828 21.4727 4.23828H10.8633C10.5732 4.23828 10.295 4.35352 10.0899 4.55863C9.88477 4.76375 9.76953 5.04195 9.76953 5.33203C9.76953 5.62211 9.88477 5.90031 10.0899 6.10543C10.295 6.31055 10.5732 6.42578 10.8633 6.42578Z" fill="#002699"/>
<path d="M5.73047 24.9002H13.4108C13.7009 24.9002 13.9791 24.7849 14.1842 24.5798C14.3893 24.3747 14.5045 24.0965 14.5045 23.8064V16.125C14.5045 15.8349 14.3893 15.5567 14.1842 15.3516C13.9791 15.1465 13.7009 15.0312 13.4108 15.0312H5.73047C5.44039 15.0312 5.16219 15.1465 4.95707 15.3516C4.75195 15.5567 4.63672 15.8349 4.63672 16.125V23.8064C4.63672 24.0965 4.75195 24.3747 4.95707 24.5798C5.16219 24.7849 5.44039 24.9002 5.73047 24.9002ZM6.82422 17.2188H12.317V22.7127H6.82422V17.2188Z" fill="#002699"/>
<path d="M13.4119 28.1445H5.73047C5.44039 28.1445 5.16219 28.2598 4.95707 28.4649C4.75195 28.67 4.63672 28.9482 4.63672 29.2383V36.9186C4.63672 37.2087 4.75195 37.4869 4.95707 37.692C5.16219 37.8971 5.44039 38.0123 5.73047 38.0123H13.4119C13.702 38.0123 13.9802 37.8971 14.1853 37.692C14.3904 37.4869 14.5056 37.2087 14.5056 36.9186V29.2383C14.5056 28.9482 14.3904 28.67 14.1853 28.4649C13.9802 28.2598 13.702 28.1445 13.4119 28.1445ZM12.3181 35.8248H6.82422V30.332H12.3181V35.8248Z" fill="#002699"/>
</svg>
