<svg width="70" height="70" viewBox="0 0 70 70" fill="none" xmlns="http://www.w3.org/2000/svg">
<path d="M46.1108 56.1102C47.6449 56.1102 48.8886 54.8666 48.8886 53.3325C48.8886 51.7983 47.6449 50.5547 46.1108 50.5547C44.5767 50.5547 43.333 51.7983 43.333 53.3325C43.333 54.8666 44.5767 56.1102 46.1108 56.1102Z" fill="#5F2DEE"/>
<path d="M68.333 55.5551C68.775 55.5551 69.199 55.3795 69.5115 55.067C69.8241 54.7544 69.9997 54.3305 69.9997 53.8885C69.9997 53.4464 69.8241 53.0225 69.5115 52.7099C69.199 52.3974 68.775 52.2218 68.333 52.2218H66.6663V48.8885H68.333C68.775 48.8885 69.199 48.7129 69.5115 48.4003C69.8241 48.0877 69.9997 47.6638 69.9997 47.2218C69.9997 46.7798 69.8241 46.3558 69.5115 46.0433C69.199 45.7307 68.775 45.5551 68.333 45.5551H66.6102C66.4763 44.3362 65.8982 43.2093 64.9863 42.3895C64.0744 41.5697 62.8926 41.1145 61.6663 41.1107H61.1108V39.444C61.1108 39.002 60.9352 38.5781 60.6226 38.2655C60.3101 37.9529 59.8861 37.7773 59.4441 37.7773C59.0021 37.7773 58.5782 37.9529 58.2656 38.2655C57.953 38.5781 57.7775 39.002 57.7775 39.444V41.1107H53.333V39.444C53.333 39.002 53.1574 38.5781 52.8449 38.2655C52.5323 37.9529 52.1084 37.7773 51.6663 37.7773C51.2243 37.7773 50.8004 37.9529 50.4878 38.2655C50.1753 38.5781 49.9997 39.002 49.9997 39.444V41.1107H45.5552V39.444C45.5552 39.002 45.3796 38.5781 45.0671 38.2655C44.7545 37.9529 44.3306 37.7773 43.8886 37.7773C43.4465 37.7773 43.0226 37.9529 42.7101 38.2655C42.3975 38.5781 42.2219 39.002 42.2219 39.444V41.1107H41.6663C40.4401 41.1145 39.2583 41.5697 38.3464 42.3895C37.4344 43.2093 36.8564 44.3362 36.7225 45.5551H34.9997C34.5576 45.5551 34.1337 45.7307 33.8212 46.0433C33.5086 46.3558 33.333 46.7798 33.333 47.2218C33.333 47.6638 33.5086 48.0877 33.8212 48.4003C34.1337 48.7129 34.5576 48.8885 34.9997 48.8885H36.6663V52.2218H34.9997C34.5576 52.2218 34.1337 52.3974 33.8212 52.7099C33.5086 53.0225 33.333 53.4464 33.333 53.8885C33.333 54.3305 33.5086 54.7544 33.8212 55.067C34.1337 55.3795 34.5576 55.5551 34.9997 55.5551H36.6663V58.8885H34.9997C34.5576 58.8885 34.1337 59.064 33.8212 59.3766C33.5086 59.6892 33.333 60.1131 33.333 60.5551C33.333 60.9971 33.5086 61.4211 33.8212 61.7336C34.1337 62.0462 34.5576 62.2218 34.9997 62.2218H36.7225C36.8564 63.4407 37.4344 64.5676 38.3464 65.3874C39.2583 66.2072 40.4401 66.6624 41.6663 66.6662H42.2219V68.3329C42.2219 68.7749 42.3975 69.1988 42.7101 69.5114C43.0226 69.824 43.4465 69.9996 43.8886 69.9996C44.3306 69.9996 44.7545 69.824 45.0671 69.5114C45.3796 69.1988 45.5552 68.7749 45.5552 68.3329V66.6662H49.9997V68.3329C49.9997 68.7749 50.1753 69.1988 50.4878 69.5114C50.8004 69.824 51.2243 69.9996 51.6663 69.9996C52.1084 69.9996 52.5323 69.824 52.8449 69.5114C53.1574 69.1988 53.333 68.7749 53.333 68.3329V66.6662H57.7775V68.3329C57.7775 68.7749 57.953 69.1988 58.2656 69.5114C58.5782 69.824 59.0021 69.9996 59.4441 69.9996C59.8861 69.9996 60.3101 69.824 60.6226 69.5114C60.9352 69.1988 61.1108 68.7749 61.1108 68.3329V66.6662H61.6663C62.8926 66.6624 64.0744 66.2072 64.9863 65.3874C65.8982 64.5676 66.4763 63.4407 66.6102 62.2218H68.333C68.775 62.2218 69.199 62.0462 69.5115 61.7336C69.8241 61.4211 69.9997 60.9971 69.9997 60.5551C69.9997 60.1131 69.8241 59.6892 69.5115 59.3766C69.199 59.064 68.775 58.8885 68.333 58.8885H66.6663V55.5551H68.333ZM63.333 58.8885C63.333 59.3305 63.1574 59.7544 62.8449 60.067C62.5323 60.3795 62.1084 60.5551 61.6663 60.5551C61.2243 60.5551 60.8004 60.3795 60.4878 60.067C60.1753 59.7544 59.9997 59.3305 59.9997 58.8885V54.9996H57.7775V58.8885C57.7775 59.3305 57.6019 59.7544 57.2893 60.067C56.9767 60.3795 56.5528 60.5551 56.1108 60.5551C55.6688 60.5551 55.2448 60.3795 54.9323 60.067C54.6197 59.7544 54.4441 59.3305 54.4441 58.8885V54.9996H51.9849C51.5827 56.4187 50.6807 57.6444 49.4455 58.4505C48.2102 59.2567 46.7251 59.5889 45.2641 59.3858C43.8032 59.1827 42.465 58.4581 41.4964 57.3456C40.5279 56.2332 39.9944 54.8079 39.9944 53.3329C39.9944 51.8579 40.5279 50.4326 41.4964 49.3202C42.465 48.2077 43.8032 47.4831 45.2641 47.28C46.7251 47.0769 48.2102 47.4091 49.4455 48.2153C50.6807 49.0214 51.5827 50.2471 51.9849 51.6662H61.6663C62.1084 51.6663 62.5323 51.8419 62.8448 52.1544C63.1574 52.467 63.333 52.8909 63.333 53.3329V58.8885Z" fill="#5F2DEE"/>
<path d="M35 0C25.7174 0 16.815 3.68749 10.2513 10.2513C3.68749 16.815 0 25.7174 0 35C0 44.2826 3.68749 53.185 10.2513 59.7487C16.815 66.3125 25.7174 70 35 70C35.442 70 35.866 69.8244 36.1785 69.5118C36.4911 69.1993 36.6667 68.7754 36.6667 68.3333C36.6667 67.8913 36.4911 67.4674 36.1785 67.1548C35.866 66.8423 35.442 66.6667 35 66.6667C29.8328 66.6667 25.2165 59.8347 22.8287 50H29.4439C29.8859 50 30.3099 49.8244 30.6224 49.5118C30.935 49.1993 31.1106 48.7754 31.1106 48.3333C31.1106 47.8913 30.935 47.4674 30.6224 47.1548C30.3099 46.8423 29.8859 46.6667 29.4439 46.6667H22.1302C20.7714 38.9482 20.7714 31.0518 22.1302 23.3333H47.8712C48.4321 26.4704 48.761 29.6445 48.8553 32.8299C48.8594 33.0494 48.9074 33.266 48.9964 33.4667C49.0855 33.6675 49.2137 33.8484 49.3737 33.9988C49.5337 34.1493 49.7222 34.2662 49.928 34.3427C50.1339 34.4193 50.353 34.4538 50.5724 34.4444C50.7911 34.4378 51.0065 34.3881 51.206 34.2983C51.4056 34.2084 51.5855 34.0801 51.7355 33.9207C51.8855 33.7613 52.0026 33.5739 52.0801 33.3692C52.1577 33.1646 52.1942 32.9466 52.1875 32.7279C52.0954 29.5792 51.7891 26.4404 51.2705 23.3333H64.43C65.9091 27.0451 66.6681 31.0044 66.6667 35C66.6657 36.1145 66.607 37.2282 66.4909 38.3366C66.4448 38.7762 66.5753 39.216 66.8536 39.5594C67.1319 39.9028 67.5351 40.1216 67.9747 40.1676C68.4143 40.2137 68.8542 40.0832 69.1976 39.805C69.541 39.5267 69.7597 39.1234 69.8058 38.6838C69.9343 37.4601 69.9991 36.2305 70 35C69.9895 25.7206 66.2986 16.8244 59.7371 10.2629C53.1756 3.70136 44.2794 0.0104988 35 0ZM26.4137 4.52603C23.3386 8.0525 20.8799 13.4422 19.3849 20H7.119C9.13874 16.2629 11.8867 12.9683 15.2006 10.3106C18.5145 7.65292 22.3272 5.68603 26.4137 4.52603ZM26.4137 65.474C22.3272 64.314 18.5145 62.3471 15.2006 59.6894C11.8867 57.0317 9.13874 53.7371 7.119 50H19.3849C20.8799 56.5578 23.3386 61.9475 26.4137 65.474ZM18.7271 46.6667H5.57C2.58778 39.1748 2.58778 30.8252 5.57 23.3333H18.7271C17.4613 31.0596 17.4613 38.9404 18.7271 46.6667ZM22.8287 20C25.2165 10.1653 29.8328 3.33333 35 3.33333C40.1231 3.33333 44.7694 10.145 47.1706 20H22.8287ZM50.6139 20C49.1171 13.4297 46.6592 8.04688 43.5925 4.52778C47.6778 5.6883 51.4892 7.65525 54.802 10.3126C58.1148 12.9699 60.8618 16.2638 62.881 20H50.6139Z" fill="white"/>
</svg>
