<svg width="70" height="70" viewBox="0 0 70 70" fill="none" xmlns="http://www.w3.org/2000/svg">
<path d="M26.9624 10.5228L21.5859 7.54643C21.3944 7.44041 21.1839 7.37316 20.9664 7.3485C20.7489 7.32384 20.5286 7.34227 20.3183 7.40272C20.1079 7.46318 19.9115 7.56448 19.7402 7.70084C19.569 7.8372 19.4263 8.00596 19.3203 8.19747C19.2143 8.38898 19.147 8.5995 19.1223 8.817C19.0977 9.0345 19.1161 9.25473 19.1766 9.46512C19.237 9.6755 19.3383 9.87191 19.4747 10.0431C19.611 10.2144 19.7798 10.3571 19.9713 10.4631L22.6755 11.9598C18.8053 14.0501 15.5223 17.0794 13.1283 20.7694C10.7342 24.4595 9.30577 28.692 8.97417 33.0781C8.95818 33.2967 8.98544 33.5162 9.05441 33.7242C9.12337 33.9322 9.23268 34.1246 9.37608 34.2903C9.51948 34.456 9.69415 34.5918 9.89009 34.6899C10.086 34.788 10.2994 34.8465 10.518 34.8621C10.7366 34.8776 10.9561 34.8499 11.1639 34.7805C11.3718 34.7112 11.5639 34.6015 11.7293 34.4577C11.8948 34.314 12.0302 34.1391 12.1279 33.9429C12.2256 33.7468 12.2837 33.5333 12.2988 33.3147C12.5884 29.4905 13.8339 25.8003 15.921 22.5828C18.0081 19.3653 20.8699 16.7235 24.2438 14.9L23.9926 17.9696C23.9748 18.1878 24.0001 18.4073 24.0671 18.6157C24.1342 18.824 24.2416 19.0172 24.3832 19.184C24.6693 19.521 25.0776 19.7305 25.5182 19.7665C25.9588 19.8025 26.3956 19.6619 26.7326 19.3758C26.8995 19.2342 27.0368 19.061 27.1367 18.8663C27.2367 18.6715 27.2973 18.459 27.3151 18.2409L27.8164 12.1167C27.8423 11.7971 27.7756 11.4767 27.6241 11.194C27.4727 10.9113 27.2429 10.6783 26.9624 10.5228Z" fill="white"/>
<path d="M59.5122 35.5246C59.2941 35.5045 59.0742 35.5277 58.8651 35.5928C58.656 35.6579 58.4618 35.7637 58.2936 35.904C58.1255 36.0443 57.9867 36.2165 57.8852 36.4105C57.7838 36.6046 57.7216 36.8168 57.7023 37.035C57.3644 40.87 56.0549 44.5556 53.8972 47.7439C51.7395 50.9323 48.805 53.5182 45.3705 55.2576C45.2981 55.297 45.2288 55.3418 45.163 55.3915L45.657 51.8603C45.7182 51.4225 45.6032 50.9784 45.337 50.6256C45.0708 50.2727 44.6754 50.04 44.2377 49.9788C44.0209 49.9484 43.8004 49.961 43.5885 50.0159C43.3767 50.0708 43.1777 50.1669 43.003 50.2987C42.6501 50.5649 42.4175 50.9603 42.3562 51.398L41.5044 57.4831C41.4599 57.8008 41.508 58.1245 41.6429 58.4155C41.7778 58.7065 41.9938 58.9524 42.265 59.1237L47.4614 62.4039C47.6465 62.5207 47.8528 62.6 48.0685 62.6371C48.2843 62.6742 48.5052 62.6685 48.7187 62.6202C48.9322 62.572 49.1341 62.4821 49.3129 62.3558C49.4917 62.2295 49.6438 62.0693 49.7607 61.8842C49.8775 61.6991 49.9568 61.4928 49.9939 61.277C50.031 61.0613 50.0253 60.8404 49.977 60.6269C49.9287 60.4134 49.8389 60.2115 49.7126 60.0327C49.5863 59.8539 49.426 59.7017 49.2409 59.5849L46.9947 58.1672C50.9039 56.1644 54.2413 53.2028 56.6946 49.5594C59.1479 45.916 60.637 41.7099 61.0226 37.3344C61.0623 36.8941 60.9255 36.4561 60.6422 36.1167C60.359 35.7773 59.9525 35.5643 59.5122 35.5246Z" fill="white"/>
<path d="M64.9997 5.55556H49.277L47.3999 2.4273C46.9538 1.68865 46.3251 1.07732 45.5742 0.652184C44.8233 0.22705 43.9756 0.00244289 43.1127 0H38.333C37.0074 0.00144406 35.7364 0.528692 34.7991 1.46606C33.8617 2.40343 33.3345 3.67436 33.333 5V28.3333C33.3345 29.659 33.8617 30.9299 34.7991 31.8673C35.7364 32.8046 37.0074 33.3319 38.333 33.3333H64.9997C66.3253 33.3319 67.5962 32.8046 68.5336 31.8673C69.471 30.9299 69.9982 29.659 69.9997 28.3333V10.5556C69.9982 9.22992 69.471 7.95899 68.5336 7.02162C67.5962 6.08425 66.3253 5.557 64.9997 5.55556ZM66.6663 28.3333C66.6659 28.7752 66.4901 29.1989 66.1777 29.5113C65.8652 29.8238 65.4416 29.9995 64.9997 30H38.333C37.8911 29.9995 37.4675 29.8238 37.155 29.5113C36.8426 29.1989 36.6668 28.7752 36.6663 28.3333V5C36.6668 4.55812 36.8426 4.13448 37.155 3.82202C37.4675 3.50957 37.8911 3.33382 38.333 3.33333H43.1127C43.4003 3.33428 43.6827 3.40913 43.9329 3.55069C44.1832 3.69225 44.3928 3.89577 44.5418 4.14171L47.389 8.88889H64.9997C65.4416 8.88937 65.8652 9.06512 66.1777 9.37758C66.4901 9.69003 66.6659 10.1137 66.6663 10.5556V28.3333Z" fill="white"/>
<path d="M50.5553 23.334H40.5553C40.1133 23.334 39.6894 23.5096 39.3768 23.8221C39.0643 24.1347 38.8887 24.5586 38.8887 25.0007C38.8887 25.4427 39.0643 25.8666 39.3768 26.1792C39.6894 26.4917 40.1133 26.6673 40.5553 26.6673H50.5553C50.9974 26.6673 51.4213 26.4917 51.7339 26.1792C52.0464 25.8666 52.222 25.4427 52.222 25.0007C52.222 24.5586 52.0464 24.1347 51.7339 23.8221C51.4213 23.5096 50.9974 23.334 50.5553 23.334Z" fill="white"/>
<path d="M31.6667 42.2216H15.9444L14.0667 39.0882C13.6183 38.3516 12.9887 37.7423 12.2379 37.3182C11.4871 36.8942 10.6401 36.6696 9.77778 36.666H5C3.67453 36.668 2.40391 37.1954 1.46666 38.1327C0.529413 39.0699 0.00198961 40.3405 0 41.666V64.9993C0.00200134 66.3248 0.529428 67.5954 1.46668 68.5327C2.40393 69.4699 3.67453 69.9973 5 69.9993H31.6667C32.9921 69.9973 34.2627 69.4699 35.2 68.5327C36.1372 67.5954 36.6647 66.3248 36.6667 64.9993V47.2216C36.6647 45.8961 36.1373 44.6255 35.2 43.6882C34.2628 42.751 32.9921 42.2236 31.6667 42.2216ZM17.2222 63.3327H7.22222C6.7802 63.3327 6.35627 63.1571 6.04371 62.8445C5.73115 62.532 5.55556 62.108 5.55556 61.666C5.55556 61.224 5.73115 60.8001 6.04371 60.4875C6.35627 60.1749 6.7802 59.9993 7.22222 59.9993H17.2222C17.6643 59.9993 18.0882 60.1749 18.4007 60.4875C18.7133 60.8001 18.8889 61.224 18.8889 61.666C18.8889 62.108 18.7133 62.532 18.4007 62.8445C18.0882 63.1571 17.6643 63.3327 17.2222 63.3327Z" fill="#5F2DEE"/>
</svg>
