<svg width="71" height="70" viewBox="0 0 71 70" fill="none" xmlns="http://www.w3.org/2000/svg">
<path d="M68.8722 25.9667C67.0762 25.9649 65.3542 25.2506 64.0842 23.9806C62.8141 22.7106 62.0999 20.9886 62.0981 19.1925V17.5554C62.0981 17.328 62.0295 17.1059 61.9011 16.9181C61.7728 16.7303 61.5908 16.5857 61.3789 16.5032C51.6998 12.5979 40.8835 12.5979 31.2044 16.5032C30.9925 16.5857 30.8105 16.7303 30.6822 16.9181C30.5538 17.1059 30.4852 17.328 30.4852 17.5554V19.1925C30.4835 20.9886 29.7692 22.7106 28.4992 23.9806C27.2291 25.2506 25.5071 25.9649 23.7111 25.9667C23.4116 25.9667 23.1245 26.0856 22.9127 26.2974C22.701 26.5091 22.582 26.7963 22.582 27.0957V54.0795C22.5804 54.6521 22.7247 55.2156 23.0012 55.717C23.2778 56.2183 23.6775 56.641 24.1627 56.945L43.6057 69.2221C44.4098 69.7296 45.3413 69.999 46.2922 69.999C47.2431 69.999 48.1746 69.7296 48.9787 69.2221L68.4206 56.9416C68.9053 56.6379 69.3047 56.2158 69.5813 55.7151C69.8578 55.2144 70.0023 54.6515 70.0013 54.0795V27.0957C70.0013 26.7963 69.8823 26.5091 69.6706 26.2974C69.4589 26.0856 69.1717 25.9667 68.8722 25.9667V25.9667ZM49.7126 46.4326C49.8424 46.9524 49.852 47.4949 49.7407 48.019C49.6295 48.543 49.4003 49.0348 49.0705 49.457C48.7407 49.8792 48.3191 50.2208 47.8376 50.4556C47.3561 50.6905 46.8274 50.8126 46.2917 50.8126C45.7559 50.8126 45.2272 50.6905 44.7457 50.4556C44.2642 50.2208 43.8426 49.8792 43.5128 49.457C43.1831 49.0348 42.9538 48.543 42.8426 48.019C42.7313 47.4949 42.7409 46.9524 42.8707 46.4326L44.1713 41.23C43.2817 40.7569 42.5758 39.9999 42.1659 39.0794C41.7561 38.1588 41.6659 37.1277 41.9097 36.15C42.1535 35.1723 42.7173 34.3042 43.5113 33.6838C44.3053 33.0635 45.284 32.7265 46.2917 32.7265C47.2993 32.7265 48.278 33.0635 49.072 33.6838C49.8661 34.3042 50.4298 35.1723 50.6736 36.15C50.9174 37.1277 50.8272 38.1588 50.4174 39.0794C50.0076 39.9999 49.3016 40.7569 48.412 41.23L49.7126 46.4326Z" fill="#1268FB" fill-opacity="0.5"/>
<path d="M32.7418 0H3.38709C2.48878 0 1.62726 0.356853 0.992055 0.992055C0.356853 1.62726 0 2.48878 0 3.38709V53.0644C0 53.9627 0.356853 54.8242 0.992055 55.4594C1.62726 56.0946 2.48878 56.4515 3.38709 56.4515H32.7418C33.6402 56.4515 34.5017 56.0946 35.1369 55.4594C35.7721 54.8242 36.1289 53.9627 36.1289 53.0644V3.38709C36.1289 2.48878 35.7721 1.62726 35.1369 0.992055C34.5017 0.356853 33.6402 0 32.7418 0V0ZM25.2699 2.25806L24.4525 3.89176C24.3595 4.07985 24.2157 4.23808 24.0372 4.34846C23.8588 4.45883 23.653 4.51692 23.4432 4.51612H12.6858C12.476 4.51692 12.2701 4.45883 12.0917 4.34846C11.9133 4.23808 11.7694 4.07985 11.6764 3.89176L10.859 2.25806H25.2699ZM3.38709 2.25806H8.33449L9.65659 4.90224C9.93636 5.46598 10.3684 5.94011 10.9038 6.27095C11.4391 6.60179 12.0564 6.77611 12.6858 6.77417H23.4432C24.0725 6.77611 24.6898 6.60179 25.2252 6.27095C25.7605 5.94011 26.1926 5.46598 26.4723 4.90224L27.7944 2.25806H32.7418C33.0413 2.25806 33.3285 2.37701 33.5402 2.58874C33.7519 2.80048 33.8709 3.08765 33.8709 3.38709V49.6773H2.25806V3.38709C2.25806 3.08765 2.37701 2.80048 2.58874 2.58874C2.80048 2.37701 3.08765 2.25806 3.38709 2.25806V2.25806ZM32.7418 54.1934H3.38709C3.08765 54.1934 2.80048 54.0744 2.58874 53.8627C2.37701 53.651 2.25806 53.3638 2.25806 53.0644V51.9353H33.8709V53.0644C33.8709 53.3638 33.7519 53.651 33.5402 53.8627C33.3285 54.0744 33.0413 54.1934 32.7418 54.1934Z" fill="#002699"/>
<path d="M14.8644 30.584C14.0233 31.4483 13.5527 32.6066 13.5527 33.8125C13.5527 35.0184 14.0233 36.1767 14.8644 37.041C15.2811 37.4673 15.7788 37.806 16.3283 38.0373C16.8778 38.2686 17.4679 38.3877 18.0641 38.3877C18.6602 38.3877 19.2504 38.2686 19.7998 38.0373C20.3493 37.806 20.847 37.4673 21.2637 37.041C22.1048 36.1767 22.5754 35.0184 22.5754 33.8125C22.5754 32.6066 22.1048 31.4483 21.2637 30.584C20.8472 30.1574 20.3495 29.8185 19.8 29.587C19.2505 29.3556 18.6603 29.2363 18.0641 29.2363C17.4678 29.2363 16.8776 29.3556 16.3281 29.587C15.7786 29.8185 15.281 30.1574 14.8644 30.584V30.584ZM19.6537 35.4569C19.2296 35.8737 18.6587 36.1072 18.0641 36.1072C17.4694 36.1072 16.8986 35.8737 16.4744 35.4569C16.0456 35.0167 15.8056 34.4265 15.8056 33.8119C15.8056 33.1974 16.0456 32.6071 16.4744 32.1669C16.681 31.9543 16.9281 31.7853 17.2011 31.6699C17.4742 31.5544 17.7676 31.495 18.0641 31.495C18.3605 31.495 18.6539 31.5544 18.927 31.6699C19.2001 31.7853 19.4472 31.9543 19.6537 32.1669C20.0826 32.6071 20.3225 33.1974 20.3225 33.8119C20.3225 34.4265 20.0826 35.0167 19.6537 35.4569Z" fill="#002699"/>
<path d="M18.0646 23.75C16.7572 23.7479 15.4627 24.0082 14.2577 24.5155C13.0528 25.0228 11.962 25.7669 11.0499 26.7036C10.8542 26.9197 10.7497 27.2031 10.7583 27.4945C10.7669 27.7859 10.8878 28.0627 11.0959 28.267C11.3039 28.4712 11.5829 28.5871 11.8744 28.5903C12.166 28.5935 12.4474 28.4838 12.6599 28.2842C13.363 27.5627 14.2034 26.9893 15.1317 26.5977C16.0599 26.2062 17.0571 26.0045 18.0646 26.0045C19.072 26.0045 20.0692 26.2062 20.9975 26.5977C21.9257 26.9893 22.7661 27.5627 23.4692 28.2842C23.6817 28.4838 23.9632 28.5935 24.2547 28.5903C24.5462 28.5871 24.8252 28.4712 25.0332 28.267C25.2413 28.0627 25.3622 27.7859 25.3708 27.4945C25.3794 27.2031 25.2749 26.9197 25.0792 26.7036C24.1671 25.7669 23.0763 25.0228 21.8714 24.5155C20.6665 24.0082 19.3719 23.7479 18.0646 23.75V23.75Z" fill="#002699"/>
<path d="M8.70816 24.2659C9.9258 23.0177 11.3809 22.0258 12.9877 21.3485C14.5946 20.6712 16.3207 20.3223 18.0644 20.3223C19.8082 20.3223 21.5343 20.6712 23.1411 21.3485C24.748 22.0258 26.2031 23.0177 27.4207 24.2659C27.6332 24.4655 27.9146 24.5752 28.2062 24.572C28.4977 24.5688 28.7767 24.4529 28.9847 24.2487C29.1927 24.0444 29.3137 23.7676 29.3223 23.4762C29.3309 23.1848 29.2264 22.9014 29.0307 22.6853C27.603 21.2232 25.8973 20.0614 24.0141 19.2682C22.1308 18.475 20.1079 18.0664 18.0644 18.0664C16.0209 18.0664 13.9981 18.475 12.1148 19.2682C10.2315 20.0614 8.52587 21.2232 7.09816 22.6853C6.98731 22.7894 6.89864 22.9149 6.83748 23.0541C6.77632 23.1934 6.74393 23.3436 6.74226 23.4957C6.74058 23.6478 6.76966 23.7987 6.82774 23.9392C6.88582 24.0798 6.97171 24.2072 7.08025 24.3138C7.18879 24.4203 7.31774 24.5039 7.45937 24.5593C7.60099 24.6148 7.75236 24.6411 7.9044 24.6367C8.05644 24.6322 8.20601 24.597 8.34413 24.5333C8.48225 24.4696 8.60607 24.3786 8.70816 24.2659V24.2659Z" fill="#002699"/>
</svg>
