<svg width="74" height="72" viewBox="0 0 74 72" fill="none" xmlns="http://www.w3.org/2000/svg">
<path d="M59.0529 10.2433H69.1545C70.7195 10.2433 72 11.5238 72 13.0888V55.7718C72 57.3367 70.7195 58.6172 69.1545 58.6172H4.84552C3.28049 58.6172 2 57.3368 2 55.7718V13.0888C2 11.5236 3.28049 10.2433 4.84552 10.2433H14.9473" stroke="#002699" stroke-width="3" stroke-miterlimit="22.926" stroke-linecap="round" stroke-linejoin="round"/>
<path d="M25.6172 70H48.3814" stroke="#002699" stroke-width="3" stroke-miterlimit="22.926" stroke-linecap="round" stroke-linejoin="round"/>
<path d="M28.4746 69.959L31.5025 58.6587" stroke="#002699" stroke-width="3" stroke-miterlimit="22.926" stroke-linecap="round" stroke-linejoin="round"/>
<path d="M45.5258 69.959L42.498 58.6587" stroke="#002699" stroke-width="3" stroke-miterlimit="22.926" stroke-linecap="round" stroke-linejoin="round"/>
<path d="M59.0532 15.934H66.3093V52.9258H7.69141V15.934H14.9476" stroke="#002699" stroke-width="3" stroke-miterlimit="22.926" stroke-linecap="round" stroke-linejoin="round"/>
<path d="M17.082 40.4062H31.1318" stroke="#002699" stroke-width="3" stroke-miterlimit="22.926" stroke-linecap="round" stroke-linejoin="round"/>
<path d="M17.082 46.666H31.1318" stroke="#002699" stroke-width="3" stroke-miterlimit="22.926" stroke-linecap="round" stroke-linejoin="round"/>
<path d="M42.8711 40.4062H56.9209" stroke="#002699" stroke-width="3" stroke-miterlimit="22.926" stroke-linecap="round" stroke-linejoin="round"/>
<path d="M42.8711 46.666H56.9209" stroke="#002699" stroke-width="3" stroke-miterlimit="22.926" stroke-linecap="round" stroke-linejoin="round"/>
<path fill-rule="evenodd" clip-rule="evenodd" d="M17.0819 0.000289917H56.9192C58.4842 0.000289917 59.7647 1.28078 59.7647 2.84581V31.301C59.7647 32.8661 58.4842 34.1466 56.9192 34.1466H40.4373L38.0067 36.5772C37.4534 37.1305 36.5479 37.1305 35.9946 36.5772L33.564 34.1466H17.0819C15.5168 34.1466 14.2363 32.8661 14.2363 31.301V2.84581C14.2363 1.28078 15.5168 0.000289917 17.0819 0.000289917Z" fill="#1268FB"/>
<path d="M40.0631 11.7375L33.9375 22.4082" stroke="white" stroke-width="3" stroke-miterlimit="22.926" stroke-linecap="round" stroke-linejoin="round"/>
<path d="M28.0762 22.4082L22.7715 17.0728L28.0762 11.7375" stroke="white" stroke-width="3" stroke-miterlimit="22.926" stroke-linecap="round" stroke-linejoin="round"/>
<path d="M45.9238 22.4082L51.2286 17.0728L45.9238 11.7375" stroke="white" stroke-width="3" stroke-miterlimit="22.926" stroke-linecap="round" stroke-linejoin="round"/>
</svg>
