<svg width="72" height="70" viewBox="0 0 72 70" fill="none" xmlns="http://www.w3.org/2000/svg">
<path d="M63.1145 26.3926H35.5736C35.2692 26.3926 34.9773 26.5135 34.7621 26.7287C34.5469 26.9439 34.426 27.2358 34.426 27.5401V30.2563C34.4051 36.2829 35.7341 42.2377 38.3156 47.6834C40.8971 53.1292 44.6654 57.9276 49.344 61.7264C54.0226 57.9276 57.791 53.1292 60.3725 47.6834C62.9539 42.2377 64.283 36.2829 64.262 30.2563V27.5401C64.262 27.2358 64.1411 26.9439 63.9259 26.7287C63.7107 26.5135 63.4188 26.3926 63.1145 26.3926ZM59.3827 38.6311L50.2024 48.9589C50.0926 49.0824 49.9575 49.1806 49.8062 49.247C49.655 49.3135 49.4911 49.3464 49.326 49.3437C49.1608 49.341 48.9982 49.3026 48.8492 49.2313C48.7002 49.1599 48.5684 49.0572 48.4627 48.9302L42.725 42.045C42.5388 41.8103 42.4518 41.5121 42.4825 41.2141C42.5132 40.9161 42.6592 40.642 42.8893 40.4502C43.1195 40.2584 43.4155 40.1642 43.7141 40.1877C44.0128 40.2113 44.2904 40.3507 44.4876 40.5762L49.3716 46.4366L57.666 37.1048C57.7662 36.9918 57.8877 36.8996 58.0235 36.8336C58.1594 36.7675 58.3069 36.7288 58.4576 36.7198C58.6084 36.7107 58.7595 36.7315 58.9023 36.7808C59.0451 36.8301 59.1767 36.9071 59.2897 37.0073C59.4028 37.1075 59.4949 37.229 59.561 37.3648C59.6271 37.5007 59.6657 37.6482 59.6748 37.799C59.6839 37.9498 59.6631 38.1009 59.6138 38.2436C59.5645 38.3864 59.4875 38.5181 59.3873 38.6311H59.3827Z" fill="#1268FB" fill-opacity="0.5"/>
<path d="M67.7049 19.5078H30.9837C30.0706 19.5078 29.195 19.8705 28.5494 20.5161C27.9037 21.1617 27.541 22.0374 27.541 22.9504V30.2568C27.5328 38.0836 29.4612 45.7908 33.1544 52.6915C36.8475 59.5922 42.1906 65.472 48.7074 69.8067C48.896 69.9325 49.1176 69.9997 49.3443 69.9997C49.571 69.9997 49.7926 69.9325 49.9812 69.8067C56.498 65.472 61.8411 59.5922 65.5342 52.6915C69.2273 45.7908 71.1557 38.0836 71.1475 30.2568V22.9504C71.1475 22.0374 70.7848 21.1617 70.1392 20.5161C69.4936 19.8705 68.6179 19.5078 67.7049 19.5078ZM66.5573 30.2568C66.5796 36.7851 65.1029 43.2313 62.2409 49.0988C59.379 54.9664 55.2082 60.0986 50.05 64.1C49.8484 64.2573 49.6 64.3427 49.3443 64.3427C49.0886 64.3427 48.8402 64.2573 48.6385 64.1C43.4803 60.0986 39.3096 54.9664 36.4476 49.0988C33.5857 43.2313 32.1089 36.7851 32.1312 30.2568V27.5406C32.1312 26.6275 32.4939 25.7519 33.1395 25.1063C33.7851 24.4607 34.6608 24.098 35.5738 24.098H63.1147C64.0278 24.098 64.9034 24.4607 65.549 25.1063C66.1946 25.7519 66.5573 26.6275 66.5573 27.5406V30.2568Z" fill="#1268FB" fill-opacity="0.5"/>
<path d="M28.6885 57.3769C34.3625 57.3769 39.9091 55.6944 44.6269 52.542C49.3447 49.3897 53.0218 44.9092 55.1931 39.6671C57.3645 34.4249 57.9326 28.6566 56.8257 23.0916C55.7187 17.5266 52.9864 12.4148 48.9743 8.40267C44.9621 4.39051 39.8503 1.6582 34.2853 0.551253C28.7203 -0.555697 22.952 0.0124304 17.7099 2.18379C12.4677 4.35515 7.9872 8.03222 4.83488 12.75C1.68255 17.4678 0 23.0144 0 28.6885C0.00850449 36.2945 3.03376 43.5866 8.41205 48.9649C13.7903 54.3432 21.0824 57.3684 28.6885 57.3769ZM4.92409 40.1638H10.4196C10.5667 41.2298 10.928 42.2549 11.4816 43.1776C12.0353 44.1002 12.77 44.9013 13.6414 45.5326C14.5128 46.1638 15.503 46.6122 16.5522 46.8508C17.6015 47.0893 18.6882 47.113 19.7468 46.9206C20.5324 49.6937 21.8352 52.2934 23.5865 54.5827C19.5733 53.7843 15.7997 52.0669 12.5618 49.5652C9.32379 47.0635 6.70953 43.8456 4.92409 40.1638ZM28.6885 2.29509C31.1648 2.29509 33.6711 5.60344 35.452 11.1724C34.2889 11.7509 33.2831 12.6026 32.5209 13.6546C31.7587 14.7066 31.2627 15.9276 31.0753 17.2131H20.4778C22.105 8.0695 25.5235 2.29509 28.6885 2.29509ZM39.0163 24.0983C37.8815 24.0983 36.7722 23.7618 35.8286 23.1313C34.885 22.5009 34.1496 21.6048 33.7154 20.5563C33.2811 19.5079 33.1675 18.3543 33.3889 17.2413C33.6102 16.1283 34.1567 15.1059 34.9591 14.3035C35.7616 13.501 36.7839 12.9546 37.8969 12.7332C39.0099 12.5118 40.1636 12.6254 41.212 13.0597C42.2604 13.494 43.1565 14.2294 43.787 15.1729C44.4175 16.1165 44.754 17.2258 44.754 18.3606C44.7522 19.8818 44.1471 21.3401 43.0714 22.4158C41.9958 23.4914 40.5375 24.0965 39.0163 24.0983ZM31.0753 19.5082C31.323 21.2118 32.1114 22.7908 33.3243 24.0125C34.5373 25.2342 36.1107 26.0338 37.8125 26.2936C37.8389 27.0877 37.8688 27.8829 37.8688 28.6885C37.8727 31.7589 37.6684 34.826 37.2571 37.8688H26.3016C26.054 36.1651 25.2655 34.5861 24.0526 33.3644C22.8396 32.1428 21.2662 31.3431 19.5644 31.0834C19.538 30.295 19.5081 29.4917 19.5081 28.6885C19.5042 25.6181 19.7085 22.5509 20.1198 19.5082H31.0753ZM28.6885 55.0818C26.2121 55.0818 23.7058 51.7735 21.9249 46.2045C23.088 45.626 24.0938 44.7743 24.856 43.7223C25.6182 42.6703 26.1142 41.4494 26.3016 40.1638H36.8991C35.2719 49.3074 31.8534 55.0818 28.6885 55.0818ZM18.3606 33.2786C19.4954 33.2786 20.6047 33.6151 21.5483 34.2456C22.4919 34.8761 23.2273 35.7722 23.6615 36.8206C24.0958 37.869 24.2094 39.0227 23.9881 40.1357C23.7667 41.2487 23.2202 42.271 22.4178 43.0735C21.6153 43.8759 20.593 44.4224 19.48 44.6438C18.367 44.8651 17.2133 44.7515 16.1649 44.3172C15.1165 43.883 14.2204 43.1476 13.5899 42.204C12.9594 41.2604 12.6229 40.1511 12.6229 39.0163C12.6247 37.4951 13.2298 36.0368 14.3055 34.9612C15.3811 33.8855 16.8394 33.2804 18.3606 33.2786ZM33.6975 54.5987C36.1876 51.6484 38.1556 46.5315 39.2389 40.1638H52.4528C50.6605 43.8598 48.0328 47.0881 44.7777 49.5934C41.5225 52.0987 37.7291 53.8123 33.6975 54.5987ZM53.4328 37.8688H39.582C39.9745 34.8245 40.1688 31.7579 40.1638 28.6885C40.1638 27.8852 40.134 27.1003 40.1088 26.3096C41.8331 26.0711 43.4333 25.2789 44.6685 24.0522C45.9036 22.8255 46.7068 21.2308 46.9573 19.5082H53.4328C55.6315 25.4309 55.6315 31.946 53.4328 37.8688ZM52.4528 17.2131H46.9573C46.8102 16.1472 46.4489 15.122 45.8953 14.1993C45.3416 13.2767 44.6069 12.4756 43.7355 11.8444C42.8641 11.2131 41.874 10.7647 40.8247 10.5262C39.7754 10.2876 38.6888 10.2639 37.6301 10.4564C36.8445 7.6832 35.5417 5.08352 33.7904 2.79427C37.8036 3.59263 41.5772 5.31003 44.8151 7.81172C48.0531 10.3134 50.6674 13.5314 52.4528 17.2131ZM23.6795 2.7782C21.1893 5.72852 19.2213 10.8454 18.138 17.2131H4.92409C6.71642 13.5171 9.34407 10.2888 12.5992 7.78353C15.8544 5.27823 19.6478 3.56461 23.6795 2.7782ZM3.94409 19.5082H17.7949C17.4024 22.5524 17.2081 25.619 17.2131 28.6885C17.2131 29.4917 17.2429 30.2767 17.2682 31.0673C15.5438 31.3058 13.9436 32.0981 12.7085 33.3247C11.4733 34.5514 10.6701 36.1461 10.4196 37.8688H3.94409C1.74539 31.946 1.74539 25.4309 3.94409 19.5082Z" fill="#002699"/>
</svg>
