<svg width="74" height="74" viewBox="0 0 74 74" fill="none" xmlns="http://www.w3.org/2000/svg">
<path d="M64.8569 19.1426H9.14258V64.8568H64.8569V19.1426Z" fill="#1268FB"/>
<path d="M67.7317 72H6.26829C3.91091 72 2 70.0891 2 67.7317V6.26829C2 3.91091 3.91091 2 6.26829 2H67.7317C70.0891 2 72 3.91091 72 6.26829V67.7317C72 70.0891 70.0891 72 67.7317 72Z" stroke="#002699" stroke-width="3" stroke-miterlimit="10" stroke-linecap="round" stroke-linejoin="round"/>
<path d="M2 19.1426H72" stroke="#002699" stroke-width="3" stroke-miterlimit="10" stroke-linecap="round" stroke-linejoin="round"/>
<path d="M39.1424 13.4292C40.7203 13.4292 41.9995 12.15 41.9995 10.572C41.9995 8.99405 40.7203 7.71484 39.1424 7.71484C37.5644 7.71484 36.2852 8.99405 36.2852 10.572C36.2852 12.15 37.5644 13.4292 39.1424 13.4292Z" stroke="#002699" stroke-width="3" stroke-miterlimit="10" stroke-linecap="round" stroke-linejoin="round"/>
<path d="M50.572 13.4292C52.15 13.4292 53.4292 12.15 53.4292 10.572C53.4292 8.99405 52.15 7.71484 50.572 7.71484C48.9941 7.71484 47.7148 8.99405 47.7148 10.572C47.7148 12.15 48.9941 13.4292 50.572 13.4292Z" stroke="#002699" stroke-width="3" stroke-miterlimit="10" stroke-linecap="round" stroke-linejoin="round"/>
<path d="M61.9998 13.4292C63.5778 13.4292 64.857 12.15 64.857 10.572C64.857 8.99405 63.5778 7.71484 61.9998 7.71484C60.4218 7.71484 59.1426 8.99405 59.1426 10.572C59.1426 12.15 60.4218 13.4292 61.9998 13.4292Z" stroke="#002699" stroke-width="3" stroke-miterlimit="10" stroke-linecap="round" stroke-linejoin="round"/>
<path d="M9.14453 10.5703H20.5732" stroke="#002699" stroke-width="3" stroke-miterlimit="10" stroke-linecap="round" stroke-linejoin="round"/>
<path d="M36.9989 59.819C40.5494 59.819 43.4275 52.1438 43.4275 42.6761C43.4275 33.2083 40.5494 25.5332 36.9989 25.5332C33.4485 25.5332 30.5703 33.2083 30.5703 42.6761C30.5703 52.1438 33.4485 59.819 36.9989 59.819Z" stroke="white" stroke-width="3" stroke-miterlimit="10" stroke-linecap="round" stroke-linejoin="round"/>
<path d="M19.8555 42.6777H54.1412" stroke="white" stroke-width="3" stroke-miterlimit="10" stroke-linecap="round" stroke-linejoin="round"/>
<path d="M49.1211 54.7975C55.8157 48.1029 55.8157 37.2487 49.1211 30.554C42.4264 23.8594 31.5722 23.8594 24.8776 30.554C18.1829 37.2487 18.1829 48.1029 24.8776 54.7975C31.5722 61.4922 42.4264 61.4922 49.1211 54.7975Z" stroke="white" stroke-width="3" stroke-miterlimit="10" stroke-linecap="round" stroke-linejoin="round"/>
</svg>
