<svg width="70" height="70" viewBox="0 0 70 70" fill="none" xmlns="http://www.w3.org/2000/svg">
<path d="M51.4968 41.7743C50.6695 36.7757 48.8345 33.8711 47.4192 33.8711C46.004 33.8711 44.1691 36.7757 43.3418 41.7743H51.4968Z" fill="#1268FB" fill-opacity="0.5"/>
<path d="M40.6433 47.4183C40.6433 46.2898 40.7011 45.1531 40.8029 44.0312H34.3149C33.7205 46.2502 33.7205 48.5865 34.3149 50.8054H40.8029C40.7011 49.6836 40.6433 48.5469 40.6433 47.4183Z" fill="#1268FB" fill-opacity="0.5"/>
<path d="M43.3418 53.0645C44.1691 58.063 46.0041 60.9677 47.4192 60.9677C48.8344 60.9677 50.6695 58.063 51.4968 53.0645H43.3418Z" fill="#1268FB" fill-opacity="0.5"/>
<path d="M42.9023 47.4183C42.9023 48.6183 42.9611 49.7435 43.0587 50.8054H51.778C51.8757 49.7435 51.9345 48.6183 51.9345 47.4183C51.9345 46.2184 51.8757 45.0932 51.778 44.0312H43.0587C42.9611 45.0932 42.9023 46.2184 42.9023 47.4183Z" fill="#1268FB" fill-opacity="0.5"/>
<path d="M54.033 44.0312C54.1348 45.1531 54.1926 46.2898 54.1926 47.4183C54.1926 48.5469 54.1348 49.6836 54.033 50.8054H60.521C61.1153 48.5865 61.1153 46.2502 60.521 44.0312H54.033Z" fill="#1268FB" fill-opacity="0.5"/>
<path d="M69.9992 47.4185C69.8959 46.487 69.4493 45.6274 68.7467 45.0072C67.9188 44.0848 67.9589 44.196 68.4567 43.0733C69.429 40.8749 69.2114 39.8426 66.9704 38.5439C65.8844 37.9143 65.9626 38.0121 66.0862 36.7986C66.3304 34.3988 65.7989 33.4834 63.279 32.9451C62.1006 32.6915 62.1564 32.8011 61.8931 31.5592C61.3496 29.0311 60.4403 28.5109 58.0418 28.752C56.8245 28.8719 56.9261 28.9585 56.2931 27.8667C54.9888 25.6159 53.9572 25.413 51.7638 26.3804C50.5966 26.9017 50.686 26.8623 49.8288 26.0893C49.2089 25.387 48.3496 24.9408 47.4185 24.8379C46.487 24.9412 45.6274 25.3877 45.0072 26.0904C44.0797 26.9228 44.2141 26.884 43.0733 26.3804C40.8659 25.4041 39.8375 25.6345 38.5439 27.8667C37.9112 28.9581 38.0136 28.8709 36.7986 28.7509C34.3637 28.5 33.4752 29.0764 32.9451 31.5581C32.6915 32.7365 32.8011 32.6807 31.5592 32.944C29.0215 33.4895 28.5091 34.4148 28.752 36.7953C28.876 38.0121 28.9533 37.914 27.8667 38.5439C25.6216 39.845 25.4089 40.8769 26.3804 43.0733C26.8779 44.1955 26.9212 44.0858 26.0893 45.0083C25.387 45.6282 24.9408 46.4875 24.8379 47.4185C24.9412 48.35 25.3877 49.2097 26.0904 49.8299C26.9183 50.7523 26.8781 50.641 26.3804 51.7638C25.4081 53.9621 25.6256 54.9944 27.8667 56.2931C28.1965 56.4555 28.4996 56.6674 28.7653 56.9216C28.8198 57.2923 28.815 57.6693 28.7509 58.0385C28.5067 60.4383 29.0381 61.3537 31.5581 61.892C32.7365 62.1456 32.6807 62.036 32.944 63.2779C33.4764 65.7549 34.3519 66.3372 36.7953 66.0851C38.0126 65.9652 37.911 65.8786 38.5439 66.9704C39.8503 69.2247 40.8859 69.4241 43.0733 68.4567C44.1996 67.9553 44.1008 67.9294 45.0083 68.7478C45.6282 69.4501 46.4875 69.8963 47.4185 69.9992C48.35 69.8959 49.2097 69.4493 49.8299 68.7467C50.7392 67.9306 50.5958 67.9411 51.7638 68.4567C53.9462 69.4175 54.9831 69.231 56.2931 66.9704C56.9225 65.8848 56.8275 65.9591 58.0385 66.0862C60.4072 66.3276 61.3479 65.8259 61.892 63.279C62.1456 62.1006 62.036 62.1564 63.2779 61.8931C65.8155 61.3476 66.328 60.4223 66.0851 58.0418C65.9611 56.8249 65.8838 56.9231 66.9704 56.2931C69.2155 54.9921 69.4281 53.9602 68.4567 51.7638C67.9592 50.6416 67.9159 50.7513 68.7478 49.8288C69.4501 49.2089 69.8963 48.3496 69.9992 47.4185ZM62.4247 52.3549L62.4138 52.3847C61.3722 55.5392 59.3623 58.2849 56.6701 60.2311C53.9779 62.1773 50.7405 63.2249 47.4184 63.2249C44.0964 63.2249 40.859 62.1772 38.1669 60.231C35.4747 58.2847 33.4648 55.539 32.4233 52.3845L32.4125 52.3553C31.3453 49.1507 31.3453 45.6865 32.4125 42.4818L32.4234 42.4524C33.4649 39.2979 35.4748 36.5522 38.1669 34.606C40.8591 32.6598 44.0965 31.6121 47.4185 31.6121C50.7405 31.6121 53.9779 32.6597 56.6701 34.6059C59.3623 36.5521 61.3722 39.2977 62.4138 42.4522L62.4248 42.4823C63.4918 45.6867 63.4918 49.1505 62.4248 52.3549H62.4247Z" fill="#1268FB" fill-opacity="0.5"/>
<path d="M35.1172 53.0645C35.9129 54.7943 37.0628 56.3378 38.4926 57.5952C39.9224 58.8526 41.6003 59.7959 43.4176 60.364C42.1967 58.0946 41.4028 55.6205 41.0753 53.0645H35.1172Z" fill="#1268FB" fill-opacity="0.5"/>
<path d="M51.418 60.362C53.2353 59.7939 54.9132 58.8507 56.343 57.5933C57.7728 56.3359 58.9227 54.7923 59.7184 53.0625H53.7603C53.4328 55.6185 52.6388 58.0927 51.418 60.362Z" fill="#1268FB" fill-opacity="0.5"/>
<path d="M43.4176 34.4746C41.6003 35.0427 39.9224 35.9859 38.4926 37.2433C37.0628 38.5007 35.9129 40.0443 35.1172 41.7741H41.0753C41.4028 39.2181 42.1967 36.7439 43.4176 34.4746Z" fill="#1268FB" fill-opacity="0.5"/>
<path d="M59.7184 41.7722C58.9227 40.0423 57.7728 38.4988 56.343 37.2414C54.9132 35.984 53.2353 35.0407 51.418 34.4727C52.6389 36.742 53.4328 39.2161 53.7603 41.7722H59.7184Z" fill="#1268FB" fill-opacity="0.5"/>
<path d="M51.3313 2.31543C50.5991 1.5791 49.7281 0.995328 48.7688 0.597888C47.8094 0.200449 46.7808 -0.00275835 45.7424 2.82762e-05H10.7093C9.67089 -0.00275835 8.64224 0.200449 7.6829 0.597888C6.72356 0.995328 5.85258 1.5791 5.12037 2.31543L2.31543 5.12037C1.5791 5.85258 0.995328 6.72356 0.597888 7.6829C0.200449 8.64224 -0.00275835 9.67089 2.82762e-05 10.7093V39.6959C-0.00317645 41.5511 0.503048 43.3716 1.4635 44.9589C2.42396 46.5462 3.80178 47.8393 5.44673 48.6973L22.8398 57.8078C23.9716 58.3987 25.2291 58.708 26.5058 58.7097H29.9458C31.2229 58.7079 32.4807 58.3986 33.6129 57.8078L51.0049 48.6973C52.6499 47.8393 54.0277 46.5462 54.9881 44.9589C55.9486 43.3716 56.4548 41.5511 56.4516 39.6959V10.7093C56.4544 9.67089 56.2512 8.64224 55.8538 7.6829C55.4563 6.72356 54.8726 5.85258 54.1362 5.12037L51.3313 2.31543ZM38.3871 27.0968C38.3871 29.1065 37.7912 31.0711 36.6746 32.7421C35.5581 34.4131 33.9711 35.7155 32.1144 36.4846C30.2577 37.2537 28.2146 37.4549 26.2435 37.0629C24.2724 36.6708 22.4618 35.703 21.0407 34.2819C19.6196 32.8608 18.6519 31.0503 18.2598 29.0792C17.8677 27.1081 18.0689 25.065 18.838 23.2082C19.6071 21.3515 20.9095 19.7645 22.5805 18.648C24.2515 17.5315 26.2161 16.9355 28.2258 16.9355C30.9199 16.9385 33.5027 18.01 35.4077 19.9149C37.3127 21.8199 38.3842 24.4028 38.3871 27.0968ZM23.8861 55.8077L6.49422 46.6972C5.21474 46.03 4.14305 45.0242 3.39605 43.7896C2.64905 42.5549 2.25542 41.1389 2.25809 39.6959V10.7093C2.25611 9.96753 2.40126 9.23274 2.68514 8.54744C2.96902 7.86215 3.386 7.23996 3.91194 6.71689L6.71689 3.91194C7.23996 3.386 7.86215 2.96902 8.54744 2.68514C9.23274 2.40126 9.96753 2.25611 10.7093 2.25809H27.0968V14.7346C25.3901 14.8921 23.7346 15.4015 22.2347 16.2309C20.7349 17.0604 19.4232 18.1917 18.3826 19.5535L15.8065 18.4493V16.7752C16.8708 16.5004 17.7983 15.8469 18.4152 14.9371C19.0321 14.0274 19.2961 12.9239 19.1576 11.8334C19.0191 10.743 18.4876 9.74049 17.6629 9.01386C16.8381 8.28723 15.7766 7.88634 14.6774 7.88634C13.5783 7.88634 12.5168 8.28723 11.692 9.01386C10.8673 9.74049 10.3358 10.743 10.1973 11.8334C10.0588 12.9239 10.3228 14.0274 10.9397 14.9371C11.5566 15.8469 12.4841 16.5004 13.5484 16.7752V19.1936C13.5483 19.4146 13.6131 19.6308 13.7349 19.8152C13.8566 19.9997 14.0299 20.1443 14.2331 20.2311L17.1609 21.4859C16.4467 22.8835 16.0064 24.4048 15.8637 25.9678H13.3881C13.1133 24.9035 12.4598 23.9759 11.55 23.359C10.6403 22.7421 9.53675 22.4782 8.44632 22.6167C7.35588 22.7552 6.35339 23.2866 5.62676 24.1114C4.90013 24.9361 4.49924 25.9976 4.49924 27.0968C4.49924 28.196 4.90013 29.2575 5.62676 30.0822C6.35339 30.907 7.35588 31.4384 8.44632 31.5769C9.53675 31.7154 10.6403 31.4515 11.55 30.8346C12.4598 30.2177 13.1133 29.2901 13.3881 28.2258H15.8636C16.0063 29.7888 16.4467 31.3101 17.1609 32.7077L14.2331 33.9625C14.0298 34.0493 13.8566 34.1939 13.7348 34.3784C13.6131 34.5628 13.5483 34.779 13.5484 35V37.4184C12.4841 37.6932 11.5566 38.3467 10.9397 39.2565C10.3228 40.1662 10.0588 41.2698 10.1973 42.3602C10.3358 43.4506 10.8673 44.4531 11.692 45.1797C12.5168 45.9064 13.5783 46.3073 14.6774 46.3073C15.7766 46.3073 16.8381 45.9064 17.6629 45.1797C18.4876 44.4531 19.0191 43.4506 19.1576 42.3602C19.2961 41.2698 19.0321 40.1662 18.4152 39.2565C17.7983 38.3467 16.8708 37.6932 15.8065 37.4184V35.7443L18.3826 34.6401C19.4232 36.0019 20.7349 37.1332 22.2347 37.9626C23.7346 38.7921 25.3901 39.3015 27.0968 39.459V56.4516H26.5058C25.5936 56.4505 24.695 56.2296 23.8861 55.8077ZM14.6774 14.6774C14.2308 14.6774 13.7943 14.545 13.4229 14.2969C13.0516 14.0488 12.7622 13.6961 12.5913 13.2835C12.4204 12.8709 12.3756 12.4169 12.4628 11.9789C12.5499 11.5408 12.765 11.1385 13.0808 10.8227C13.3966 10.5069 13.7989 10.2918 14.2369 10.2047C14.6749 10.1176 15.129 10.1623 15.5416 10.3332C15.9542 10.5041 16.3068 10.7935 16.555 11.1649C16.8031 11.5362 16.9355 11.9728 16.9355 12.4194C16.9347 13.018 16.6966 13.5919 16.2733 14.0152C15.85 14.4385 15.2761 14.6767 14.6774 14.6774ZM11.2904 27.0968C11.2904 27.5434 11.1579 27.98 10.9098 28.3513C10.6617 28.7227 10.309 29.0121 9.89641 29.183C9.4838 29.3539 9.02978 29.3986 8.59176 29.3115C8.15374 29.2243 7.75139 29.0093 7.43559 28.6935C7.1198 28.3777 6.90474 27.9753 6.81761 27.5373C6.73048 27.0993 6.7752 26.6453 6.94611 26.2327C7.11701 25.8201 7.40644 25.4674 7.77777 25.2193C8.14911 24.9712 8.58568 24.8387 9.03229 24.8387C9.63092 24.8395 10.2048 25.0777 10.6281 25.501C11.0514 25.9243 11.2896 26.4982 11.2904 27.0968ZM14.6774 39.5162C15.1241 39.5162 15.5606 39.6486 15.932 39.8967C16.3033 40.1448 16.5927 40.4975 16.7636 40.9101C16.9345 41.3227 16.9793 41.7767 16.8921 42.2148C16.805 42.6528 16.5899 43.0551 16.2741 43.3709C15.9583 43.6867 15.556 43.9018 15.118 43.9889C14.68 44.076 14.2259 44.0313 13.8133 43.8604C13.4007 43.6895 13.0481 43.4001 12.7999 43.0287C12.5518 42.6574 12.4194 42.2208 12.4194 41.7742C12.4202 41.1756 12.6583 40.6017 13.0816 40.1784C13.5049 39.7551 14.0788 39.5169 14.6774 39.5162ZM54.1936 39.6959C54.1963 41.1389 53.8026 42.5549 53.0556 43.7896C52.3086 45.0242 51.2369 46.03 49.9575 46.6972L32.5667 55.8077C31.7574 56.2295 30.8585 56.4503 29.9458 56.4516H29.3549V39.459C31.0615 39.3016 32.7171 38.7921 34.2169 37.9627C35.7168 37.1332 37.0285 36.0019 38.0691 34.6401L40.6452 35.7443V37.4184C39.5809 37.6932 38.6534 38.3467 38.0364 39.2565C37.4195 40.1662 37.1556 41.2698 37.2941 42.3602C37.4326 43.4506 37.964 44.4531 38.7888 45.1797C39.6136 45.9064 40.675 46.3073 41.7742 46.3073C42.8734 46.3073 43.9349 45.9064 44.7596 45.1797C45.5844 44.4531 46.1159 43.4506 46.2544 42.3602C46.3929 41.2698 46.1289 40.1662 45.512 39.2565C44.8951 38.3467 43.9675 37.6932 42.9033 37.4184V35C42.9034 34.779 42.8386 34.5628 42.7168 34.3784C42.5951 34.1939 42.4218 34.0493 42.2186 33.9625L39.2907 32.7077C40.005 31.3101 40.4453 29.7888 40.588 28.2258H43.0636C43.3384 29.2901 43.9919 30.2177 44.9017 30.8346C45.8114 31.4515 46.9149 31.7154 48.0054 31.5769C49.0958 31.4384 50.0983 30.907 50.8249 30.0822C51.5515 29.2575 51.9524 28.196 51.9524 27.0968C51.9524 25.9976 51.5515 24.9361 50.8249 24.1114C50.0983 23.2866 49.0958 22.7552 48.0054 22.6167C46.9149 22.4782 45.8114 22.7421 44.9017 23.359C43.9919 23.9759 43.3384 24.9035 43.0636 25.9678H40.588C40.4453 24.4048 40.005 22.8835 39.2907 21.4859L42.2185 20.2311C42.4218 20.1443 42.5951 19.9997 42.7168 19.8152C42.8386 19.6308 42.9034 19.4146 42.9033 19.1936V16.7752C43.9675 16.5004 44.8951 15.8469 45.512 14.9371C46.1289 14.0274 46.3929 12.9239 46.2544 11.8334C46.1159 10.743 45.5844 9.74049 44.7596 9.01386C43.9349 8.28723 42.8734 7.88634 41.7742 7.88634C40.675 7.88634 39.6136 8.28723 38.7888 9.01386C37.964 9.74049 37.4326 10.743 37.2941 11.8334C37.1556 12.9239 37.4195 14.0274 38.0364 14.9371C38.6534 15.8469 39.5809 16.5004 40.6452 16.7752V18.4493L38.0691 19.5535C37.0285 18.1917 35.7168 17.0604 34.2169 16.2309C32.7171 15.4015 31.0615 14.8921 29.3549 14.7346V2.25809H45.7424C46.4841 2.25611 47.2189 2.40126 47.9042 2.68514C48.5895 2.96902 49.2117 3.386 49.7348 3.91194L52.5397 6.71689C53.0657 7.23996 53.4827 7.86215 53.7665 8.54744C54.0504 9.23274 54.1956 9.96753 54.1936 10.7093V39.6959ZM41.7742 39.5162C42.2208 39.5162 42.6574 39.6486 43.0287 39.8967C43.4001 40.1448 43.6895 40.4975 43.8604 40.9101C44.0313 41.3227 44.076 41.7767 43.9889 42.2148C43.9018 42.6528 43.6867 43.0551 43.3709 43.3709C43.0551 43.6867 42.6528 43.9018 42.2148 43.9889C41.7767 44.076 41.3227 44.0313 40.9101 43.8604C40.4975 43.6895 40.1448 43.4001 39.8967 43.0287C39.6486 42.6574 39.5162 42.2208 39.5162 41.7742C39.5169 41.1756 39.7551 40.6017 40.1784 40.1784C40.6017 39.7551 41.1756 39.5169 41.7742 39.5162ZM45.1613 27.0968C45.1613 26.6502 45.2938 26.2136 45.5419 25.8423C45.79 25.471 46.1427 25.1815 46.5553 25.0106C46.9679 24.8397 47.4219 24.795 47.8599 24.8821C48.2979 24.9693 48.7003 25.1843 49.0161 25.5001C49.3319 25.8159 49.5469 26.2183 49.6341 26.6563C49.7212 27.0943 49.6765 27.5483 49.5056 27.9609C49.3347 28.3735 49.0452 28.7262 48.6739 28.9743C48.3026 29.2224 47.866 29.3549 47.4194 29.3549C46.8207 29.3541 46.2469 29.1159 45.8236 28.6926C45.4002 28.2693 45.1621 27.6954 45.1613 27.0968ZM41.7742 14.6774C41.3276 14.6774 40.891 14.545 40.5197 14.2969C40.1484 14.0488 39.859 13.6961 39.688 13.2835C39.5171 12.8709 39.4724 12.4169 39.5595 11.9789C39.6467 11.5408 39.8617 11.1385 40.1775 10.8227C40.4933 10.5069 40.8957 10.2918 41.3337 10.2047C41.7717 10.1176 42.2257 10.1623 42.6383 10.3332C43.051 10.5041 43.4036 10.7935 43.6517 11.1649C43.8999 11.5362 44.0323 11.9728 44.0323 12.4194C44.0315 13.018 43.7934 13.5919 43.3701 14.0152C42.9468 14.4385 42.3729 14.6767 41.7742 14.6774Z" fill="#002699"/>
<path d="M32.7415 23.9175V22.5805C32.7405 21.6824 32.3833 20.8215 31.7484 20.1865C31.1134 19.5515 30.2524 19.1943 29.3544 19.1934H27.0963C26.1983 19.1943 25.3374 19.5515 24.7024 20.1865C24.0674 20.8215 23.7102 21.6824 23.7092 22.5805V23.9175C23.0507 24.1495 22.4801 24.5796 22.0758 25.1488C21.6715 25.718 21.4533 26.3984 21.4512 27.0966V30.4837C21.4522 31.3817 21.8093 32.2426 22.4443 32.8776C23.0793 33.5126 23.9403 33.8698 24.8383 33.8708H31.6125C32.5105 33.8698 33.3714 33.5126 34.0064 32.8776C34.6414 32.2426 34.9986 31.3817 34.9996 30.4837V27.0966C34.9974 26.3984 34.7792 25.718 34.3749 25.1488C33.9706 24.5796 33.4 24.1495 32.7415 23.9175ZM27.0963 21.4514H29.3544C29.6538 21.4516 29.9408 21.5706 30.1525 21.7823C30.3642 21.994 30.4832 22.2811 30.4834 22.5805V23.7095H25.9673V22.5805C25.9675 22.2811 26.0865 21.994 26.2982 21.7823C26.5099 21.5706 26.797 21.4516 27.0963 21.4514ZM32.7415 30.4837C32.7413 30.7831 32.6223 31.0701 32.4106 31.2818C32.1989 31.4935 31.9118 31.6125 31.6125 31.6127H24.8383C24.5389 31.6125 24.2518 31.4935 24.0401 31.2818C23.8285 31.0701 23.7094 30.7831 23.7092 30.4837V27.0966C23.7094 26.7972 23.8285 26.5102 24.0401 26.2985C24.2518 26.0868 24.5389 25.9678 24.8383 25.9676H31.6125C31.9118 25.9678 32.1989 26.0868 32.4106 26.2985C32.6223 26.5102 32.7413 26.7972 32.7415 27.0966V30.4837Z" fill="#002699"/>
<path d="M28.2267 27.0977C28.0784 27.0976 27.9315 27.1267 27.7945 27.1834C27.6575 27.2401 27.533 27.3233 27.4282 27.4282C27.3233 27.533 27.2401 27.6575 27.1834 27.7945C27.1267 27.9315 27.0976 28.0784 27.0977 28.2267V29.3557C27.0977 29.6552 27.2166 29.9423 27.4283 30.1541C27.6401 30.3658 27.9273 30.4848 28.2267 30.4848C28.5261 30.4848 28.8133 30.3658 29.025 30.1541C29.2368 29.9423 29.3557 29.6552 29.3557 29.3557V28.2267C29.3558 28.0784 29.3267 27.9315 29.27 27.7945C29.2132 27.6575 29.1301 27.533 29.0252 27.4282C28.9204 27.3233 28.7959 27.2401 28.6589 27.1834C28.5218 27.1267 28.375 27.0976 28.2267 27.0977Z" fill="#002699"/>
</svg>
